<?xml version="1.0" encoding="UTF-8"?>
<svg width="100pt" height="100pt" version="1.1" viewBox="0 0 100 100" xmlns="http://www.w3.org/2000/svg">
 <g>
  <path d="m22.969 24.578c-1.2812 0-2.3125 1.0312-2.3125 2.3125s1.0312 2.3125 2.3125 2.3125 2.3125-1.0312 2.3125-2.3125-1.0469-2.3125-2.3125-2.3125zm0 3.0781c-0.42188 0-0.76562-0.34375-0.76562-0.76562s0.34375-0.76562 0.76562-0.76562 0.76562 0.34375 0.76562 0.76562-0.34375 0.76562-0.76562 0.76562z"/>
  <path d="m98.344 53.359c-0.5625-8.3125-2.5312-11.406-3.1406-12.172-0.21875-4.5938-1.7656-9.6875-5.5156-15.078-0.078125-0.10938-7.3594-11.016-22-7.7969-1.2969 0.26562-2.5625 0.51562-3.8438 0.60938-1.0625 0.078125-10.516 0.6875-17.766-1.4844-1.5938-1.8125-3.375-2.8438-5.3125-3.0312-1.5469-0.14062-3.0156 0.25-4.3594 0.90625-0.0625-0.046875-0.125-0.10938-0.20312-0.14062-0.40625-0.15625-10.062-3.8438-18.5 1.2344-4.1094 2.4688-7.1562 6.5938-9.125 12.25l-5.0781-2.7188c-0.23438-0.125-0.51562-0.125-0.75 0.015625-0.23438 0.125-0.375 0.375-0.39062 0.64062-0.15625 3.6094 3.4531 6.9688 4.6562 7.9688-0.1875 0.98438-0.34375 2-0.48438 3.0469-1.7031-0.75-3.4688-1.9531-5.2031-3.7812-0.23438-0.25-0.59375-0.3125-0.90625-0.15625-0.29688 0.15625-0.46875 0.48438-0.42188 0.8125 0.015625 0.078125 1.1406 6.3594 6.9375 9.5v25.047c0 3.7812 1.6875 7.25 4.5 9.2969 2.0312 1.4688 4.4688 2.2031 7.2812 2.2031 0.28125 0 0.57812-0.015625 0.875-0.015625 0.40625-0.015625 0.73438-0.35938 0.73438-0.76562v-4.5312c0-0.42188-0.34375-0.76562-0.76562-0.76562-3.0938-0.046875-3.9062-2.75-4.0312-3.25l0.59375-25.719c2.2344-0.34375 4.4688-1.1719 6.5-2.4375 0.26562-0.17188 0.51562-0.34375 0.76562-0.51562l4.2812 4.125c0.1875 0.76562 0.5625 1.4219 1.1406 1.9219 0.23438 0.21875 0.51562 0.375 0.79688 0.51562l-4.2188 19.156-0.84375 11.266-1.8438 2.9219c-0.34375 0.54688-0.35938 1.2188-0.046875 1.7812s0.89062 0.90625 1.5312 0.90625h11.391c0.42188 0 0.76562-0.34375 0.76562-0.76562v-9.9844l4.5156-8.0938c0.53125 3.0781 1.0625 8.0469 0 12.281l-1.7812 2.4688c-0.4375 0.625-0.67188 1.3438-0.67188 2.1094v0.51562c0 1.4375 1.1719 2.5938 2.5938 2.5938h12.891c0.42188 0 0.76562-0.34375 0.76562-0.76562v-2.1406c0-0.125-0.03125-0.25-0.09375-0.375l-1.875-3.4062v-19.047l1.1719-2.0938c1.7812 0.78125 6.8594 2.7812 12.859 2.7812 0.98438 0 2.0156-0.078125 3.0312-0.20312 0.21875 3.0938 0.26562 7.5-0.75 11.281-0.015625 0.0625-0.98438 5.5312-3.5 8.8906-0.625 0.84375-0.78125 1.9219-0.39062 2.8906 0.35938 0.92188 1.1719 1.5625 2.1406 1.7188 0.45312 0.078125 0.96875 0.125 1.5469 0.125h6.9688c1.1719 0 2.2188-0.65625 2.7656-1.7031 0.46875-0.90625 0.4375-1.9219-0.078125-2.8125 0.67188-3.4688 2.4062-10.969 4.2969-14.734v13.719l-1.0781 2.8594c-0.17188 0.4375-0.10938 0.92188 0.15625 1.2969s0.6875 0.60938 1.1562 0.60938h10.453c0.5 0 0.95312-0.25 1.2031-0.6875s0.26562-0.95312 0.015625-1.3906l-1.6094-2.9062v-27.562c1.0625-2.4531 1.8438-5.2188 2.1094-8.2344 0.65625 1.7188 1.375 4.5781 1.6719 9.125-0.8125 0.48438-1.375 1.6094-1.375 2.9375 0 1.6875 1.6406 2.9219 1.8281 3.0625 0.14062 0.09375 0.29688 0.14062 0.45312 0.14062s0.3125-0.046875 0.45312-0.14062c0.17188-0.125 1.8125-1.3594 1.8125-3.0469 0-1.4844-0.6875-2.7031-1.6562-3.0781zm-94.281-25.344 4.0312 2.1562c-0.25 0.85938-0.5 1.7344-0.71875 2.6562-1.0781-1.0156-2.7812-2.8438-3.3125-4.8125zm14.734 47.906v3.0781c-2.5312 0-4.6719-0.625-6.4531-1.9219-2.4219-1.75-3.875-4.7656-3.875-8.0469v-24.328c0.5625 0.21875 1.1406 0.40625 1.7656 0.5625 1.1094 0.28125 2.2656 0.40625 3.4375 0.40625 0.29688 0 0.60938-0.046875 0.90625-0.0625l-0.5625 25.656c0 0.0625 0 0.10938 0.015625 0.17188 0.28125 1.4375 1.6406 4.0781 4.7656 4.4844zm10.266-30.766 0.9375-10.875c0.03125-0.42188-0.28125-0.79688-0.70312-0.82812-0.40625-0.03125-0.79688 0.28125-0.82812 0.70312l-0.89062 10.266-2.9531-2.8438c0.53125-0.48438 0.98438-0.96875 1.3125-1.4688 0.23438-0.35938 0.14062-0.82812-0.21875-1.0625s-0.82812-0.14062-1.0625 0.21875c-0.5625 0.82812-1.5 1.6719-2.8281 2.4844-3.5156 2.1875-7.6094 2.9375-11.203 2.0469-4.8281-1.1875-7.1562-4.5-8.2344-6.9062 1.4219 1.1094 2.8438 1.8906 4.2344 2.4062 0.125 0.125 0.26562 0.21875 0.45312 0.23438h0.09375c0.03125 0 0.0625-0.015625 0.09375-0.015625 7.9062 2.4844 14.703-3.2969 14.781-3.3594 0.3125-0.28125 0.35938-0.76562 0.078125-1.0781-0.28125-0.32812-0.76562-0.35938-1.0781-0.078125s-6.1094 5.2031-13 3.1719c1.2969-10.109 4.7969-16.984 10.453-20.406 6.3438-3.8125 13.672-2.1875 16.234-1.4375-2.7812 1.9219-4.6875 4.6094-4.8125 4.7969-0.23438 0.34375-0.15625 0.82812 0.1875 1.0781 0.34375 0.23438 0.82812 0.15625 1.0781-0.1875 0.046875-0.0625 4.6094-6.4844 9.4531-6.0469 2.7812 0.26562 5.2188 2.75 7.3125 7.4219 0.046875 0.078125 4.0625 7.7031 1.0469 14.719-2.0312 4.7188-6.7656 8.125-14.031 10.094-0.96875 0.1875-3.7656 0.40625-5.0781-0.76562-0.64062-0.53125-0.89062-1.2812-0.82812-2.2812zm5.8438 28.656c-0.0625 0.10938-0.09375 0.25-0.09375 0.375v9.4219h-10.625c-0.10938 0-0.15625-0.0625-0.1875-0.10938s-0.046875-0.125 0-0.21875l1.9531-3.0781c0.0625-0.10938 0.10938-0.23438 0.125-0.35938l0.84375-11.359 4.1562-18.828c0.70312 0.15625 1.4219 0.21875 2.0625 0.21875 1.1406 0 2.0156-0.17188 2.125-0.1875 0.4375-0.10938 0.82812-0.25 1.2344-0.39062l3.75 14.078c0 0.015625 0.0625 0.23438 0.14062 0.59375zm58.281 9.7812h-10.016l1.0625-2.8125c0.03125-0.09375 0.046875-0.17188 0.046875-0.26562v-15.938c0.6875-0.59375 4.3125-3.8125 7.2031-8.8906v24.672c0 0.125 0.03125 0.26562 0.09375 0.375zm-1.4844-31.531c-0.125 0.125-0.1875 0.29688-0.20312 0.48438-2.9688 6.5469-7.8906 10.609-8.2812 10.922-0.0625 0.046875-0.125 0.125-0.1875 0.17188-0.03125 0.03125-0.078125 0.0625-0.10938 0.09375-3.2031 3.0469-5.7656 16.141-6.0625 17.672-0.03125 0.20312 0.046875 0.48438 0.17188 0.65625 0.4375 0.60938 0.21875 1.2188 0.09375 1.4531-0.1875 0.40625-0.65625 0.85938-1.3594 0.85938h-6.9688c-0.46875 0-0.90625-0.046875-1.2969-0.10938-0.45312-0.078125-0.79688-0.35938-0.96875-0.78125-0.1875-0.46875-0.10938-0.98438 0.1875-1.3906 2.7344-3.6562 3.75-9.3125 3.7812-9.4688 1.8438-6.8125 0.40625-15.375 0.34375-15.734-0.078125-0.42188-0.46875-0.70312-0.89062-0.625s-0.70312 0.46875-0.625 0.89062c0 0.03125 0.15625 0.92188 0.29688 2.3438-6.6719 0.8125-12.922-1.5156-15-2.4062l1.9062-3.4062c0.20312-0.375 0.078125-0.84375-0.29688-1.0469s-0.84375-0.078125-1.0469 0.29688l-3.9375 7.0156c-0.0625 0.10938-0.09375 0.25-0.09375 0.375v19.453c0 0.125 0.03125 0.25 0.09375 0.375l1.875 3.4062v1.1719h-12.125c-0.57812 0-1.0625-0.46875-1.0625-1.0625v-0.51562c0-0.4375 0.14062-0.85938 0.39062-1.2188l1.8594-2.5938c0.0625-0.078125 0.09375-0.15625 0.125-0.25 1.8281-7.0469-0.46875-15.75-0.57812-16.109l-3.7656-14.141c6.2812-2.1875 10.438-5.5938 12.406-10.141 3.3125-7.6875-0.92188-15.719-1.0781-16-0.54688-1.2344-1.125-2.3125-1.7344-3.2656 7.1562 1.6406 15.406 1.1094 16.391 1.0312 1.375-0.09375 2.7031-0.35938 4.0625-0.64062 13.578-2.9844 20.125 6.7188 20.406 7.1562 3.6406 5.2344 5.125 10.141 5.3125 14.547v0.046875c0.15625 3.9219-0.71875 7.4531-2.0312 10.484zm6.0156 5.7812c-0.35938-0.35938-0.75-0.89062-0.75-1.4062 0-1 0.45312-1.6094 0.71875-1.6406 0.015625 0 0.03125-0.015625 0.03125-0.015625 0.26562 0.015625 0.73438 0.64062 0.73438 1.6562 0.015625 0.51562-0.375 1.0312-0.73438 1.4062z"/>
 </g>
</svg>
