<?xml version="1.0" encoding="UTF-8"?>
<svg width="100pt" height="100pt" version="1.1" viewBox="0 0 100 100" xmlns="http://www.w3.org/2000/svg">
 <path d="m37.23 90c0.64062 0 1.1719-0.51953 1.1719-1.1719v-6.2617c0.69922 0.44141 1.5195 0.71875 2.4297 0.80859 0.21875 0.019531 0.42969 0.03125 0.64844 0.03125 1.3984 0 2.8203-0.44141 4.0703-1.2695 2.7188-1.7891 6.5195-9.2891 6.9414-10.141 0.19141-0.37109 0.16016-0.82031-0.070313-1.1602-0.23047-0.35156-0.62891-0.53906-1.0391-0.51953-0.94922 0.058594-9.3281 0.60938-12.051 2.3984-0.33984 0.21875-0.64844 0.46875-0.94141 0.73047v-5.8906c0.73828 0.39844 1.6016 0.60937 2.4883 0.60937 1.1992 0 2.4609-0.35937 3.5898-1.1094 2.3711-1.5703 5.6602-8.0508 6.0312-8.7812 0.19141-0.37109 0.16016-0.82031-0.070312-1.1602-0.23047-0.35156-0.62891-0.55078-1.0391-0.51953-0.82031 0.050781-8.0703 0.53125-10.449 2.0898-0.19922 0.12891-0.37109 0.28906-0.55078 0.42969v-6.3516c0.44141 0.19922 0.91016 0.35156 1.4297 0.39844 0.17188 0.019532 0.33984 0.03125 0.51172 0.03125 1.0781 0 2.1914-0.33984 3.1484-0.98047 2.0117-1.3281 4.6719-6.5117 5.1797-7.5312 0.19141-0.37109 0.16016-0.82031-0.070312-1.1602-0.23047-0.35156-0.62891-0.53906-1.0391-0.51953-1.1406 0.070312-6.9492 0.48047-8.9688 1.8086-0.070312 0.050781-0.12891 0.10938-0.19922 0.16016v-4.8594c1.8789-0.60156 3.2812-2.6016 3.2812-4.9805s-2.8594-7.4805-3.4297-8.4805c-0.21094-0.35938-0.58984-0.57813-1.0117-0.57813s-0.80078 0.21875-1.0117 0.57813c-0.57031 0.98828-3.4297 6.0703-3.4297 8.4805s1.3906 4.3789 3.2812 4.9805v4.8594c-0.070312-0.050781-0.12891-0.10938-0.19922-0.16016-2.0117-1.3281-7.8203-1.7383-8.9688-1.8086-0.42188-0.019531-0.80859 0.17188-1.0391 0.51953-0.23047 0.35156-0.26172 0.78906-0.070313 1.1602 0.51172 1.0312 3.1719 6.2109 5.1797 7.5312 0.98828 0.66016 2.1016 0.96875 3.1484 0.96875 0.69141 0 1.3516-0.14063 1.9492-0.41016v6.3398c-0.17969-0.14844-0.35938-0.30078-0.55078-0.42969-2.3711-1.5703-9.6289-2.0391-10.449-2.0898-0.41016-0.019532-0.80859 0.17188-1.0391 0.51953-0.23047 0.35156-0.26172 0.78906-0.070313 1.1602 0.37109 0.73047 3.6484 7.2188 6.0312 8.7812 1.1289 0.75 2.3906 1.1094 3.5898 1.1094 0.89844 0 1.75-0.21094 2.4883-0.60938v5.8906c-0.28906-0.26172-0.60156-0.51172-0.94141-0.73047-2.7188-1.7891-11.102-2.3398-12.051-2.3984-0.42187-0.019531-0.80859 0.17188-1.0391 0.51953-0.23047 0.35156-0.26172 0.78906-0.070312 1.1602 0.42187 0.85156 4.2188 8.3398 6.9414 10.141 1.25 0.82813 2.6797 1.2695 4.0703 1.2695 0.21875 0 0.44141-0.011719 0.64844-0.03125 0.91016-0.089844 1.7305-0.37109 2.4297-0.80859v6.2617c0 0.64062 0.51953 1.1719 1.1719 1.1719zm3.3906-15.328c1.3516-0.89062 5.5195-1.5391 8.8203-1.8516-1.5898 2.9102-3.8203 6.4883-5.1719 7.3789-1 0.66016-2.1406 0.96875-3.2109 0.85938-0.98047-0.10156-1.7695-0.53906-2.2305-1.2383-1.0117-1.5195-0.19922-3.8398 1.7891-5.1484zm-2.1094-26.172c0.21094-0.67969 0.69922-1.3008 1.3789-1.7383 0.87109-0.57031 3.4609-1 5.7188-1.25-1.1094 1.9805-2.5312 4.1992-3.3906 4.7695-0.67188 0.44141-1.4297 0.64844-2.1406 0.57812-0.62109-0.058594-1.1211-0.32812-1.3984-0.76953-0.28906-0.42969-0.33984-1-0.14844-1.5898zm-2.6992 1.5898c-0.62891 0.94922-2.2617 1.0391-3.5508 0.19141-0.87109-0.57031-2.2812-2.7891-3.3906-4.7695 2.3203 0.25 4.8906 0.69922 5.7188 1.25 0.67188 0.44141 1.1602 1.0586 1.3789 1.7383 0.19141 0.58984 0.12891 1.1602-0.14844 1.5898zm-0.17188 29.738c-0.46094 0.69922-1.2617 1.1406-2.2305 1.2383-1.0703 0.10938-2.2109-0.19922-3.2109-0.85938-1.3516-0.89062-3.5781-4.4688-5.1719-7.3789 3.3008 0.32031 7.4688 0.96094 8.8203 1.8516 1.9883 1.3203 2.8008 3.6289 1.7891 5.1484zm2.8984-17.031c0.26172-0.83984 0.87109-1.6094 1.6992-2.1602 1.1016-0.71875 4.4414-1.2617 7.2109-1.5391-1.3516 2.4414-3.1484 5.3008-4.25 6.0312-1.6406 1.0781-3.6406 0.96094-4.4609-0.28125-0.37109-0.55859-0.44141-1.2891-0.21094-2.0508zm-3.4102-27.672c0-1.0391 1.0703-3.4414 2.1094-5.4609 1.0391 2.0195 2.1094 4.4219 2.1094 5.4609 0 1.5508-0.96875 2.8594-2.1094 2.8594s-2.1094-1.3086-2.1094-2.8594zm0.60156 29.719c-0.82031 1.2383-2.8203 1.3594-4.4609 0.28125-1.1016-0.71875-2.8984-3.5898-4.25-6.0312 2.7695 0.28125 6.1094 0.82031 7.2109 1.5391 0.82812 0.55078 1.4414 1.3203 1.6992 2.1602 0.23828 0.76172 0.17187 1.4883-0.21094 2.0508z"/>
 <path d="m57.91 15.359c-7.1406-7.1406-18.77-7.1406-25.91 0-1.1211 1.1211-2.1016 2.3789-2.8906 3.75-0.26953 0.46094-0.19141 1.0391 0.17969 1.4102 0.37109 0.37109 0.94922 0.44922 1.4102 0.17969 6.2617-3.6484 14.219-2.6094 19.352 2.5195 5.1289 5.1289 6.1719 13.078 2.5195 19.34-0.011718 0.019531-0.011718 0.050781-0.03125 0.078125-0.039062 0.070312-0.058593 0.14844-0.078124 0.21875-0.019532 0.070312-0.039063 0.14062-0.039063 0.21094 0 0.070313 0 0.14844 0.011719 0.21875 0 0.070313 0.019531 0.14844 0.039062 0.21875 0.019532 0.070313 0.058594 0.12891 0.089844 0.19141 0.039062 0.070313 0.078125 0.14063 0.12891 0.19922 0.019532 0.019531 0.03125 0.050781 0.050782 0.070313l5.0508 5.0508c0.070312 1.1914 0.53906 2.3516 1.4492 3.2617l9.1484 9.1484c0.94922 0.94922 2.2188 1.4688 3.5703 1.4688 1.3516 0 2.6211-0.51953 3.5703-1.4688l1.1406-1.1406c1.9688-1.9688 1.9688-5.1719 0-7.1406l-9.1484-9.1484c-0.87891-0.87891-2-1.3398-3.1406-1.4414l-2.25-2.25c4.7695-7.5195 1.7617-18.98-4.2305-24.961zm-6.2109 6.2109c-4.7695-4.7695-11.672-6.4492-17.93-4.6797 6.2383-6.1211 16.301-6.0781 22.5 0.12109 5.5312 5.5312 8.1797 16.441 3.4492 22.77-0.03125 0.039062-0.039062 0.089844-0.058594 0.12891-0.039062 0.070313-0.078125 0.14062-0.10156 0.21875-0.019532 0.070313-0.03125 0.14062-0.039063 0.21094 0 0.078125-0.019531 0.14844-0.011719 0.23047 0 0.070313 0.019532 0.14063 0.039063 0.21094s0.039063 0.14062 0.078125 0.21094c0.03125 0.070312 0.078125 0.12891 0.12891 0.19141 0.03125 0.039062 0.050782 0.089844 0.078125 0.12891l1.8203 1.8203c-0.44922 0.23047-0.87891 0.51172-1.25 0.89063l-1.1406 1.1406c-0.35938 0.35938-0.62109 0.76172-0.85156 1.1797l-3.3906-3.3906c3.6406-7.0391 2.3516-15.699-3.3086-21.359zm23.328 33.23c0.51172 0.51172 0.78906 1.1914 0.78906 1.9219 0 0.73047-0.28125 1.4102-0.78906 1.9219l-1.1406 1.1406c-0.51172 0.51172-1.1914 0.78906-1.9219 0.78906-0.73047 0-1.4102-0.28125-1.9219-0.78906l-9.1484-9.1484c-1.0586-1.0586-1.0586-2.7812 0-3.8398l1.1406-1.1406c0.53125-0.53125 1.2305-0.78906 1.9219-0.78906 0.69141 0 1.3906 0.26953 1.9219 0.78906l9.1484 9.1484z"/>
</svg>
