<?xml version="1.0" encoding="UTF-8"?><svg xmlns="http://www.w3.org/2000/svg" viewBox="-3.06 -3.06 49.22 40.12"><g transform="translate(-1.53 2.04)" opacity="0.5"><g transform="matrix(0.3647,0,0,0.3647,-12.067,-55.073)"><g transform="matrix(3.7794642857142855,0,0,3.7794642857142855,0,0.007366071428562141)"><g id="g42" inkscape:label="medium_vertical_range"><path style="fill:#241b10;stroke-width:0.264583" d="m 22.835968,40.558531 c 2.171409,2.653945 -4.421863,2.913226 -4.461066,3.900876 -0.07338,1.848663 -3.018641,4.413492 -1.02246,5.825424 1.996181,1.411933 4.968047,0.886477 7.499788,0.935164 2.531741,0.04869 0.961082,1.861511 1.594018,1.423329 0.632936,-0.438186 -4.194088,2.070788 -4.388837,2.070788 -0.19475,0 -2.677803,1.801432 -3.018615,1.801432 -0.340811,0 -1.699886,0.326707 0.300935,-1.519861 2.000821,-1.846568 0.636417,-1.107144 0.636417,-1.107144 0,0 1.902251,-1.762777 1.027076,-1.511634 -0.875175,0.251143 -2.370658,2.628698 -3.103205,1.821881 -0.732546,-0.806816 -4.50486,3.365388 -3.550456,1.994041 0.954404,-1.371346 4.087283,-3.622224 4.087283,-3.622224 l 0.957311,-0.915575 -8.001384,4.851201 c 0,0 5.904378,-4.863284 6.185404,-4.762044 0.287964,0.103739 -3.992362,1.411933 -5.501669,2.434366 -1.509308,1.022435 4.041048,-3.115989 4.527922,-3.115989 0.486873,0 -1.743429,-0.01143 -6.046544,3.7447 -4.0672771,3.550267 4.196425,-4.913196 4.780673,-5.059258 0.584248,-0.146062 2.22698,-2.890901 0.912422,-2.696151 -1.314558,0.194749 -2.993032,0.992157 -3.528592,1.771154 -0.535561,0.778998 -6.6837048,3.628695 -0.74385,-0.558416 5.939854,-4.18711 5.903804,-3.111544 5.903804,-3.647105 0,-0.535561 -4.204992,2.155775 -3.938586,1.666405 0.812093,-1.491761 4.43978,-1.705382 5.316152,-3.555501 0.876372,-1.850119 3.576059,-2.169859 3.576059,-2.169859 z" id="path42-4" sodipodi:nodetypes="csssssszczzzcccsssssssssssc" inkscape:label="shadow"></path><path style="fill:#241b10" d="m 24.860023,64.355768 c 0,-0.139098 0.569611,-0.831029 0.818382,-0.994124 0.131973,-0.08652 0.591526,-0.356455 1.021228,-0.599851 1.340911,-0.759531 2.055057,-1.467058 2.055057,-2.036009 0,-0.331601 -0.02908,-0.337733 -0.547582,-0.115476 -0.562361,0.241056 -0.374495,0.02808 0.211823,-0.240137 0.468595,-0.214362 1.762386,-1.323612 1.661493,-1.424505 -0.02475,-0.02475 -0.342686,0.05111 -0.706531,0.168575 -0.363845,0.117463 -0.947287,0.274408 -1.296537,0.348766 -0.34925,0.07436 -1.054099,0.308835 -1.566333,0.521059 -0.512233,0.212224 -1.712383,0.684133 -2.667,1.048687 -0.954616,0.364554 -1.992005,0.780855 -2.305307,0.925113 -0.640824,0.295063 -0.722368,0.314833 -0.577219,0.139938 0.226082,-0.272411 0.963305,-0.658106 2.267816,-1.186456 0.756225,-0.306286 1.870262,-0.783765 2.475638,-1.061064 1.405412,-0.643766 1.988587,-0.834705 2.880405,-0.943079 0.617848,-0.07508 0.794393,-0.135713 1.247838,-0.428549 0.353605,-0.228359 0.507513,-0.376355 0.465667,-0.447778 -0.03438,-0.05868 -0.367305,-0.348265 -0.739838,-0.643531 -1.389487,-1.101292 -1.951844,-1.812971 -4.021139,-5.088863 -0.26487,-0.419316 -0.511134,-0.703443 -0.692602,-0.79909 -0.390007,-0.205562 -0.986113,-0.181397 -1.890707,0.07665 -0.418853,0.119483 -0.984441,0.257649 -1.256862,0.307036 -0.830947,0.150641 -3.53042,1.609044 -5.087334,2.748456 -0.309917,0.226809 -0.583599,0.392265 -0.608184,0.36768 -0.07493,-0.07493 1.230957,-1.145871 2.084495,-1.709475 0.442383,-0.292113 1.126565,-0.702464 1.520403,-0.911893 0.393839,-0.209428 0.729044,-0.4197 0.744901,-0.467271 0.03298,-0.09894 -0.941497,-0.486791 -2.086268,-0.830349 -1.031572,-0.309586 -1.411108,-0.635969 -1.878639,-1.615542 L 16.04569,48.74939 15.579595,49.175375 c -0.289411,0.264505 -0.632726,0.482807 -0.905667,0.575883 -0.241764,0.08244 -0.944906,0.409444 -1.562538,0.726667 -1.124522,0.577568 -2.246701,1.07472 -2.423511,1.073673 -0.156684,-9.28e-4 0.365435,-0.322797 1.260478,-0.777044 0.465667,-0.236332 1.017041,-0.546697 1.225277,-0.689699 0.208235,-0.143003 0.646385,-0.376553 0.973666,-0.519 0.327281,-0.142448 0.728407,-0.342938 0.89139,-0.445534 0.371045,-0.233569 2.010372,-1.974172 2.316387,-2.459491 0.536043,-0.850128 1.156038,-2.305341 0.982193,-2.305341 -0.04343,0 -0.317604,0.200946 -0.609273,0.446547 -1.388599,1.169276 -2.596277,1.964579 -3.377026,2.223902 -0.575983,0.191311 -0.611081,0.100147 -0.07273,-0.188909 0.706655,-0.379423 1.860346,-1.171202 2.84107,-1.949829 1.249096,-0.991695 1.533872,-1.15811 2.576047,-1.505378 0.98409,-0.327913 1.375636,-0.545411 2.162033,-1.200977 0.502855,-0.419197 0.987808,-1.138404 0.856291,-1.269921 -0.03681,-0.03681 -0.340466,0.07599 -0.674792,0.250656 -0.334326,0.174671 -0.916693,0.444559 -1.29415,0.599751 -0.377456,0.155192 -0.929906,0.454913 -1.227666,0.666046 -0.7193,0.510034 -1.29513,0.791578 -1.961148,0.958877 -0.392435,0.09858 -0.667134,0.235993 -0.961783,0.481129 -0.388932,0.323575 -1.282865,0.929213 -1.703618,1.154199 -0.4391,0.234796 -0.13786,-0.09559 0.562858,-0.617326 0.414347,-0.308509 0.804872,-0.623374 0.867833,-0.6997 0.104066,-0.126157 0.08063,-0.133395 -0.257768,-0.0796 -0.614174,0.09763 -1.158705,0.382153 -1.955015,1.021516 -0.415325,0.333468 -1.376048,0.966271 -2.134939,1.40623 -0.758891,0.439958 -1.714246,1.019119 -2.1230106,1.287024 -0.408765,0.267904 -0.768664,0.487099 -0.799776,0.487099 -0.22689,0 0.829101,-0.81183 2.4743176,-1.902217 1.071033,-0.70984 2.214033,-1.511029 2.54,-1.780419 0.830831,-0.686628 1.367777,-0.900804 2.666662,-1.06367 1.07131,-0.134331 1.526222,-0.329877 2.709671,-1.164765 0.452149,-0.318977 2.006235,-1.02786 3.132666,-1.428938 0.743202,-0.264624 0.865465,-0.283894 1.608667,-0.253532 0.88322,0.03608 1.243165,0.165576 2.413,0.868106 0.325967,0.195755 0.897467,0.45973 1.27,0.58661 0.895719,0.30507 1.085241,0.406871 1.735666,0.932309 0.943308,0.762038 2.592278,1.698425 4.033074,2.290227 1.10283,0.452983 1.218458,0.619264 0.197575,0.284126 -1.652448,-0.542471 -3.328259,-1.382478 -4.288936,-2.149846 -0.789233,-0.630421 -1.073613,-0.779667 -2.185379,-1.146906 -0.465667,-0.153819 -1.092895,-0.430338 -1.393841,-0.614487 -0.655833,-0.401305 -1.017524,-0.536465 -1.622739,-0.6064 -0.50856,-0.05877 -0.918156,0.0268 -1.012337,0.211494 -0.0344,0.06745 -0.129256,0.313141 -0.210797,0.545975 -0.108561,0.309983 -0.314583,0.59025 -0.769438,1.046725 -0.34165,0.342866 -0.621145,0.647666 -0.621102,0.677334 1.55e-4,0.104717 1.618681,1.240993 2.391748,1.679111 0.997244,0.565165 1.103315,0.638313 0.825506,0.569283 -0.561026,-0.139406 -2.207418,-0.965759 -2.732617,-1.371549 -0.319124,-0.246569 -0.689022,-0.470065 -0.821994,-0.49666 -0.280162,-0.05603 -1.466308,0.30647 -2.000334,0.611329 -0.262282,0.149728 -0.39371,0.305013 -0.533828,0.630726 -0.182317,0.423808 -0.182903,0.43727 -0.03053,0.701898 0.08544,0.148391 0.401864,0.42984 0.703161,0.625441 0.301296,0.195602 0.836484,0.587752 1.189305,0.871445 0.352821,0.283694 0.847051,0.654238 1.09829,0.823432 0.251238,0.169193 0.410125,0.323182 0.353081,0.342197 -0.133505,0.0445 -1.068722,-0.478324 -1.597961,-0.893328 -0.22563,-0.176929 -0.695987,-0.518535 -1.045237,-0.759126 -0.34925,-0.24059 -0.682947,-0.515097 -0.74155,-0.610014 -0.0586,-0.09492 -0.139724,-0.172578 -0.180268,-0.172578 -0.04054,0 -0.255609,0.324084 -0.477921,0.720187 -0.222312,0.396102 -0.646017,1.011043 -0.941566,1.366534 -0.603811,0.726275 -0.645709,0.901957 -0.360043,1.509687 0.283416,0.602941 0.79493,1.127074 1.204181,1.233888 0.194792,0.05084 0.925667,0.284531 1.624167,0.519312 1.16295,0.390892 1.316389,0.422747 1.820334,0.377912 0.302683,-0.02693 0.950383,-0.167214 1.439333,-0.311743 1.231052,-0.363889 1.653643,-0.333335 2.730102,0.197387 0.60783,0.299675 0.998794,0.571377 1.559389,1.0837 0.929298,0.849278 1.704082,1.369443 2.645108,1.775842 0.400254,0.172857 1.394484,0.657284 2.209401,1.076505 0.814916,0.419221 1.988315,0.961274 2.607553,1.204563 0.619237,0.243289 1.107036,0.461193 1.083998,0.484231 -0.136638,0.136638 -2.729278,-0.852722 -4.368885,-1.667182 -0.62865,-0.312276 -1.461695,-0.694505 -1.851212,-0.849397 -0.875965,-0.348329 -1.755926,-0.915904 -2.550454,-1.645042 -0.631402,-0.579437 -0.840159,-0.693698 -0.669697,-0.36655 0.171082,0.328336 1.61047,2.45371 2.002316,2.956583 0.443537,0.569212 1.896918,1.806517 2.45829,2.092814 0.218094,0.111227 0.56856,0.34613 0.778813,0.522006 0.210253,0.175876 0.725178,0.506591 1.144278,0.734922 0.4191,0.22833 1.1811,0.683553 1.693333,1.011606 0.512233,0.328054 1.266586,0.777582 1.676339,0.998953 0.409754,0.221371 0.723834,0.423665 0.697956,0.449543 -0.08179,0.08179 -4.798624,-2.345648 -5.368857,-2.762984 -0.3271,-0.239395 -0.467418,-0.163102 -0.616754,0.335336 -0.09147,0.305285 -0.07692,0.371855 0.20562,0.941058 0.167226,0.336894 0.29035,0.626232 0.273608,0.642974 -0.01674,0.01674 -0.145934,-0.135029 -0.287092,-0.337269 -0.141159,-0.20224 -0.306009,-0.437448 -0.366334,-0.522685 -0.101805,-0.143846 -0.156794,-0.11478 -0.765584,0.404669 -0.586728,0.500623 -0.655902,0.590921 -0.655902,0.856196 0,0.43758 0.205826,0.854518 0.49589,1.004516 0.140376,0.07259 0.434743,0.370397 0.654147,0.66179 0.219405,0.291393 0.593328,0.709131 0.83094,0.928307 0.499299,0.460556 0.444749,0.508661 -0.174237,0.15365 -0.27402,-0.15716 -0.629547,-0.486321 -0.953548,-0.882832 -0.284142,-0.347733 -0.592391,-0.656289 -0.684997,-0.685681 -0.09261,-0.02939 -0.20849,-0.128396 -0.25752,-0.220009 -0.08315,-0.155376 -0.123712,-0.135287 -0.603544,0.298936 -0.333359,0.301672 -0.892031,0.660353 -1.587385,1.019137 -0.639074,0.329745 -1.268058,0.727497 -1.555365,0.98357 -0.26531,0.236466 -0.482381,0.39427 -0.482381,0.350675 z m 14.075833,-1.968539 c -0.384175,-0.180423 -0.6985,-0.368406 -0.6985,-0.417741 0,-0.04933 0.3429,0.08252 0.762,0.292999 0.682177,0.34261 0.888936,0.478543 0.6985,0.459226 -0.03493,-0.0035 -0.377825,-0.15406 -0.762,-0.334484 z m -17.367598,-5.55574 c 0.375939,-0.334166 1.505171,-1.796376 2.249355,-2.084724 0.436841,-0.169262 1.886575,-1.73887 2.101675,-1.875283 0.526495,-0.333893 1.914367,1.549455 1.442697,1.807268 -0.693037,0.378812 -2.304086,0.368694 -2.659708,0.511023 -0.928305,0.371531 -1.640651,1.128442 -2.545226,1.728369 -0.838056,0.555809 -1.140449,0.403705 -0.918671,0.20657 z m 5.133265,-10.415087 c -0.174625,-0.07243 -0.3175,-0.166492 -0.3175,-0.209025 0,-0.06271 0.625484,0.200356 0.754945,0.317517 0.07654,0.06927 -0.135906,0.01658 -0.437445,-0.108492 z" id="path40" inkscape:label="medium_vertical_range" sodipodi:nodetypes="sssssssssssssssssssssssssssssscssssssssssssssssssssssssssssssssssssssssssssssssssssssssssssssssssssssssssssssssssssssssssssssssssssssssssssssscsssssssssssss"></path></g></g></g></g><g transform="matrix(0.3647,0,0,0.3647,-12.067,-55.073)"><g transform="matrix(3.7794642857142855,0,0,3.7794642857142855,0,0.007366071428562141)"><g id="g42" inkscape:label="medium_vertical_range"><path style="fill:#3a2c1a;stroke-width:0.264583" d="m 22.835968,40.558531 c 2.171409,2.653945 -4.421863,2.913226 -4.461066,3.900876 -0.07338,1.848663 -3.018641,4.413492 -1.02246,5.825424 1.996181,1.411933 4.968047,0.886477 7.499788,0.935164 2.531741,0.04869 0.961082,1.861511 1.594018,1.423329 0.632936,-0.438186 -4.194088,2.070788 -4.388837,2.070788 -0.19475,0 -2.677803,1.801432 -3.018615,1.801432 -0.340811,0 -1.699886,0.326707 0.300935,-1.519861 2.000821,-1.846568 0.636417,-1.107144 0.636417,-1.107144 0,0 1.902251,-1.762777 1.027076,-1.511634 -0.875175,0.251143 -2.370658,2.628698 -3.103205,1.821881 -0.732546,-0.806816 -4.50486,3.365388 -3.550456,1.994041 0.954404,-1.371346 4.087283,-3.622224 4.087283,-3.622224 l 0.957311,-0.915575 -8.001384,4.851201 c 0,0 5.904378,-4.863284 6.185404,-4.762044 0.287964,0.103739 -3.992362,1.411933 -5.501669,2.434366 -1.509308,1.022435 4.041048,-3.115989 4.527922,-3.115989 0.486873,0 -1.743429,-0.01143 -6.046544,3.7447 -4.0672771,3.550267 4.196425,-4.913196 4.780673,-5.059258 0.584248,-0.146062 2.22698,-2.890901 0.912422,-2.696151 -1.314558,0.194749 -2.993032,0.992157 -3.528592,1.771154 -0.535561,0.778998 -6.6837048,3.628695 -0.74385,-0.558416 5.939854,-4.18711 5.903804,-3.111544 5.903804,-3.647105 0,-0.535561 -4.204992,2.155775 -3.938586,1.666405 0.812093,-1.491761 4.43978,-1.705382 5.316152,-3.555501 0.876372,-1.850119 3.576059,-2.169859 3.576059,-2.169859 z" id="path42-4" sodipodi:nodetypes="csssssszczzzcccsssssssssssc" inkscape:label="shadow"></path><path style="fill:#3a2c1a" d="m 24.860023,64.355768 c 0,-0.139098 0.569611,-0.831029 0.818382,-0.994124 0.131973,-0.08652 0.591526,-0.356455 1.021228,-0.599851 1.340911,-0.759531 2.055057,-1.467058 2.055057,-2.036009 0,-0.331601 -0.02908,-0.337733 -0.547582,-0.115476 -0.562361,0.241056 -0.374495,0.02808 0.211823,-0.240137 0.468595,-0.214362 1.762386,-1.323612 1.661493,-1.424505 -0.02475,-0.02475 -0.342686,0.05111 -0.706531,0.168575 -0.363845,0.117463 -0.947287,0.274408 -1.296537,0.348766 -0.34925,0.07436 -1.054099,0.308835 -1.566333,0.521059 -0.512233,0.212224 -1.712383,0.684133 -2.667,1.048687 -0.954616,0.364554 -1.992005,0.780855 -2.305307,0.925113 -0.640824,0.295063 -0.722368,0.314833 -0.577219,0.139938 0.226082,-0.272411 0.963305,-0.658106 2.267816,-1.186456 0.756225,-0.306286 1.870262,-0.783765 2.475638,-1.061064 1.405412,-0.643766 1.988587,-0.834705 2.880405,-0.943079 0.617848,-0.07508 0.794393,-0.135713 1.247838,-0.428549 0.353605,-0.228359 0.507513,-0.376355 0.465667,-0.447778 -0.03438,-0.05868 -0.367305,-0.348265 -0.739838,-0.643531 -1.389487,-1.101292 -1.951844,-1.812971 -4.021139,-5.088863 -0.26487,-0.419316 -0.511134,-0.703443 -0.692602,-0.79909 -0.390007,-0.205562 -0.986113,-0.181397 -1.890707,0.07665 -0.418853,0.119483 -0.984441,0.257649 -1.256862,0.307036 -0.830947,0.150641 -3.53042,1.609044 -5.087334,2.748456 -0.309917,0.226809 -0.583599,0.392265 -0.608184,0.36768 -0.07493,-0.07493 1.230957,-1.145871 2.084495,-1.709475 0.442383,-0.292113 1.126565,-0.702464 1.520403,-0.911893 0.393839,-0.209428 0.729044,-0.4197 0.744901,-0.467271 0.03298,-0.09894 -0.941497,-0.486791 -2.086268,-0.830349 -1.031572,-0.309586 -1.411108,-0.635969 -1.878639,-1.615542 L 16.04569,48.74939 15.579595,49.175375 c -0.289411,0.264505 -0.632726,0.482807 -0.905667,0.575883 -0.241764,0.08244 -0.944906,0.409444 -1.562538,0.726667 -1.124522,0.577568 -2.246701,1.07472 -2.423511,1.073673 -0.156684,-9.28e-4 0.365435,-0.322797 1.260478,-0.777044 0.465667,-0.236332 1.017041,-0.546697 1.225277,-0.689699 0.208235,-0.143003 0.646385,-0.376553 0.973666,-0.519 0.327281,-0.142448 0.728407,-0.342938 0.89139,-0.445534 0.371045,-0.233569 2.010372,-1.974172 2.316387,-2.459491 0.536043,-0.850128 1.156038,-2.305341 0.982193,-2.305341 -0.04343,0 -0.317604,0.200946 -0.609273,0.446547 -1.388599,1.169276 -2.596277,1.964579 -3.377026,2.223902 -0.575983,0.191311 -0.611081,0.100147 -0.07273,-0.188909 0.706655,-0.379423 1.860346,-1.171202 2.84107,-1.949829 1.249096,-0.991695 1.533872,-1.15811 2.576047,-1.505378 0.98409,-0.327913 1.375636,-0.545411 2.162033,-1.200977 0.502855,-0.419197 0.987808,-1.138404 0.856291,-1.269921 -0.03681,-0.03681 -0.340466,0.07599 -0.674792,0.250656 -0.334326,0.174671 -0.916693,0.444559 -1.29415,0.599751 -0.377456,0.155192 -0.929906,0.454913 -1.227666,0.666046 -0.7193,0.510034 -1.29513,0.791578 -1.961148,0.958877 -0.392435,0.09858 -0.667134,0.235993 -0.961783,0.481129 -0.388932,0.323575 -1.282865,0.929213 -1.703618,1.154199 -0.4391,0.234796 -0.13786,-0.09559 0.562858,-0.617326 0.414347,-0.308509 0.804872,-0.623374 0.867833,-0.6997 0.104066,-0.126157 0.08063,-0.133395 -0.257768,-0.0796 -0.614174,0.09763 -1.158705,0.382153 -1.955015,1.021516 -0.415325,0.333468 -1.376048,0.966271 -2.134939,1.40623 -0.758891,0.439958 -1.714246,1.019119 -2.1230106,1.287024 -0.408765,0.267904 -0.768664,0.487099 -0.799776,0.487099 -0.22689,0 0.829101,-0.81183 2.4743176,-1.902217 1.071033,-0.70984 2.214033,-1.511029 2.54,-1.780419 0.830831,-0.686628 1.367777,-0.900804 2.666662,-1.06367 1.07131,-0.134331 1.526222,-0.329877 2.709671,-1.164765 0.452149,-0.318977 2.006235,-1.02786 3.132666,-1.428938 0.743202,-0.264624 0.865465,-0.283894 1.608667,-0.253532 0.88322,0.03608 1.243165,0.165576 2.413,0.868106 0.325967,0.195755 0.897467,0.45973 1.27,0.58661 0.895719,0.30507 1.085241,0.406871 1.735666,0.932309 0.943308,0.762038 2.592278,1.698425 4.033074,2.290227 1.10283,0.452983 1.218458,0.619264 0.197575,0.284126 -1.652448,-0.542471 -3.328259,-1.382478 -4.288936,-2.149846 -0.789233,-0.630421 -1.073613,-0.779667 -2.185379,-1.146906 -0.465667,-0.153819 -1.092895,-0.430338 -1.393841,-0.614487 -0.655833,-0.401305 -1.017524,-0.536465 -1.622739,-0.6064 -0.50856,-0.05877 -0.918156,0.0268 -1.012337,0.211494 -0.0344,0.06745 -0.129256,0.313141 -0.210797,0.545975 -0.108561,0.309983 -0.314583,0.59025 -0.769438,1.046725 -0.34165,0.342866 -0.621145,0.647666 -0.621102,0.677334 1.55e-4,0.104717 1.618681,1.240993 2.391748,1.679111 0.997244,0.565165 1.103315,0.638313 0.825506,0.569283 -0.561026,-0.139406 -2.207418,-0.965759 -2.732617,-1.371549 -0.319124,-0.246569 -0.689022,-0.470065 -0.821994,-0.49666 -0.280162,-0.05603 -1.466308,0.30647 -2.000334,0.611329 -0.262282,0.149728 -0.39371,0.305013 -0.533828,0.630726 -0.182317,0.423808 -0.182903,0.43727 -0.03053,0.701898 0.08544,0.148391 0.401864,0.42984 0.703161,0.625441 0.301296,0.195602 0.836484,0.587752 1.189305,0.871445 0.352821,0.283694 0.847051,0.654238 1.09829,0.823432 0.251238,0.169193 0.410125,0.323182 0.353081,0.342197 -0.133505,0.0445 -1.068722,-0.478324 -1.597961,-0.893328 -0.22563,-0.176929 -0.695987,-0.518535 -1.045237,-0.759126 -0.34925,-0.24059 -0.682947,-0.515097 -0.74155,-0.610014 -0.0586,-0.09492 -0.139724,-0.172578 -0.180268,-0.172578 -0.04054,0 -0.255609,0.324084 -0.477921,0.720187 -0.222312,0.396102 -0.646017,1.011043 -0.941566,1.366534 -0.603811,0.726275 -0.645709,0.901957 -0.360043,1.509687 0.283416,0.602941 0.79493,1.127074 1.204181,1.233888 0.194792,0.05084 0.925667,0.284531 1.624167,0.519312 1.16295,0.390892 1.316389,0.422747 1.820334,0.377912 0.302683,-0.02693 0.950383,-0.167214 1.439333,-0.311743 1.231052,-0.363889 1.653643,-0.333335 2.730102,0.197387 0.60783,0.299675 0.998794,0.571377 1.559389,1.0837 0.929298,0.849278 1.704082,1.369443 2.645108,1.775842 0.400254,0.172857 1.394484,0.657284 2.209401,1.076505 0.814916,0.419221 1.988315,0.961274 2.607553,1.204563 0.619237,0.243289 1.107036,0.461193 1.083998,0.484231 -0.136638,0.136638 -2.729278,-0.852722 -4.368885,-1.667182 -0.62865,-0.312276 -1.461695,-0.694505 -1.851212,-0.849397 -0.875965,-0.348329 -1.755926,-0.915904 -2.550454,-1.645042 -0.631402,-0.579437 -0.840159,-0.693698 -0.669697,-0.36655 0.171082,0.328336 1.61047,2.45371 2.002316,2.956583 0.443537,0.569212 1.896918,1.806517 2.45829,2.092814 0.218094,0.111227 0.56856,0.34613 0.778813,0.522006 0.210253,0.175876 0.725178,0.506591 1.144278,0.734922 0.4191,0.22833 1.1811,0.683553 1.693333,1.011606 0.512233,0.328054 1.266586,0.777582 1.676339,0.998953 0.409754,0.221371 0.723834,0.423665 0.697956,0.449543 -0.08179,0.08179 -4.798624,-2.345648 -5.368857,-2.762984 -0.3271,-0.239395 -0.467418,-0.163102 -0.616754,0.335336 -0.09147,0.305285 -0.07692,0.371855 0.20562,0.941058 0.167226,0.336894 0.29035,0.626232 0.273608,0.642974 -0.01674,0.01674 -0.145934,-0.135029 -0.287092,-0.337269 -0.141159,-0.20224 -0.306009,-0.437448 -0.366334,-0.522685 -0.101805,-0.143846 -0.156794,-0.11478 -0.765584,0.404669 -0.586728,0.500623 -0.655902,0.590921 -0.655902,0.856196 0,0.43758 0.205826,0.854518 0.49589,1.004516 0.140376,0.07259 0.434743,0.370397 0.654147,0.66179 0.219405,0.291393 0.593328,0.709131 0.83094,0.928307 0.499299,0.460556 0.444749,0.508661 -0.174237,0.15365 -0.27402,-0.15716 -0.629547,-0.486321 -0.953548,-0.882832 -0.284142,-0.347733 -0.592391,-0.656289 -0.684997,-0.685681 -0.09261,-0.02939 -0.20849,-0.128396 -0.25752,-0.220009 -0.08315,-0.155376 -0.123712,-0.135287 -0.603544,0.298936 -0.333359,0.301672 -0.892031,0.660353 -1.587385,1.019137 -0.639074,0.329745 -1.268058,0.727497 -1.555365,0.98357 -0.26531,0.236466 -0.482381,0.39427 -0.482381,0.350675 z m 14.075833,-1.968539 c -0.384175,-0.180423 -0.6985,-0.368406 -0.6985,-0.417741 0,-0.04933 0.3429,0.08252 0.762,0.292999 0.682177,0.34261 0.888936,0.478543 0.6985,0.459226 -0.03493,-0.0035 -0.377825,-0.15406 -0.762,-0.334484 z m -17.367598,-5.55574 c 0.375939,-0.334166 1.505171,-1.796376 2.249355,-2.084724 0.436841,-0.169262 1.886575,-1.73887 2.101675,-1.875283 0.526495,-0.333893 1.914367,1.549455 1.442697,1.807268 -0.693037,0.378812 -2.304086,0.368694 -2.659708,0.511023 -0.928305,0.371531 -1.640651,1.128442 -2.545226,1.728369 -0.838056,0.555809 -1.140449,0.403705 -0.918671,0.20657 z m 5.133265,-10.415087 c -0.174625,-0.07243 -0.3175,-0.166492 -0.3175,-0.209025 0,-0.06271 0.625484,0.200356 0.754945,0.317517 0.07654,0.06927 -0.135906,0.01658 -0.437445,-0.108492 z" id="path40" inkscape:label="medium_vertical_range" sodipodi:nodetypes="sssssssssssssssssssssssssssssscssssssssssssssssssssssssssssssssssssssssssssssssssssssssssssssssssssssssssssssssssssssssssssssssssssssssssssssscsssssssssssss"></path></g></g></g></svg>