<?xml version="1.0" encoding="UTF-8"?><svg xmlns="http://www.w3.org/2000/svg" viewBox="0 0 39.14 33"><g transform="translate(39.14 0) scale(-1 1)"><g fill="#3a2c1a"><g transform="matrix(1.1403,0,0,1.1403,-136.718,-91.108)"><g><path d="M120.7 103.3l.9-1.2c.5 0 1.2.4 1.8.2s.4-.5.5-.6c.4-.4 1.3-.7 1.9-.5s.2.3.6.2l.8-.2s0-.2.2-.2c.2-.1.4-.2.6-.4.1 0 .2.2.3.3.2 0 .4.2.6.3s.8.4.9.4c.3 0 .4-.3.5-.4.7-.6 1.2-1 2.1-1s.9.1 1.3 0l.9.3c-.1.2-.5 0-.6 0-.8-.1-1.3 0-1.7.7-.5-.1-.9 0-1.4 0l-1 .9h1s0 .2.2.3c.3.2 1.1.4 1.5.6s.3.3.5.4 1.7.8 1.5 1c-1-.4-1.9-1.1-2.9-1.5s-1.5-.3-2.2-.5-.7-.5-1-.6c-.7-.3-.6-.5-1.4-.1s-.6.5-.7.5c-.2 0-.3-.2-.5-.3s-1-.1-1.2 0c-.4 0-1 .7-.6 1.1-.4.3-.1.3-.2.6s-.5.3-.4.7.5.2.7.2.3.1.4.1c.4 0 .8 0 1.1.3-.5 0-.2.3-.4.5s-.7.3-.9.5c-.8.5-1.3 1.3-2.1 1.7s-.5.2-.8.1c0-.3 0-.6-.2-.7 0-.2.5-.7.8-.6l.5.4v-.4c.4 0 .9-.2 1.2-.3s.4-.5.6-.6c.3-.2.7 0 .9-.4-.5-.1-.9-.2-1.1.4H123c0-.3.7-.4.7-.6l-.5-.2-1.3.7h-.5c0-.1.9-.6.7-.8-.3 0-.6.1-.9.2s-.3 0-.3-.2c.4 0 .4-.5.6-.7.4-.3 1.3 0 1.5-.6 0-.1-1.1-.4-1.3-.2s0 .2 0 .2c-.1.1-.7.6-.8.6s0 .4-.2.4v-.7zm11.1-2.9c-.3 0-.2.5.1.3s.2-.5-.1-.3zm-11.1-1.3c.4-.7 1.2-1.1 1.6-1.8.4-.1 1.4-1.3 1.7-1.2s.8.6 1.1.5.6-.3.7-.4c.5-.3 1.3-1.2 1.9-.9s1.4 1.2 2.2 1.5.7 0 1.1.1 1 .6 1.4.6h.8c1.2 0 3.3 1 4.1 1.7 0 .3.6.4.4.7-.6-.3-1.1-.8-1.6-1.1-1-.6-2.3-1-3.5-1.2s-.4 0-.7 0-.6-.4-.8-.5c-.4 0-.6.2-.9.1-.8-.2-2.2-1.7-2.8-1.7s-.5.4-.8.5-.5.4-.7.5-.9 0-.8.6c-.1.1-.8-.9-1.2-.1s0 .4.2.6 1 .5 1 .6v.4c.2 0 .1-.1.2-.1 0 0 .2 0 .2.1 0 .3-.3.2-.3.3s-.2.6-.2.7c-.1 0-.1-.3-.1-.4 0-.4.1-.4-.4-.6s-.2 0-.2 0c-.2.2-.5.3-.8.4s-.2.3-.4.2l.2-.6c-.2 0-.1.2-.4.1v-.3c.1 0 1-1 1-1v-.6h.4c0-.5-.5-.1-.7 0-.6.5-.9.9-1.4 1.4s-.3.2-.4.3c-.3.2-.5.7-.9.8v-.2zm18.1-12c-.3 0-.7 0-.9-.2l-1.1-1.1c-.3-.3-1.2-.9-1.6-.4-.1.4.6.5.7.7l-.7 1c.3 0 .4.3.5.4.8.8 1.3 1.4 2.2 2.2s.2 0 .1.2c-.5.1-.6-.1-.9-.4s-.3 0-.5-.4c-.3-.6-.4-.6-.8-1s-.3-.6-.9-.6-.6 1-.9 1.3-.3.2-.4.3c-.3.7.6.3.8.3.4 0 .8 0 1.1.3s.4.6.6 1 .7.5 1.1.4l-.2.5h1l.1.2-.2.3.2.3c.5-.1.7-.7 1.4-.4s.2.6.5 1c.3.2.9 0 1.1.2s0 .3.1.4.3 0 .4.1c.3.2.3.4.4.6s.4.2.5.4v.6l-.3-.1c.2-.7-.3-.5-.5-.6s0-.1-.1-.2c-.2-.2-1.5-1.1-1.6-1.1h-.8c-.3 0-.3-.3-.4-.4s-.3 0-.4 0c-.2 0-.4-.3-.5-.4-.2-.1-.5 0-.4-.4-.2 0-.4.1-.6.1s-1.4-.3-1.7-.5c-.6-.2-1.2-.7-1.9-.7-.3.3.2.5.3.7.2.3.5 1 .7 1.4s.6.5.6.9c-.2.2-.5.5-.7.3 0-.2.2-.3.4-.3v-.2l-.1-.1c-.7-.2-.7.5-1 .5l-.2-.2v-.2c.1 0 0-.2 0-.2l-.6.2c-.1-.3.3-.4.1-.6-.2.1-.6.1-.8.2s-.3.3-.6.4c-.6.1-.1-.2-.5-.4-.2.2-.5.4-.8.4s-.4-.3-.2-.4.4 0 .6 0 .8-.8.9-.9.6-.8.5-.8c-.6.3-1.2.6-1.8 1.1-.5 0-.4-.6-1-.4v-.3c.5 0 .9-.1 1.2-.4s.4-.6.6-.9c.3-.5.4 0 .6.1.4.2.8 0 1-.4-.2-.4-.6 0-.8-.2 0 0 .7-.3.4-.7s-.6.1-.9.1-.2-.2-.4-.2c-.7-.3-.9.3-1.4.6-.3.4-.5.8-.8 1.2s-1.6.9-1.7.9h-.5c-.2 0-.6.4-.8.4h-.7v-.2l1.7-.5c.3-.2.6-.2.9-.4.8-.5 2-2.4 2.7-2.5s.6 0 1 0c1-.2 1.9-1.7 2.4-2.6s0-.3 0-.4c.1-.3.8-.7 1.1-.8s.9-.3 1-.4.8-.8.9-1c.7-1 .2-1.3 1.5-2s.3-.4.7-.2c.3.1 1.2.9 1.4 1s.8 0 .9 0c.8 0 2.5-1.9 2.9-1.9 1.1.3 1.9 2.1 2.9 2.5s.5 0 .7.1.3.2.5.2c.2.2-.5.1-.6.1-.3 0-1.4-.5-1.6-.6s-.2-.3-.3-.5c-.2-.2-.9-.9-1.2-1.1-.5-.4-.9 0-1 .5s.3.4.5.7c-.2 0-.5.2-.6.1s-.1-.3-.3-.3c-.3.3-.6.1-.9.2s-.4.2-.7.3-.5 0-.6 0c-.1 0 0 .3.2.4 0 0 .6.4.7.5.8.5 1.6.9 2.4 1.5s.3.2.5.2c-.4.2-.4 0-.6-.1-1.2-.5-2.6-1.3-3.7-2.1s-1-.9-1.3-1-.3 0-.4 0c0 .5-.3.9-.3 1.4.3 0 .6 0 .7.4-.6 0-.8 1-1.4.9l.7-1c-.2 0-.2 0-.3.1-.2.2-1 .8-1.2.8s0-.2-.1-.2c-.2-.1-.5.2-.7.2l.8.8c.3.3.8.6 1.2.9s.4 0 .8.8c.4.1.4.3.6.4.6.3.6-.4.9-.5s.4 0 .6 0c.6-.1 1.2-.7 1.8-.6s.7.2.7.3c.2.2.4.7.6.9s.6.6.9.8c-.1.2-.1.1-.3 0-.2 0-.9-.6-1.1-.8s0-.4-.2-.5-.6-.3-.7-.3c-.5.3-1.1.7-1.6.9s-.6-.1-1 .2v.5h-.6c.2.4-.3.6-.3.2s.2-.6 0-.9-.2 0-.4-.5zm-3.9-1.1c-.2 0-.9-.2-.9.3s.4.1.3.3c-.6 0-.8.8-1.1 1.2s-.4.3-.5.5-.3.2-.3.4c.2.1.7-.4.8-.5s.3 0 .4-.2.3-.7.4-.9.4-.2.6-.6.3-.1.3-.5zm-2.2 3.6c-.7 0-.3.8.1.4s0-1.3-.4-.7c0 0 .4.2.3.3zm1.1.5c-.1.3-1 .1-.9.5s.9-.1 1-.3 0-.1 0-.2zm1.2.8c.2-.6-.8-.8-.7-.3s.5.3.7.3zm1.1.8c0-.3-.2-.3-.3-.4s-.4-.5-.7-.3c0 .4.5.4.5.7h.5zm-2.5.7c0-.1 0-.3-.2-.4-.2-.3-1-1.1-1.3-.5s.5.9.9 1.1.1.2.1.2h.3c.1 0 0 .6.5.4s-.1-.5-.1-.5c0-.2 0-.2-.1-.4z"></path><path d="M142.5 91.3c.2-.2.7 0 .8-.1s0-.1 0-.2c0 0 .2 0 .2-.1-.2 0-.5 0-.6-.2.5 0 .7-.1 1.2.2s.1.2.2.2h.3s0 .3.4.3.5-.1.5-.1c.2 0 .6-.4.8-.5.8-.5.6-.9 1.6-.4s1.7 1.3 2.6 1.8v.4h-.2c-.2 0-.5-.5-.6-.6-.3-.2-.5-.3-.8-.5-.5-.3-1-.6-1.4-1-.5-.2-.8.4-1.1.7s-1.5.8-1.7 1c-.3.6-.5.5-1 .9s-.2.3-.2.3c-.4.3-1.1.3-1.1-.3.3 0 .4-.4.7-.6s.7-.5.8-.5c.2 0 1.1-.2.4-.5s-.7.2-1.1.4-.7.3-.9.3-.4-.3-.6-.4c-.4-.2-.3 0-.4 0-.2.2-1.3-.6-1.6-.8-.5-.3-1.1-.4-1.6-.6s-.7-.3-.3-.4.4.2.6.2c.6.2 1.7.4 2.2.7s.4.4.6.5.3 0 .5 0 .3.3.4.2 0-.2.1-.2zm-13.9 15.6c-.5 0-.4 0-.5.3s-.4.3 0 .5.5-.5.7-.7l1 .4c.1 0 0 .1 0 .2-.2.3-.7 0-1 0s-.2.2-.3.2h-.4c-.1 0-.4.2-.5.2l-.2-.4h-.3l-.2-.4c-.3.2-.7 0-1 .2v-.2s1.2-.5 1.4-.6c.3 0 .3.2.7 0s-.3-.2-.3-.2-.1-.1-.2-.1c-.2 0-.5.1-.7 0l.2-.3c-.6-.5-1 .3-1.6 0s-.3-.4-.3 0v.2c.1 0-.3.3-.3.3l-.3-.2c0-.4.5-.4.7-.6.4-.3.5-.4 1-.7s.3-.4.6-.3c0-.2-.4-.2-.6-.2s-.1 0-.1-.1c.8-.4.9 0 1.3.6l-.2.8c.2 0 .4.3.5.3h.5c.2 0 .6.3.6.3.2.1.1.4.1.5zm9.7-12.2c.3.2 0 .1-.1 0-.5-.2-1.3-.9-1.8-.8s-.5.6-.6.8-.8.4-.4.8c.5-.3 1-.3 1.5-.2 0 .2-.3.4-.5.4s-.2-.1-.3-.1-.2.2-.3.2c-.5.2-.5 0-.7-.1s-.5 0-.7 0c-.2-.2.8-.7.6-1-.7 0-.9.8-1.5.9v-.4c0-.1.9-.8 1-.8.3-.2.4-.1.7.1.2 0 .3-.2.4-.4h-.4c-.4 0 .6-.7.7-.7.5-.1 1.2.3 1.6.5s.6.4.8.6zm10.9-9.1h-.5v.8c0 .2.4.4.1.5s-.5-.7-.8-.7h-.9c-.3 0-.5.3-.6 0s.3-.3.4-.4.3-.5.7-.5.4.1.7 0 .5-.4.5-.4c.2 0 .4.7.3.7z"></path><path d="M149.4 84.1c1 .4 1.9 1 2.7 1.6 0 0 .3.3.2.4s-1.1-.8-1.2-.9c-.5-.4-1.6-1-2.3-.9s-.2 0-.3.1c-.3.1-.7.4-1 .5s-.7.5-1.2.5c0-.2 0-.1.1-.2.4-.3.7-.4 1.1-.7s.2-.3.3-.3c.3-.2.8 0 .8-.5h-.4c-.1-.2 0-.3 0-.3.2 0 .8.5 1 .7zm-9.4 1.5c-.4 0-.5.3-.8.4-.4-.4-.5 0-.9 0-.5 0-.2-.4-.3-.5h-.3c.4-.4.7-.7 1.2-.8.2.2.6.3.8.4s.1.4.3.5zm-1.2 11.1c.5 0 .8.3 1.3.4.1.2-.6.3-.7.4h-.7c-.2 0 0 .1-.2.2h-.7c.2-.4.7 0 1-.5-.3.1-.6-.3-.7-.3-.3 0-.4.3-.7.2.2-.6 1.3-1.3 1.4-.3zm-12.8 2c.2-.2 1.2.5 1.2.7.2.4 0 1.3-.5 1.2s0-.3 0-.5-.4-.3-.5-.5 0-.4 0-.6-.2-.2-.1-.3zm20.8-4.1c-.1.6-.4.1-.7 0s-.8-.1-1.1-.2-.1 0-.2-.1l.6-.6c.7 0 .8.6 1.3.8zm-9 1.1c.2.2-1.3 1.5-1.6 1.3l.5-.5c0-.4.5-.6.9-.8s.2-.1.3 0zm9.5-4.6c0 .3.1.3.3.4s.2 0 0 .2h-.3c-.1-.3-.5-.2-.4 0h.3c-.3.5-.8.4-1.2.4 0-.2.2-.3.3-.4s.3-.2.5-.3.2-.4.5-.3zm-13.2 15.8h-.4c-.3-.1-1-.6-1.3-.6s-.6.3-.8 0c.2-.2.7-.4 1-.4s.3.4.5.5c.3.2.7 0 .9.5zm-7.3-14.7c.2.2-.8.7-.9.7s-.1.2-.2.3c-.3.3-.9.1-.5-.2s.7-.5.9-.6.7-.3.8-.2zm4.7 14.2c-.3 0-1 .5-1.2.5-.3 0-.5-.4-.4-.4.7.1.7-.7 1.3-.4s.2.2.2.3zm15.3-13.1c-.3 0-.5-.3-.8-.4s-.8-.2-.7-.6c.5 0 1 .4 1.3.8s.2.1.2.3zm4.9-5.9c0 .2-.4 0-.6.1s-.1.2-.2.3c-.3.2-.6.4-1 .6v-.3c.4 0 .4-.3.8-.5s.6-.2 1-.1zm-.4 1.4c0 .2 0 .1-.1.2-.3.1-.7 0-1 0 0-.3.4-.2.5-.5.1 0 0 .2.2.3s.3 0 .5 0zm-25.7 11.3c0 .4 0 .3.3.4s-.1.2-.4.2c-.5-.1-.5-.6 0-.6zm7.1 7.5s.2.3.3.4c-.2.2-1.2-.4-1-.5h.7zm4.5-5.5c.2 0 .5.1.7 0 0 .3-.4 0-.6 0h-1.5l.2-.1h1.1zm15-14.4l.6.4v.2h.4c.3 0 .3.5 0 .4s-.1-.2-.2-.3c-.2-.2-.7-.5-.9-.6s-.2 0-.3 0c0-.3.3-.1.4 0zm-12.8 10.8s0 .1.1.2c.3.1.7 0 .9.4-.5.1-.8-.4-1.3-.3v-.2h.4zm-.9 3.1c-.4 0-.9-.2-1-.6.2-.1.8.4 1 .6zm-8.8-8.9l-.3.6-.3-.3c.2-.2.3-.4.7-.3zm7.7 8.2c-.4-.1-.7-.2-.9-.5.4 0 .7.1.9.5zm12.3-13.2c-.3 0-.3-.3-.7-.2v-.3c.3 0 .8.1.7.5zm-13.9 13.1c0 .4-.6 0-.7 0s-.2 0-.2-.2l.9.3zm4.1-14.6v.6c-.3.2-.5-.6 0-.6zm5.2-2.5c.2.3-.8.2-.8 0 .2-.2.6 0 .8 0zm-9.6 18.6c-.2 0-.7.2-.7 0s.5-.1.7 0zm-5.1-11.7l-.4.3h-.3s.2-.2.3-.2h.4zm-3.6 7.9l.7.3c0 .3-.9-.2-.7-.3z"></path></g></g></g></g></svg>