<?xml version="1.0" encoding="UTF-8"?><svg xmlns="http://www.w3.org/2000/svg" viewBox="0 0 25.84 24"><g fill="#3a2c1a"><g transform="matrix(1.4764,0,0,1.4764,-95.077,-136.687)"><path d="M69.3 106.9c-.5 0-.4 0-.5.3s-.4.3 0 .5.5-.5.7-.7l1 .4c.1 0 0 .1 0 .2-.2.3-.7 0-1 0s-.2.2-.3.2h-.4c-.1 0-.4.2-.5.2l-.2-.4h-.3l-.2-.4c-.3.2-.7 0-1 .2v-.2s1.2-.5 1.4-.6c.3 0 .3.2.7 0s-.3-.2-.3-.2-.1-.1-.2-.1c-.2 0-.5.1-.7 0l.2-.3c-.6-.5-1 .3-1.6 0s-.3-.4-.3 0v.2c.1 0-.3.3-.3.3l-.3-.2c0-.4.5-.4.7-.6.4-.3.5-.4 1-.7s.3-.4.6-.3c0-.2-.4-.2-.6-.2s-.1 0-.1-.1c.8-.4.9 0 1.3.6l-.2.8c.2 0 .4.3.5.3h.5c.2 0 .6.3.6.3.2.1.1.4.1.5zM79 94.7c.3.2 0 .1-.1 0-.5-.2-1.3-.9-1.8-.8s-.5.6-.6.8-.8.4-.4.8c.5-.3 1-.3 1.5-.2 0 .2-.3.4-.5.4s-.2-.1-.3-.1-.2.2-.3.2c-.5.2-.5 0-.7-.1s-.5 0-.7 0c-.2-.2.8-.7.6-1-.7 0-.9.8-1.5.9v-.4c0-.1.9-.8 1-.8.3-.2.4-.1.7.1.2 0 .3-.2.4-.4h-.4c-.4 0 .6-.7.7-.7.5-.1 1.2.3 1.6.5s.6.4.8.6zm.5 2c.5 0 .8.3 1.3.4.1.2-.6.3-.7.4h-.7c-.2 0 0 .1-.2.2h-.7c.2-.4.7 0 1-.5-.3.1-.6-.3-.7-.3-.3 0-.4.3-.7.2.2-.6 1.3-1.3 1.4-.3zm-12.8 2c.2-.2 1.2.5 1.2.7.2.4 0 1.3-.5 1.2s0-.3 0-.5-.4-.3-.5-.5 0-.4 0-.6-.2-.2-.1-.3zm11.8-3c.2.2-1.3 1.5-1.6 1.3l.5-.5c0-.4.5-.6.9-.8s.2-.1.3 0zm-3.7 11.2h-.4c-.3-.1-1-.6-1.3-.6s-.6.3-.8 0c.2-.2.7-.4 1-.4s.3.4.5.5c.3.2.7 0 .9.5zm-2.6-.5c-.3 0-1 .5-1.2.5-.3 0-.5-.4-.4-.4.7.1.7-.7 1.3-.4s.2.2.2.3zm-5.9-6.3c0 .4 0 .3.3.4s-.1.2-.4.2c-.5-.1-.5-.6 0-.6zm7.1 7.5s.2.3.3.4c-.2.2-1.2-.4-1-.5h.7zm4.5-5.5c.2 0 .5.1.7 0 0 .3-.4 0-.6 0h-1.5l.2-.1h1.1zm2.2-3.6s0 .1.1.2c.3.1.7 0 .9.4-.5.1-.8-.4-1.3-.3v-.2h.4zm-.9 3.1c-.4 0-.9-.2-1-.6.2-.1.8.4 1 .6zm-1.1-.7c-.4-.1-.7-.2-.9-.5.4 0 .7.1.9.5zm-1.6-.1c0 .4-.6 0-.7 0s-.2 0-.2-.2l.9.3zm-.3 1.5c-.2 0-.7.2-.7 0s.5-.1.7 0zm-8.7-3.8l.7.3c0 .3-.9-.2-.7-.3z"></path></g></g></svg>