<?xml version="1.0" encoding="UTF-8"?><svg xmlns="http://www.w3.org/2000/svg" viewBox="0 0 48.23 24"><g fill="#3a2c1a"><g transform="matrix(2.3758,0,0,2.3758,-142.546,-179.607)"><path d="M69.5 83.6c-.2-.2-.6.1-.8-.3-.3 0-.3-.2-.6-.4s-.8-.8-1.1-1.1-1.2-.9-1.6-.4c-.1.4.6.5.7.7l-.7 1c.3 0 .4.3.5.4H65c-1.3 1.8-1.8 1.1-1.6 1s.5-.5.5-.5c.1-.1.3-.7.4-.9s.4-.2.6-.6.3-.1.3-.5c-.2 0-.9-.2-.9.3s.4.1.3.3c-.6 0-.7.8-1.1 1.2-1.1 1.2-2.7 1.1-2.7 1.1l.8-.2c1-.2 1.9-1.7 2.4-2.6s0-.3 0-.4c.1-.3.8-.7 1.1-.8s.9-.3 1-.4.8-.8.9-1c.7-1 .2-1.3 1.5-2s.3-.4.7-.2c.3.1 1.2.9 1.4 1s.8 0 .9 0c.8 0 2.5-1.9 2.9-1.9 1.1.3 1.9 2.1 2.9 2.5s.5 0 .7.1.3.2.5.2c.2.2-.5.1-.6.1-.3 0-1.4-.5-1.6-.6s-.2-.3-.3-.5c-.2-.2-.9-.9-1.2-1.1-.5-.4-.9 0-1 .5s.3.4.5.7c-.2 0-.5.2-.6.1s-.1-.3-.3-.3c-.3.3-.6.1-.9.2s-.4.2-.7.3-.5 0-.6 0c-.1 0 0 .3.2.4 0 0 .6.4.7.5.8.5 1.6.9 2.4 1.5s.3.2.5.2c-.4.2-.4 0-.6-.1-1.2-.5-2.6-1.3-3.7-2.1s-1-.9-1.3-1-.3 0-.4 0c0 .5-.3.9-.3 1.4.3 0 .6 0 .7.4-.6 0-.8 1-1.4.9l.7-1c-.2 0-.2 0-.3.1-.2.2-1 .8-1.2.8s0-.2-.1-.2c-.2-.1-.5.2-.7.2l.8.8c.3.3.8.6 1.2.9s.4 0 .8.8c.4.1.4.3.6.4m9.7-1.8H79v.8c0 .2.4.4.1.5s-.5-.7-.8-.7h-.9c-.3 0-.5.3-.6 0s.3-.3.4-.4.3-.5.7-.5.4.1.7 0 .5-.4.5-.4c.2 0 .4.7.3.7z"></path></g></g></svg>