<?xml version="1.0" encoding="UTF-8"?><svg xmlns="http://www.w3.org/2000/svg" viewBox="0 0 52.73 15"><g transform="matrix(0.8030,0,0,0.8030,-326.325,-163.091)"><g transform="matrix(3.7794642857142855,0,0,3.7794642857142855,50.15244753190449,0.007366071428562141)"><path style="fill:#3a2c1a" d="m 110.70349,58.202764 c -0.29729,-0.114359 -1.61901,-0.801352 -2.93716,-1.526652 -2.67226,-1.470385 -3.81635,-1.990382 -4.8249,-2.192943 -0.61177,-0.122869 -0.74458,-0.124172 -1.27991,-0.01255 -0.7612,0.158715 -1.48398,0.522081 -2.423558,1.218415 -1.533837,1.136742 -3.606683,2.264154 -4.339537,2.360256 -0.230121,0.03018 -0.399351,0.0348 -0.376068,0.01026 0.02328,-0.02453 0.48474,-0.271806 1.025458,-0.549501 1.019447,-0.523554 2.114368,-1.225192 3.208331,-2.055938 1.438434,-1.092335 2.299974,-1.452823 3.470874,-1.452291 1.41235,6.42e-4 2.79423,0.602701 6.64634,2.895667 0.8382,0.498939 1.72133,1.006558 1.96251,1.128043 0.40237,0.202678 0.64318,0.399356 0.47665,0.389295 -0.0377,-0.0023 -0.31173,-0.09771 -0.60903,-0.212063 z" id="path32"></path></g></g></svg>