<?xml version="1.0" encoding="UTF-8"?><svg xmlns="http://www.w3.org/2000/svg" viewBox="0 0 36.01 11"><g transform="matrix(0.5435,0,0,0.5435,-221.968,-88.206)"><g transform="matrix(3.7794642857142855,0,0,3.7794642857142855,50.15244753190449,0.007366071428562141)"><path style="fill:#3a2c1a" d="m 110.90536,47.449233 c -0.51224,-0.315103 -1.28464,-0.811131 -1.71645,-1.102284 -3.38182,-2.28022 -5.17707,-2.987846 -6.91272,-2.724752 -1.18296,0.179317 -1.79272,0.453357 -3.388413,1.522836 -1.506167,1.009474 -2.979628,1.788505 -3.589058,1.897563 -0.506917,0.09071 -0.25551,-0.132001 0.870209,-0.77089 0.595838,-0.338161 1.659736,-0.994125 2.364218,-1.457697 2.019944,-1.329184 2.781754,-1.609747 4.378834,-1.612639 1.80946,-0.0033 3.42566,0.736144 6.80804,3.114713 0.6985,0.491201 1.50813,1.05973 1.79917,1.263399 0.29104,0.203669 0.52917,0.387432 0.52917,0.408362 0,0.119532 -0.31251,-0.02773 -1.143,-0.538611 z" id="path31"></path></g></g></svg>