<?xml version="1.0" encoding="UTF-8"?><svg xmlns="http://www.w3.org/2000/svg" viewBox="0 0 53.4 15"><g transform="matrix(1.2767,0,0,1.2767,-647.429,-335.455)"><g transform="matrix(3.7794642857142855,0,0,3.7794642857142855,50.15244753190449,0.007366071428562141)"><path style="fill:#3a2c1a" d="m 125.27927,72.160642 c 0.18627,-0.117573 0.68659,-0.381978 1.11183,-0.587566 0.42524,-0.205588 0.79404,-0.428179 0.81954,-0.494647 0.0255,-0.06647 -0.0925,-0.319273 -0.2623,-0.561791 l -0.30867,-0.44094 -0.38387,0.05176 c -0.21112,0.02847 -0.89821,0.297553 -1.52686,0.597962 -0.62865,0.30041 -1.58115,0.696543 -2.11667,0.880296 -0.53551,0.183754 -1.07844,0.374978 -1.2065,0.424942 -0.14306,0.05582 -0.23283,0.05938 -0.23283,0.0092 0,-0.08206 1.05607,-0.635546 1.60867,-0.843104 0.16298,-0.06122 0.85993,-0.375657 1.54877,-0.698755 2.09887,-0.984458 2.93745,-0.959717 4.65588,0.137365 0.24292,0.155088 1.01318,0.575539 1.71168,0.934335 0.73895,0.379572 1.1461,0.627449 0.97369,0.592794 -0.32386,-0.0651 -2.05366,-0.889092 -3.25969,-1.552759 -0.4191,-0.230626 -0.91304,-0.446859 -1.09764,-0.480516 l -0.33564,-0.06119 0.16105,0.245659 c 0.57078,0.870593 0.46779,1.026864 -1.11334,1.689298 -1.01064,0.423419 -1.24726,0.473348 -0.7471,0.15764 z" id="path27"></path></g></g></svg>