<?xml version="1.0" encoding="UTF-8"?><svg xmlns="http://www.w3.org/2000/svg" viewBox="0 0 22.95 12"><g fill="#3a2c1a"><g transform="matrix(1.5000,0,0,1.5000,92.550,-19.200)"><g>
    <path d="M-60.7,16.2l.7-.9c.4,0,.9.3,1.3.1s.3-.4.4-.5c.3-.3,1-.6,1.4-.4s.2.2.4.2.6-.1.6-.2,0-.1.1-.2c.2,0,.3-.2.5-.3.1,0,.2.2.2.2.2,0,.3.1.5.2s.6.3.7.3c.2,0,.3-.2.4-.3.5-.5.9-.8,1.6-.8s.7,0,1,0l.7.2c-.1.2-.4,0-.5,0-.6,0-1,0-1.3.5-.3,0-.7,0-1.1,0l-.7.7h.8s0,.1.1.2c.3.2.9.3,1.2.5s.2.2.4.3,1.3.6,1.1.8c-.8-.3-1.5-.8-2.2-1.1s-1.2-.2-1.7-.4-.5-.3-.8-.5c-.5-.3-.5-.4-1.1,0s-.5.4-.5.4c-.2,0-.3-.2-.4-.2s-.7,0-.9,0c-.3,0-.8.6-.5.9-.3.2-.1.2-.2.4s-.4.3-.3.5.4.1.5.2.2,0,.3,0c.3,0,.6,0,.8.2-.4,0-.2.2-.3.4s-.5.3-.7.4c-.6.4-1,1-1.6,1.3s-.4.2-.6,0c0-.2,0-.4-.2-.5,0-.2.4-.5.6-.5l.4.3v-.3c.3,0,.7-.1.9-.2s.3-.4.5-.5c.2-.1.5,0,.7-.3-.4-.1-.7-.1-.8.3h-.9c0-.2.5-.3.5-.4h-.4c0-.1-1,.4-1,.4h-.4c0-.1.7-.5.6-.6-.3,0-.4.1-.7.1s-.2,0-.2-.1c.3,0,.3-.4.5-.5.3-.2,1,0,1.2-.5,0-.1-.8-.3-1-.2s0,.1,0,.2c0,.1-.5.4-.6.5s0,.3-.2.3v-.5ZM-52.3,14c-.2,0-.2.3,0,.3s.2-.3,0-.3Z"></path>
    <path d="M-54.7,19c-.3,0-.3,0-.4.3s-.3.2,0,.3.4-.4.5-.5l.8.3c0,0,0,0,0,.2-.2.2-.5,0-.8,0s-.2.1-.2.2-.2,0-.3,0-.3.2-.4.2v-.3c-.1,0-.3,0-.3,0v-.3c-.4.2-.7,0-.9.2,0,0,0-.1,0-.1,0,0,.9-.4,1.1-.5.2,0,.2.2.5,0s-.2-.2-.3-.2-.1,0-.2,0c-.1,0-.4.1-.5,0l.2-.2c-.4-.4-.8.2-1.2,0s-.2-.3-.3,0h.1c0,.1-.4.4-.4.4l-.3-.2c0-.3.4-.3.5-.5.3-.2.4-.3.8-.5s.2-.3.4-.2c0-.2-.3-.1-.4-.2s-.1,0,0-.1c.6-.3.7,0,1,.4v.6s.1.2.2.2c.1,0,.3,0,.4,0s.5.2.5.2c.1,0,0,.3,0,.4Z"></path>
    <path d="M-50.5,19c-.1,0-.2,0-.3,0-.2,0-.8-.4-1-.5s-.4.2-.6,0c.1-.2.5-.3.8-.3s.3.3.4.4c.2.1.6,0,.7.4Z"></path>
    <path d="M-52.5,18.6c-.3,0-.8.4-.9.4-.2,0-.4-.3-.3-.3.5,0,.5-.5,1-.3s.1.1.2.2Z"></path>
    <path d="M-51.6,19.5s.2.3.2.3c-.1.1-.9-.3-.8-.4.2,0,.4,0,.6,0Z"></path>
    <path d="M-47.2,15.7c-.3,0-.7-.2-.7-.5.1-.1.6.3.7.5Z"></path>
    <path d="M-48.1,15.1c-.3,0-.5-.1-.7-.4.3,0,.6,0,.7.4Z"></path>
    <path d="M-49.3,14.3c0,.3-.4,0-.5,0s-.2,0-.1-.2l.7.2Z"></path>
    <path d="M-49.4,15.4c-.1,0-.5.2-.5,0s.4,0,.5,0Z"></path>
  </g></g></g></svg>