<?xml version="1.0" encoding="UTF-8"?><svg xmlns="http://www.w3.org/2000/svg" viewBox="0 0 39.14 33"><g fill="#3a2c1a"><g transform="matrix(1.1403,0,0,1.1403,-136.718,-91.108)"><g>
    <path d="M120.7,103.3l.9-1.2c.5,0,1.2.4,1.8.2s.4-.5.5-.6c.4-.4,1.3-.7,1.9-.5s.2.3.6.2.8-.2.8-.2,0-.2.2-.2c.2-.1.4-.2.6-.4.1,0,.2.2.3.3.2,0,.4.2.6.3s.8.4.9.4c.3,0,.4-.3.5-.4.7-.6,1.2-1,2.1-1s.9.1,1.3,0l.9.3c-.1.2-.5,0-.6,0-.8-.1-1.3,0-1.7.7-.5-.1-.9,0-1.4,0l-1,.9h1s0,.2.2.3c.3.2,1.1.4,1.5.6s.3.3.5.4,1.7.8,1.5,1c-1-.4-1.9-1.1-2.9-1.5s-1.5-.3-2.2-.5-.7-.5-1-.6c-.7-.3-.6-.5-1.4-.1s-.6.5-.7.5c-.2,0-.3-.2-.5-.3s-1-.1-1.2,0c-.4,0-1,.7-.6,1.1-.4.3-.1.3-.2.6s-.5.3-.4.7.5.2.7.2.3.1.4.1c.4,0,.8,0,1.1.3-.5,0-.2.3-.4.5s-.7.3-.9.5c-.8.5-1.3,1.3-2.1,1.7s-.5.2-.8.1c0-.3,0-.6-.2-.7,0-.2.5-.7.8-.6l.5.4v-.4c.4,0,.9-.2,1.2-.3s.4-.5.6-.6c.3-.2.7,0,.9-.4-.5-.1-.9-.2-1.1.4h-1.2c0-.3.7-.4.7-.6l-.5-.2-1.3.7h-.5c0-.1.9-.6.7-.8-.3,0-.6.1-.9.2s-.3,0-.3-.2c.4,0,.4-.5.6-.7.4-.3,1.3,0,1.5-.6,0-.1-1.1-.4-1.3-.2s0,.2,0,.2c-.1.1-.7.6-.8.6s0,.4-.2.4v-.7ZM131.8,100.4c-.3,0-.2.5.1.3s.2-.5-.1-.3Z"></path>
    <path d="M120.7,99.1c.4-.7,1.2-1.1,1.6-1.8.4-.1,1.4-1.3,1.7-1.2s.8.6,1.1.5.6-.3.7-.4c.5-.3,1.3-1.2,1.9-.9s1.4,1.2,2.2,1.5.7,0,1.1.1,1,.6,1.4.6.5,0,.8,0c1.2,0,3.3,1,4.1,1.7,0,.3.6.4.4.7-.6-.3-1.1-.8-1.6-1.1-1-.6-2.3-1-3.5-1.2s-.4,0-.7,0-.6-.4-.8-.5c-.4,0-.6.2-.9.1-.8-.2-2.2-1.7-2.8-1.7s-.5.4-.8.5-.5.4-.7.5-.9,0-.8.6c-.1.1-.8-.9-1.2-.1s0,.4.2.6,1,.5,1,.6c0,0,0,.3,0,.4.2,0,.1-.1.2-.1,0,0,.2,0,.2.1,0,.3-.3.2-.3.3s-.2.6-.2.7c-.1,0-.1-.3-.1-.4,0-.4.1-.4-.4-.6s-.2,0-.2,0c-.2.2-.5.3-.8.4s-.2.3-.4.2l.2-.6c-.2,0-.1.2-.4.1v-.3c.1,0,1-1,1-1v-.6s.4,0,.4,0c0-.5-.5-.1-.7,0-.6.5-.9.9-1.4,1.4s-.3.2-.4.3c-.3.2-.5.7-.9.8v-.2Z"></path>
    <path d="M138.8,87.1c-.3,0-.7,0-.9-.2s-.8-.8-1.1-1.1-1.2-.9-1.6-.4c-.1.4.6.5.7.7l-.7,1c.3,0,.4.3.5.4.8.8,1.3,1.4,2.2,2.2s.2,0,.1.2c-.5.1-.6-.1-.9-.4s-.3,0-.5-.4c-.3-.6-.4-.6-.8-1s-.3-.6-.9-.6-.6,1-.9,1.3-.3.2-.4.3c-.3.7.6.3.8.3.4,0,.8,0,1.1.3s.4.6.6,1,.7.5,1.1.4l-.2.5h1s.1.2.1.2l-.2.3.2.3c.5-.1.7-.7,1.4-.4s.2.6.5,1c.3.2.9,0,1.1.2s0,.3.1.4.3,0,.4.1c.3.2.3.4.4.6s.4.2.5.4v.6c0,0-.3-.1-.3-.1.2-.7-.3-.5-.5-.6s0-.1-.1-.2c-.2-.2-1.5-1.1-1.6-1.1-.2,0-.5,0-.8,0s-.3-.3-.4-.4-.3,0-.4,0c-.2,0-.4-.3-.5-.4-.2-.1-.5,0-.4-.4-.2,0-.4.1-.6.1s-1.4-.3-1.7-.5c-.6-.2-1.2-.7-1.9-.7-.3.3.2.5.3.7.2.3.5,1,.7,1.4s.6.5.6.9c-.2.2-.5.5-.7.3,0-.2.2-.3.4-.3v-.2s-.1-.1-.1-.1c-.7-.2-.7.5-1,.5l-.2-.2v-.2c.1,0,0-.2,0-.2l-.6.2c-.1-.3.3-.4.1-.6-.2.1-.6.1-.8.2s-.3.3-.6.4c-.6.1-.1-.2-.5-.4-.2.2-.5.4-.8.4s-.4-.3-.2-.4.4,0,.6,0,.8-.8.9-.9.6-.8.5-.8c-.6.3-1.2.6-1.8,1.1-.5,0-.4-.6-1-.4v-.3c.5,0,.9-.1,1.2-.4s.4-.6.6-.9c.3-.5.4,0,.6.1.4.2.8,0,1-.4-.2-.4-.6,0-.8-.2,0,0,.7-.3.4-.7s-.6.1-.9.1-.2-.2-.4-.2c-.7-.3-.9.3-1.4.6-.3.4-.5.8-.8,1.2s-1.6.9-1.7.9c-.2,0-.3,0-.5,0s-.6.4-.8.4-.5,0-.7,0v-.2s1.7-.5,1.7-.5c.3-.2.6-.2.9-.4.8-.5,2-2.4,2.7-2.5s.6,0,1,0c1-.2,1.9-1.7,2.4-2.6s0-.3,0-.4c.1-.3.8-.7,1.1-.8s.9-.3,1-.4.8-.8.9-1c.7-1,.2-1.3,1.5-2s.3-.4.7-.2c.3.1,1.2.9,1.4,1s.8,0,.9,0c.8,0,2.5-1.9,2.9-1.9,1.1.3,1.9,2.1,2.9,2.5s.5,0,.7.1.3.2.5.2c.2.2-.5.1-.6.1-.3,0-1.4-.5-1.6-.6s-.2-.3-.3-.5c-.2-.2-.9-.9-1.2-1.1-.5-.4-.9,0-1,.5s.3.4.5.7c-.2,0-.5.2-.6.1s-.1-.3-.3-.3c-.3.3-.6.1-.9.2s-.4.2-.7.3-.5,0-.6,0c-.1,0,0,.3.2.4,0,0,.6.4.7.5.8.5,1.6.9,2.4,1.5s.3.2.5.2h0c-.4.2-.4,0-.6-.1-1.2-.5-2.6-1.3-3.7-2.1s-1-.9-1.3-1-.3,0-.4,0c0,.5-.3.9-.3,1.4.3,0,.6,0,.7.4-.6,0-.8,1-1.4.9l.7-1c-.2,0-.2,0-.3.1-.2.2-1,.8-1.2.8s0-.2-.1-.2c-.2-.1-.5.2-.7.2,0,0,.7.7.8.8.3.3.8.6,1.2.9s.4,0,.8.8c.4.1.4.3.6.4.6.3.6-.4.9-.5s.4,0,.6,0c.6-.1,1.2-.7,1.8-.6s.7.2.7.3c.2.2.4.7.6.9s.6.6.9.8c-.1.2-.1.1-.3,0-.2,0-.9-.6-1.1-.8s0-.4-.2-.5-.6-.3-.7-.3c-.5.3-1.1.7-1.6.9s-.6-.1-1,.2v.5s-.6,0-.6,0c.2.4-.3.6-.3.2s.2-.6,0-.9-.2,0-.4-.5ZM134.9,86c-.2,0-.9-.2-.9.3s.4.1.3.3c-.6,0-.8.8-1.1,1.2s-.4.3-.5.5-.3.2-.3.4c.2.1.7-.4.8-.5s.3,0,.4-.2.3-.7.4-.9.4-.2.6-.6.3-.1.3-.5ZM132.7,89.6c-.7,0-.3.8.1.4s0-1.3-.4-.7c0,0,.4.2.3.3ZM133.8,90.1c-.1.3-1,.1-.9.5s.9-.1,1-.3,0-.1,0-.2ZM135,90.9c.2-.6-.8-.8-.7-.3s.5.3.7.3ZM136.1,91.7c0-.3-.2-.3-.3-.4s-.4-.5-.7-.3c0,.4.5.4.5.7h.5ZM133.6,92.4c0-.1,0-.3-.2-.4-.2-.3-1-1.1-1.3-.5s.5.9.9,1.1.1.2.1.2c0,0,.2,0,.3,0s0,.6.5.4-.1-.5-.1-.5c0-.2,0-.2-.1-.4Z"></path>
    <path d="M142.5,91.3c.2-.2.7,0,.8-.1s0-.1,0-.2c0,0,.2,0,.2-.1-.2,0-.5,0-.6-.2.5,0,.7-.1,1.2.2s.1.2.2.2.3,0,.3,0,0,.3.4.3.5-.1.5-.1c.2,0,.6-.4.8-.5.8-.5.6-.9,1.6-.4s1.7,1.3,2.6,1.8v.4s0,0-.2,0c-.2,0-.5-.5-.6-.6-.3-.2-.5-.3-.8-.5-.5-.3-1-.6-1.4-1-.5-.2-.8.4-1.1.7s-1.5.8-1.7,1c-.3.6-.5.5-1,.9s-.2.3-.2.3c-.4.3-1.1.3-1.1-.3.3,0,.4-.4.7-.6s.7-.5.8-.5c.2,0,1.1-.2.4-.5s-.7.2-1.1.4-.7.3-.9.3-.4-.3-.6-.4c-.4-.2-.3,0-.4,0-.2.2-1.3-.6-1.6-.8-.5-.3-1.1-.4-1.6-.6s-.7-.3-.3-.4.4.2.6.2c.6.2,1.7.4,2.2.7s.4.4.6.5.3,0,.5,0,.3.3.4.2,0-.2.1-.2Z"></path>
    <path d="M128.6,106.9c-.5,0-.4,0-.5.3s-.4.3,0,.5.5-.5.7-.7l1,.4c.1,0,0,.1,0,.2-.2.3-.7,0-1,0s-.2.2-.3.2-.3,0-.4,0-.4.2-.5.2l-.2-.4h-.3s-.2-.4-.2-.4c-.3.2-.7,0-1,.2,0,0,0-.2,0-.2,0,0,1.2-.5,1.4-.6.3,0,.3.2.7,0s-.3-.2-.3-.2-.1-.1-.2-.1c-.2,0-.5.1-.7,0l.2-.3c-.6-.5-1,.3-1.6,0s-.3-.4-.3,0v.2c.1,0-.3.3-.3.3l-.3-.2c0-.4.5-.4.7-.6.4-.3.5-.4,1-.7s.3-.4.6-.3c0-.2-.4-.2-.6-.2s-.1,0-.1-.1c.8-.4.9,0,1.3.6l-.2.8c.2,0,.4.3.5.3.2,0,.3,0,.5,0s.6.3.6.3c.2.1.1.4.1.5Z"></path>
    <path d="M138.3,94.7c.3.2,0,.1-.1,0-.5-.2-1.3-.9-1.8-.8s-.5.6-.6.8-.8.4-.4.8c.5-.3,1-.3,1.5-.2,0,.2-.3.4-.5.4s-.2-.1-.3-.1-.2.2-.3.2c-.5.2-.5,0-.7-.1s-.5,0-.7,0c-.2-.2.8-.7.6-1-.7,0-.9.8-1.5.9,0-.2,0-.3,0-.4s.9-.8,1-.8c.3-.2.4-.1.7.1.2,0,.3-.2.4-.4h-.4c-.4,0,.6-.7.7-.7.5-.1,1.2.3,1.6.5s.6.4.8.6Z"></path>
    <path d="M149.2,85.6h-.5c0,.3,0,.6,0,.8s.4.4.1.5-.5-.7-.8-.7c-.3,0-.6,0-.9,0s-.5.3-.6,0,.3-.3.4-.4.3-.5.7-.5.4.1.7,0,.5-.4.5-.4c.2,0,.4.7.3.7Z"></path>
    <path d="M149.4,84.1c1,.4,1.9,1,2.7,1.6,0,0,.3.3.2.4s-1.1-.8-1.2-.9c-.5-.4-1.6-1-2.3-.9s-.2,0-.3.1c-.3.1-.7.4-1,.5s-.7.5-1.2.5c0-.2,0-.1.1-.2.4-.3.7-.4,1.1-.7s.2-.3.3-.3c.3-.2.8,0,.8-.5h-.4c-.1-.2,0-.3,0-.3.2,0,.8.5,1,.7Z"></path>
    <path d="M140,85.6c-.4,0-.5.3-.8.4-.4-.4-.5,0-.9,0-.5,0-.2-.4-.3-.5h-.3c.4-.4.7-.7,1.2-.8.2.2.6.3.8.4s.1.4.3.5Z"></path>
    <path d="M138.8,96.7c.5,0,.8.3,1.3.4.1.2-.6.3-.7.4-.2,0-.5,0-.7,0s0,.1-.2.2c-.2,0-.5,0-.7,0,.2-.4.7,0,1-.5-.3.1-.6-.3-.7-.3-.3,0-.4.3-.7.2.2-.6,1.3-1.3,1.4-.3Z"></path>
    <path d="M126,98.7c.2-.2,1.2.5,1.2.7.2.4,0,1.3-.5,1.2s0-.3,0-.5-.4-.3-.5-.5,0-.4,0-.6-.2-.2-.1-.3Z"></path>
    <path d="M146.8,94.6c-.1.6-.4.1-.7,0s-.8-.1-1.1-.2-.1,0-.2-.1l.6-.6c.7,0,.8.6,1.3.8Z"></path>
    <path d="M137.8,95.7c.2.2-1.3,1.5-1.6,1.3l.5-.5c0-.4.5-.6.9-.8s.2-.1.3,0Z"></path>
    <path d="M147.3,91.1c0,.3.1.3.3.4s.2,0,0,.2h-.3c-.1-.3-.5-.2-.4,0h.3c-.3.5-.8.4-1.2.4,0-.2.2-.3.3-.4s.3-.2.5-.3.2-.4.5-.3Z"></path>
    <path d="M134.1,106.9c-.1,0-.2,0-.4,0-.3-.1-1-.6-1.3-.6s-.6.3-.8,0c.2-.2.7-.4,1-.4s.3.4.5.5c.3.2.7,0,.9.5Z"></path>
    <path d="M126.8,92.2c.2.2-.8.7-.9.7s-.1.2-.2.3c-.3.3-.9.1-.5-.2s.7-.5.9-.6.7-.3.8-.2Z"></path>
    <path d="M131.5,106.4c-.3,0-1,.5-1.2.5-.3,0-.5-.4-.4-.4.7.1.7-.7,1.3-.4s.2.2.2.3Z"></path>
    <path d="M146.8,93.3c-.3,0-.5-.3-.8-.4s-.8-.2-.7-.6c.5,0,1,.4,1.3.8s.2.1.2.3Z"></path>
    <path d="M151.7,87.4c0,.2-.4,0-.6.1s-.1.2-.2.3c-.3.2-.6.4-1,.6v-.3c.4,0,.4-.3.8-.5s.6-.2,1-.1Z"></path>
    <path d="M151.3,88.8c0,.2,0,.1-.1.2-.3.1-.7,0-1,0,0-.3.4-.2.5-.5.1,0,0,.2.2.3s.3,0,.5,0Z"></path>
    <path d="M125.6,100.1c0,.4,0,.3.3.4s-.1.2-.4.2c-.5-.1-.5-.6,0-.6Z"></path>
    <path d="M132.7,107.6c0,0,.2.3.3.4-.2.2-1.2-.4-1-.5.2,0,.5,0,.7,0Z"></path>
    <path d="M137.2,102.1c.2,0,.5.1.7,0,0,.3-.4,0-.6,0-.5,0-1,0-1.5,0,0,0,.2-.1.2-.1.4,0,.8,0,1.1,0Z"></path>
    <path d="M152.2,87.7c0,0,.6.4.6.4,0,0,0,.2,0,.2,0,0,.3,0,.4,0,.3,0,.3.5,0,.4s-.1-.2-.2-.3c-.2-.2-.7-.5-.9-.6s-.2,0-.3,0c0-.3.3-.1.4,0Z"></path>
    <path d="M139.4,98.5s0,.1.1.2c.3.1.7,0,.9.4-.5.1-.8-.4-1.3-.3v-.2c.1,0,.2,0,.4,0Z"></path>
    <path d="M138.5,101.6c-.4,0-.9-.2-1-.6.2-.1.8.4,1,.6Z"></path>
    <path d="M129.7,92.7l-.3.6-.3-.3c.2-.2.3-.4.7-.3Z"></path>
    <path d="M137.4,100.9c-.4-.1-.7-.2-.9-.5.4,0,.7.1.9.5Z"></path>
    <path d="M149.7,87.7c-.3,0-.3-.3-.7-.2v-.3c.3,0,.8.1.7.5Z"></path>
    <path d="M135.8,100.8c0,.4-.6,0-.7,0s-.2,0-.2-.2l.9.3Z"></path>
    <path d="M139.9,86.2v.6c-.3.2-.5-.6,0-.6Z"></path>
    <path d="M145.1,83.7c.2.3-.8.2-.8,0,.2-.2.6,0,.8,0Z"></path>
    <path d="M135.5,102.3c-.2,0-.7.2-.7,0s.5-.1.7,0Z"></path>
    <path d="M130.4,90.6l-.4.3h-.3c0,0,.2-.2.3-.2.1,0,.3,0,.4,0Z"></path>
    <path d="M126.8,98.5l.7.3c0,.3-.9-.2-.7-.3Z"></path>
  </g></g></g></svg>