<?xml version="1.0" encoding="UTF-8"?><svg id="mountains" xmlns="http://www.w3.org/2000/svg" viewBox="0 0 22.01 9.31"><defs><style>.cls-1{fill:#e8dec4;}</style></defs><g id="smaller"><polygon id="bg" class="cls-1" points="22 9.06 19.57 7.38 17.88 6.9 16.62 5.59 14.89 3.58 13.1 1.18 12 .15 11.24 1.52 10.09 2.5 9.13 4.26 7.83 5.13 7.16 5.02 3.7 6.48 2.5 7.75 -.05 9.27 22.01 9.31 22 9.06"/><path id="mountain" d="M21.75,8.73c-.34-.26-.92-.49-1.31-.73-.3-.18-.57-.46-.87-.63-.41-.22-.8-.23-1.19-.49-.47-.3-.8-.9-1.16-1.12-.23-.14-.42-.09-.59-.19-.41-.23-.97-1.42-1.29-1.83-.3-.37-.77-.63-1.05-1-.73-.96-.85-1.76-1.99-2.57-.18-.13-.36-.31-.54-.06-.22.32-.34.94-.61,1.31-.22.31-.58.47-.84.72-.59.57-.68,1.06-1.06,1.7-.19.32-1.23,1.13-1.58,1.12-.13,0-.26-.07-.42-.07-.5,0-1.63.69-2.15.92-.44.19-.93.26-1.34.52-.51.31-.87.93-1.35,1.3-.74.56-1.9.81-2.46,1.62.05.09.15-.01.2-.04.7-.39,1.63-.85,2.27-1.27.7-.45,1.03-1.22,1.81-1.55.25-.1.56-.15.82-.26.5-.21,1.78-.95,2.2-.99.07,0,.34.04.26.15-.54.73-1.07.91-1.16,1.09-.03.06-.11.29.04.22.11-.04,1.23-1.08,1.39-1.22.48-.4,1.1-.65,1.5-1.14.36-.44.46-.97.79-1.44.37-.52.88-.74,1.23-1.18.24-.3.31-.62.51-.93.05.3.14.63.15.93.03.73-.38,1.17-.57,1.83-.13.46-.12.97-.27,1.41-.16.5-.61.93-.6,1.47.09-.01.11-.11.15-.18.2-.34.58-.93.7-1.28.15-.43.14-.92.27-1.35.12-.39.42-.74.5-1.15.17-.04.12.16.21.3.15.21.36.39.5.58.14.21.89,1.71,1.21,1.46-.43-.47-.6-1.08-.97-1.58-.12-.16-.29-.28-.41-.43-.48-.62-.49-1.61-.6-2.37.39.27.73.62,1.02.99.39.51.62,1.18,1,1.64.27.33.7.58.98.94.29.37.5.86.79,1.25.08.1.47.44.41.52-1.23.37-2.42,1.08-3.7,1.26-.46.06-.76-.05-1.23.21-.27.15-1.42,1.31-1.65,1.59-.04.05-.26.31-.21.36.12.03.16-.03.24-.09.58-.43,1.38-1.67,2.08-1.77.34-.05.71.01,1.05-.07l-.3.51c.33.06.54-.47.82-.62l2.63-.97-.35.43c-.24.34-.17.73-.23,1.09-.05.24-.23.53-.3.78-.05.16-.27.78.02.77.03-.45.31-.9.57-1.26l.51.57.24.09c-.2-.49-.7-.82-.66-1.4.02-.18.12-.47.23-.61.06-.07.71-.63.75-.63.29-.03.82.75,1.08.96.54.46.81.4,1.38.67.78.36,1.53,1.05,2.47,1.44.09.04.16.08.27.06.07-.06-.2-.29-.24-.33Z"/></g></svg>