<?xml version="1.0" encoding="UTF-8"?><svg id="mountains" xmlns="http://www.w3.org/2000/svg" viewBox="0 0 36.83 17.84"><defs><style>.cls-1{fill:#e8dec4;}</style></defs><g id="big"><polygon id="bg" class="cls-1" points="31.8 13.49 30.57 11.73 27.98 9.53 24.65 4.35 23 3.03 22.62 2.08 21.37 .49 18.64 4.06 15.8 5.6 14.95 3.47 13.29 2.26 12.64 0 11.39 3.41 8.64 6.91 7.03 10.13 4.13 13 2.93 14.65 1.38 16.1 0 17.84 36.83 17.84 31.8 13.49"/><path id="mountain" d="M21.75,7.17c.07.71,1.11,2.24,1.55,2.88.33.48.74.9,1.07,1.38l-.67-.61-.82-.99-.09.29c-.13-.29-.17-.61-.3-.9-.15-.34-.47-.66-.64-.99-.13-.25-.19-.49-.31-.74-.5.58-.95,1.37-1.07,2.13-.04.28-.03.63-.07.92-.06.41-.23.94-.22,1.35.02.65,1.09,1.57,1.39,2.16.01.04-.06.04-.09.03-.15-.07-.46-.5-.58-.64-.81-.88-1.33-1.84-2.02-2.82-1.04-1.47-3-3.7-3.55-5.32-.2-.6-.18-1.07-.61-1.61-.08-.1-.82-.85-.88-.87-.07-.03-.11.01-.09.09.06.19.33.47.41.64,0,.03.02.1-.03.09-.32-.4-.64-.9-.84-1.38s-.24-1.08-.59-1.48c-.28,1.21.24,2.31.58,3.44l-.3-.54c-.2-.33-.2-.83-.46-1.09l-.63,1.65c.5,1.1,1.22,2.07,1.92,3.05-.11-.01-.25-.18-.32-.26-.29-.33-.55-.78-.85-1.08-.06-.06-.08-.11-.17-.09.05.52.11,1.15.32,1.63.26.58.82.75,1.23,1.17.28.28.54.74.81,1.05.74.85,1.53,1.66,2.25,2.54-.11.06-.3-.13-.38-.2-.89-.77-1.57-1.72-2.36-2.54-.06-.06-.08-.11-.17-.09.02.25-.04.53,0,.77s.35.49.39.74c-.25-.07-.28-.57-.52-.44-.11.06-.69.56-.78.68-.19.22-.53.78-.5,1.07.04.41,1.01,1.71,1.31,2.08.23.28.65.56.73.93-.83-.78-1.77-1.65-2.16-2.74-.09-.02-.13,0-.21.06-.07.04-.79.77-.81.82-.15.34.31.9.5,1.18.58.84,1.29,1.82,1.97,2.58.12.13.37.19.35.44-.56-.27-.87-.82-1.31-1.22-.16-.01-.05.03-.04.1,0,.13.06.27.07.4,0,.07.05.21-.05.2-.14-.37-.16-.79-.34-1.15-.24-.49-.77-1.06-1.09-1.54-.17-.25-.24-.61-.56-.73-.24.13-.57.13-.8.25-.5.26-1.53,2.11-1.54,2.67,0,.22.1.44.06.67l-.2-.47-.96,1.19c.32-.93.3-.52.73-1.43l.73-1.69c-.92.65-1.53,1.65-2.42,2.33l-.03-.09c.95-.91,1.77-2.09,2.77-2.94s1.94-.7,2.8-1.81c.15-.2.35-.56.38-.81l-1.43,1.17c-.13.01-.09-.02-.04-.1.15-.23.69-.57.92-.8.27-.26.56-.68.87-.91.73-.54,1.03-.26.9-1.49-.07-.74-.55-.88-1.02-1.31-.12-.11-.18-.23-.26-.31-.05-.05-.04-.05-.12-.04-.34,1.06-1.11,2.04-1.76,2.93-.34.47-.69.98-1.1,1.38.04-.19.19-.39.29-.56.62-1,2.2-2.8,2.37-3.87.1-.63-.14-2.21-.41-2.8-.04-.09-.16-.38-.23-.41-.08-.04-.17.19-.21.25-.47.79-.86,1.51-1.4,2.27-.39.55-.77,1.17-1.27,1.61l1.56-2.37c.72-1.51,2.06-2.91,2.13-4.64,0-.09.09-.13-.05-.22-.54,1.11-.99,2.26-1.67,3.28-.65.97-1.43,1.85-2.06,2.84-.48.76-.86,1.58-1.35,2.32-.52.78-1.18,1.44-1.74,2.17-.4.52-.68,1.2-1.23,1.63-.04,0-.04-.06-.03-.09.06-.14.72-.92.64-1.02-1.02.75-1.5,2.02-2.45,2.89-.21.19-.49.34-.7.52-.67.6-1.07,1.22-1.63,1.89-.02.03-.08.09-.17.11.36-.58.76-1.16,1.2-1.68s1.05-.88,1.52-1.4c.54-.6.91-1.34,1.43-1.95.55-.64,1.33-1.18,1.9-1.84,1.08-1.26,1.7-2.69,2.59-4.06,1.17-1.79,2.26-2.97,3.16-5,.23-.51.43-1.35.68-1.77.04-.07.06-.14.16-.14.14,0,.33.42.39.55.24.49.38,1.29.64,1.69.22.34.96.85,1.28,1.23.52.63.52,1.41.85,2.13.31-.21.57-.49.88-.69.45-.3.99-.47,1.44-.78.59-.4,2.44-2.67,2.79-3.33.08-.14.17-.64.32-.68.18-.05.37.39.47.51.29.36.79.84,1.01,1.21.27.48.15.86.66,1.27.78.63,1.12.75,1.73,1.65,1.17,1.7,1.79,3.36,3.34,4.83.75.72,1.58,1.37,2.28,2.16.47.52.85,1.13,1.34,1.64.83.86,1.81,1.53,2.69,2.33.07.07,2.15,2.05,2.08,2.12-1.2-1.03-4.19-3.43-5.27-4.6-.36-.39-.66-.86-1.02-1.26-1.09-1.21-2.66-2.32-3.56-3.61-.46-.66-.92-1.4-1.37-2.08-.66-1.01-1.17-2.3-2.37-2.79-.11.11.74,1.5.93,1.66-.08.07-.26-.1-.31-.15-.32-.33-.89-1.34-1.08-1.78-.17-.4-.2-.88-.37-1.21s-.6-.69-.84-.97c-.02.71-.28,1.5-.32,2.18,0,.15,0,.3.02.45.13.93,1.95,3.29,2.67,3.98.23.23,1.26.99,1.34,1.17.01.03.01.1-.03.09-.92-.6-1.91-1.39-2.55-2.29-.26-.37-.48-.87-.75-1.23-.05-.07-.06-.12-.17-.1.04.59-.06,1.25,0,1.84l-.03.03ZM19.01,6.21c.02-.16.13-.32.21-.46.41-.7,1.44-1.79,1.69-2.45.12-.33.41-1.93.38-2.25,0-.08-.01-.15-.09-.2-.27.66-.82,1.13-1.25,1.66s-.8,1.09-1.31,1.55l-1.03,1.69-.11-.08.69-1.11s-.05-.04-.09-.03c-.22.04-1.2.58-1.42.73-.12.08-.73.57-.76.65l3.96,5.79.41-2.51c-.12-.13-.78.88-.9.93-.09-.13.08-.31.16-.43,1.01-1.57,2.13-2.1,1.91-4.26-.06-.57-.44-1.06-.46-1.63l-.15-.04s-1.84,2.45-1.84,2.45Z"/></g></svg>