<?xml version="1.0" encoding="UTF-8"?><svg id="mountains" xmlns="http://www.w3.org/2000/svg" viewBox="0 0 22.01 11.75"><defs><style>.cls-1{fill:#e8dec4;}</style></defs><g id="small"><polygon id="bg" class="cls-1" points="22 11.75 20.79 10.7 20.08 9.79 18.54 8.72 17.24 6.87 16.07 6.04 15.19 6.67 13.51 4.09 12.4 3.85 10.74 .73 8.4 5.11 5.32 8.57 2.63 9.88 1.89 9.77 1.53 10 .68 11.1 0 11.75 22 11.75"/><path id="mountain" d="M22,11.75c-.22-.15-.94-.78-1.13-.95-.25-.22-.45-.56-.67-.8-.6-.64-1.41-.77-1.97-1.47-.3-.38-.81-1.51-1.1-1.68-.16-.09-.34-.09-.52-.23-.09-.07-.34-.35-.42-.37-.13-.02-.12.45-.09.56.15.45.56.48.83.8.1.12.19.28.28.4.01.02.22.21.08.17-.16-.05-.48-.5-.63-.63-.07-.06-.27-.2-.34-.25-.04-.02-.06-.04-.11-.03l-.03.42c.24.4.59.74.87,1.13l-.07.05c-.6-.62-1.23-1.28-1.75-1.97-.59-.78-.96-1.63-1.51-2.43-.07-.11-.15-.2-.24-.29-.06-.02-.07.18-.07.2,0,.33.16.31.25.53.07.19.05.4.1.56.04.12.3.31.24.53-.05.06-.32-.28-.38-.33-.3-.27-.41-.24-.65-.63-.28-.45-.65-.94-.89-1.39-.21-.41-.3-.86-.5-1.25-.08-.16-.21-.3-.3-.46-.03-.06-.4-.97-.48-.91-.07.24-.02.5,0,.74.04.74.14.63.37,1.23.08.21.11.47.18.69.11.34.35.72.45,1.05.02.07.04.13.03.2-.09-.11-.17-.25-.24-.37-.35-.6-.37-.9-.59-1.51-.09-.24-.28-.48-.3-.75-.05-.01-.06.02-.09.05-.33.33-.5.8-.56,1.26-.02.21.06.96.14,1.16.11.28.51.32.74.48.18.14.25.48.34.69.22.47.58.77.8,1.23.15.32.39,1.23.57,1.42.08.09.43.19.58.27.33.18.97.77,1.23,1.05.02.03.27.32.25.33-.06.01-.09-.01-.12-.04-.48-.35-.95-.94-1.45-1.21-.09-.05-.25-.14-.35-.15-.06,0-.06.02-.04.07.03.11.13.27.17.39s.07.26.12.38c.04.11.14.22.16.3,0,.01.04.19-.02.15-.28-.32-.36-.71-.53-1.1-.19-.43-.32-.77-.48-1.21-.28-.73-.53-.92-.89-1.51-.14-.22-.3-.77-.42-.9-.14-.15-.47-.2-.64-.33,0,.27-.02.41-.18.64-.05.07-.15.14-.19.19-.08.14-.11,1.2-.09,1.41.03.38.24.5.35.81.1.27.09.63.16.93.02.09.18.48.18.51,0,.02-.04.06-.07.01-.09-.11-.26-.53-.29-.68-.06-.27-.07-.93-.29-1.12-.02-.02-.06-.03-.06,0l-.22.82c-.15-.07-.08-.33-.06-.48.06-.37.12-.42.12-.82,0-.32-.01-1.28.14-1.52.11-.16.3-.25.33-.48.05-.46-.24-1.15-.22-1.59,0-.19.16-.81.24-.98.11-.24.38-.43.46-.69.06-.18.02-.37.07-.55l-.03-.3c-.64,1.24-1.2,2.54-1.96,3.72-.22.35-.47.72-.75,1.03-.25.28-.61.52-.83.8-.26.33-.44.74-.74,1.08-.32.37-.74.64-1.08,1.02-.22.24-.37.5-.63.72-.09.08-.59.46-.68.48-.02,0-.05,0-.04-.01.36-.37.85-.65,1.07-1.14-.25.11-.46.28-.71.4-.46.22-1,.27-1.42.58l2.16,1.26-.93-.37c-.32-.19-.76-.54-1.09-.66-.11-.04-.82-.23-.9-.22-.13.02-.24.4-.24.52,0,.09.1.16.12.25.02.12-.01.27.07.38-.18.02-.15-.38-.24-.41l-.08.02c-.03.07-.06.2-.15.2,0-.15.08-.28.12-.43.01-.06,0-.13.02-.2,0-.03.14-.29.03-.25-.07.03-.39.55-.47.65-.26.34-.74.87-1.13,1.05-.03.01-.07.05-.1.04.14-.25.42-.44.63-.67.26-.29.77-1.17,1.03-1.31.4-.22.64.06.91,0,.11-.02.45-.26.62-.32.88-.33,1.38-.5,2.16-1.07s.92-1,1.51-1.72c.22-.27.55-.5.8-.77.76-.84,1.39-2.11,1.91-3.13.32-.61.66-1.57,1.07-2.09.07-.09.12-.14.22-.03.26.33.44.82.63,1.18.07.13.17.24.24.36.21.4.4,1.18.65,1.47s.94.1,1.27.39c.17.15.72.98.83,1.2.07.14.09.3.16.43.14.27.4.55.56.82h.09c.19-.13.57-.6.79-.58.22.02.56.5.77.61.11.06.24.07.35.12.43.21.94,1.51,1.4,1.98.39.4,1.09.64,1.54,1.03.32.28.55.69.84,1,.14.15.89.8,1,.95.03.04.06.07.04.12h0ZM13.33,4.12c-.25-.06-.51-.06-.77-.09-.04,0-.06,0-.04.04.02.09.17.19.23.27.28.37.38.91.83,1.09.02-.02-.04-.37-.06-.42-.04-.13-.19-.24-.22-.35-.03-.15,0-.39.02-.54h0ZM16.02,6.15l-.68.55.66.83c.17,0-.11-.81-.11-.89,0-.17.12-.32.13-.48Z"/></g></svg>