<?xml version="1.0" encoding="UTF-8"?><svg id="mountains" xmlns="http://www.w3.org/2000/svg" viewBox="0 0 24.82 16.41"><defs><style>.cls-1{fill:#e8dec4;}</style></defs><g id="medium"><polygon id="bg" class="cls-1" points=".02 16.41 .96 14.8 3.06 13.21 5.17 10.8 6.5 8.8 7.62 7.12 8.88 5.33 10.71 1.77 11.62 0 13.2 4.63 14.49 6.14 15.61 5.48 17.7 8.1 21.14 12.26 24.82 16.41 .02 16.41"/><g id="mountain"><path d="M11.8.08c.15.13.31.54.38.73.36.94.72,3.23,1.22,3.89.15.21.43.32.62.52.1.11.45.67.5.69.15,0,.25-.1.39-.14.13-.04.28-.03.38-.07.2-.07.23-.27.52-.15.47.2,1.09,1.62,1.45,2.07.2.24.46.35.64.55s.31.54.48.76c.84,1.16,2.02,1.98,2.81,3.09.61.85.97,1.39,1.71,2.18.55.59,1.1,1.22,1.92,2.21-.84-.4-1.81-1.53-2.43-2.22s-.93-1.35-1.45-2.07c-.82-1.14-2-1.98-2.86-3.14-.22-.3-.33-.76-.77-.84-.03.03.17.39.21.46.02.04.1.16-.01.11-.23-.32-1.52-2.76-1.71-2.8-.06-.01-.09.04-.12.08l.44,1.8s-.12-.06-.15-.09c-.2-.19-.42-1.12-.48-1.44-.02-.1-.01-.21-.01-.31-.14.03-.82.07-.79.26.89,1.47,1.82,2.89,3.02,4.12-.05.08-.11-.02-.15-.05-.64-.53-1.28-1.27-1.78-1.94s-1.58-2.75-2.12-3.13c-.08-.06-.15-.13-.26-.11l.2.52c.01.14-.06.04-.09,0-.25-.4-.37-.92-.6-1.33l-.99-3.44-.13.68c-.09.34-.31.63-.44.95-.75,1.92,1.09,3.57,2.08,5.01.04.06.09.11.08.19-.75-.68-1.32-1.54-1.96-2.33-.08.54-.25,1.2-.16,1.75s.62,1.47.94,1.94c.64.94,1.47,1.67,2.27,2.46l-1.29-.99s.18.69.22.79c.08.19.26.38.25.55-.41-.36-.44-.89-.64-1.34-.21-.47-.6-.83-.89-1.24-.41-.59-.77-1.21-1.05-1.88-.39.42-.79.6-1.02,1.16-.49,1.21.02,2,.74,2.95-.06.06-.31-.23-.35-.27-.25-.29-.42-.64-.62-.96-.16.22-.19.44-.39.65-.24.24-.91.54-1.04.79-.06.11-.31,1.2-.32,1.37-.01.15-.01.23.07.36.13.2.56.7.74.89.29.32.64.57.92.89-.21.02-.78-.7-.89-.59.03.39.23.74.36,1.11.09.24-.12.06-.2-.05-.41-.52-.33-.95-.59-1.44-.15-.27-.45-.5-.63-.76-.07.16-1.54,1.72-1.61,1.63.23-.52.76-.88,1.12-1.34.47-.6.59-1.19.72-1.93-.09-.02-.12.05-.17.1-.16.14-.32.38-.49.55-.42.41-.87.79-1.34,1.14l-.02-.07c.49-.42.94-.88,1.39-1.34.21-.21.43-.56.64-.75.5-.46,1.17-.55,1.41-1.32.1-.33.14-.98.18-1.36,0-.05.04-.13-.04-.12-.57.96-1.49,1.64-2.21,2.48l-.02-.07c.5-.61,1.1-1.17,1.58-1.79.3-.37.52-.81.82-1.16.45-.53.98-.65,1.11-1.42.18-1.08.05-1.56-.13-2.59-.02-.13-.06-.76-.14-.75l-.5.59s-.03-.05-.02-.07c.07-.17.31-.44.41-.64.26-.53.97-1.83.98-2.34,0-.1.02-.23-.1-.27-.33.88-1.03,1.6-1.5,2.39-.38.66-.61,1.4-.94,2.08-.27.57-.69,1.15-.93,1.7-.19.44-.17.78-.16,1.26l-.12-.1-.72,1.09c.13-.66.69-1.18.64-1.88-.05-.05-.26.18-.3.22-.31.35-.5.92-.8,1.33-.19.26-.42.44-.61.73-.25.4-.33.81-.53,1.2-.31.6-1.14,1.15-1.58,1.69-.47.58-.86,1.35-1.34,1.93-.05.06-.12.12-.17.17-.06-.24.24-.45.27-.69-.04-.04-.72.29-.8.37-.29.3.11.82-.37,1.12-.06-.29.23-.62.05-.89-.44.47-.75,1.07-1.19,1.54-.05.06-.35.37-.42.3-.03-.1.03-.13.07-.2.28-.48,1.25-1.79,1.69-2.08.4-.27.89-.38,1.27-.72.33-.29.5-.69.77-1.02.38-.47,1.02-.95,1.34-1.39.28-.39.39-.97.67-1.41.2-.32.47-.55.69-.85.29-.39.46-.9.73-1.25.17-.21.4-.33.56-.53.69-.82,1.13-2.2,1.59-3.16s1.07-1.66,1.6-2.51c.12-.19.48-1.04.66-1.08.05-.01.11.02.15.06h-.02Z"/></g></g></svg>