<?xml version="1.0" encoding="UTF-8"?><svg xmlns="http://www.w3.org/2000/svg" viewBox="0 0 20.02 7"><g transform="matrix(0.8019,0,0,0.8019,-465.403,-84.165)"><g transform="matrix(3.7794642857142855,0,0,3.7794642857142855,0,0.007366071428562141)"><path style="fill:#3a2c1a" d="m 153.81877,29.769815 c 0,-0.02002 0.29527,-0.197123 0.65617,-0.393559 0.36089,-0.196435 0.92406,-0.521704 1.25148,-0.72282 1.22588,-0.752978 1.73278,-0.800352 2.76811,-0.258705 0.86138,0.450642 1.44955,0.817732 1.396,0.871277 -0.0221,0.02213 -0.53702,-0.171122 -1.1442,-0.429445 -0.62548,-0.266105 -1.23074,-0.469678 -1.39645,-0.469678 -0.41303,0 -0.84869,0.17095 -1.6029,0.628967 -0.87659,0.532333 -1.92821,0.954443 -1.92821,0.773963 z" id="path17"></path></g></g></svg>