<svg width="111" height="111" viewBox="0 0 111 111" fill="none" xmlns="http://www.w3.org/2000/svg">
<path d="M26.2797 62.6815C29.9253 75.879 43.0023 84.8423 57.4149 83.2578C73.3637 81.5039 84.91 67.498 83.2035 51.974C81.4968 36.4498 67.1834 25.2859 51.2344 27.0389C39.3578 28.3445 29.9237 36.4454 26.5841 46.9073C29.8909 35.7359 39.6204 27.0748 51.9267 25.7219C68.295 23.9226 83.0232 35.7331 84.8228 52.1015C86.6223 68.4699 74.8117 83.198 58.4433 84.9976C43.4639 86.6444 29.8604 76.8931 26.2797 62.6815Z" fill="white"/>
<path d="M67.7243 62.0582C68.5823 62.8122 69.4923 63.0722 70.2203 63.0722C71.2083 63.0722 72.0403 62.2922 72.7163 60.6802L73.0803 59.8742L68.9983 50.5402C68.4523 49.2922 67.7763 48.5642 67.2043 48.5122V48.1482H73.1323V48.5122C72.2483 48.5642 71.7803 48.9022 71.7803 49.4482C71.7803 49.6302 71.8323 49.8382 71.9363 50.0722L74.5883 56.3902L76.9543 50.9562C77.2403 50.3582 77.3703 49.8902 77.3703 49.5522C77.3703 48.8502 76.8763 48.5902 75.9143 48.5122V48.1482H79.7883V48.5122C79.0863 48.6162 78.4623 49.2402 77.6043 51.0602L73.3663 60.7842C71.8583 64.1642 70.5843 65.4642 68.5043 65.4642C68.0363 65.4642 67.4903 65.3082 66.8403 64.9962L67.7243 62.0582Z" fill="white"/>
<path d="M61.998 51.4501C62.648 49.1881 64.026 47.7841 65.508 47.7841C65.846 47.7841 66.21 47.8621 66.574 48.0441L66.34 50.6701C65.898 50.3321 65.326 50.1501 64.754 50.1501C63.402 50.1501 62.024 51.1901 61.998 53.7901V58.1841C61.998 59.0681 62.622 59.4581 64.104 59.5881V59.9521H57.76V59.5881C58.774 59.4321 59.164 59.0421 59.164 58.1841V50.6701C59.164 49.8121 58.826 49.3701 57.916 49.2921L57.604 49.2661V48.9021L61.998 47.7581V51.4501Z" fill="white"/>
<path d="M50.5343 60.3161C47.0243 60.3161 44.6323 57.7681 44.6323 54.0501C44.6323 50.3061 47.0243 47.7581 50.5343 47.7581C54.0703 47.7581 56.4623 50.3061 56.4623 54.0501C56.4623 57.7681 54.0703 60.3161 50.5343 60.3161ZM47.6483 54.0501C47.6483 57.6641 48.7143 59.6661 50.5343 59.6661C52.3803 59.6661 53.4463 57.6641 53.4463 54.0501C53.4463 50.4361 52.3803 48.4081 50.5343 48.4081C48.7143 48.4081 47.6483 50.4361 47.6483 54.0501Z" fill="white"/>
<path d="M43.7907 58.4701C43.2967 59.4841 42.1267 60.2901 40.7227 60.2901C38.6427 60.2901 37.4467 58.9901 37.4467 56.6761V48.7981H35.8867V48.4341C37.2647 47.3161 38.5647 46.1721 39.9167 44.4041H40.2807V48.1481H43.5827V48.7981H40.2807V56.7021C40.2807 58.1581 40.9047 58.9641 42.1527 58.9641C42.6727 58.9641 43.1667 58.7301 43.5307 58.3141L43.7907 58.4701Z" fill="white"/>
<path d="M26.1983 55.9742C27.0303 58.3922 28.5643 59.6402 30.2283 59.6402C31.6323 59.6402 32.5683 58.8342 32.5683 57.6122C32.5683 54.2322 25.6003 56.3122 25.6003 51.2682C25.6263 49.1102 27.4203 47.7842 30.1243 47.7842C31.8923 47.7842 33.0883 48.0962 33.9203 48.5642L33.6863 51.5802H33.3223C32.8283 49.6042 31.5803 48.4342 29.9163 48.4342C28.6423 48.4342 27.7843 49.1622 27.7843 50.2282C27.7843 53.4002 34.7263 51.5802 34.7263 56.4942C34.7263 58.8342 32.8023 60.3162 30.1503 60.3162C27.8883 60.3162 26.2243 59.6662 25.5483 59.0942L25.8343 55.9742H26.1983Z" fill="white"/>
<path d="M22.2871 58.1841C22.2871 59.0421 22.6771 59.4321 23.7171 59.5881V59.9521H18.0491V59.5881C19.0631 59.4321 19.4531 59.0421 19.4531 58.1841V50.6701C19.4531 49.8121 19.1151 49.3701 18.2051 49.2921L17.8931 49.2661V48.9021L22.2871 47.7581V58.1841Z" fill="white"/>
<path d="M15.4051 58.1841C15.4051 59.0421 15.7951 59.4321 16.8351 59.5881V59.9521H11.1671V59.5881C12.1811 59.4321 12.5711 59.0421 12.5711 58.1841V52.0221C12.5711 50.3321 11.7131 49.5781 10.4651 49.5781C9.13907 49.5781 7.81307 50.5401 7.81307 52.7241V58.1841C7.81307 59.0421 8.20307 59.4321 9.21707 59.5881V59.9521H3.54907V59.5881C4.58907 59.4321 4.97907 59.0421 4.97907 58.1841V44.6381C4.97907 43.7801 4.61507 43.3381 3.70507 43.2601L3.39307 43.2341V42.8701L7.81307 41.7261V50.7741C8.46307 48.9281 9.89307 47.7581 11.8431 47.7581C14.0271 47.7581 15.4051 49.2141 15.4051 51.7881V58.1841Z" fill="white"/>
<path d="M20.8706 41.0803C21.9741 41.0803 22.8569 41.9488 22.8569 43.1067C22.8567 44.2381 21.9739 45.0803 20.8706 45.0803C19.7122 45.0803 18.8571 44.238 18.8569 43.1067C18.8569 41.9488 19.7121 41.0804 20.8706 41.0803Z" fill="white"/>
<path d="M63.0083 69.9521V64.2412H63.3911V69.585H65.0005V69.9521H63.0083Z" fill="white"/>
<path d="M61.9888 69.9521L61.4849 67.8818H60.0981L59.6021 69.9521H59.2036L60.5786 64.2412H60.9731L62.3794 69.9521H61.9888ZM61.395 67.4951L60.8911 65.3662C60.839 65.1266 60.7987 64.9001 60.77 64.6865C60.7466 64.9131 60.7101 65.1396 60.6606 65.3662L60.1724 67.4951H61.395Z" fill="white"/>
<path d="M57.9966 69.9521H57.6138V64.6084H56.4771V64.2412H59.1333V64.6084H57.9966V69.9521Z" fill="white"/>
<path d="M54.0317 67.4561V69.9521H53.6489V64.2412H54.4302C54.9875 64.2412 55.395 64.3727 55.6528 64.6357C55.9106 64.8988 56.0396 65.292 56.0396 65.8154C56.0396 66.2113 55.9692 66.5368 55.8286 66.792C55.688 67.0472 55.4523 67.2386 55.1216 67.3662L56.2544 69.9521H55.8247L54.7583 67.4561H54.0317ZM54.0317 67.1045H54.5669C54.9132 67.1045 55.1802 66.9977 55.3677 66.7842C55.5552 66.5706 55.6489 66.2529 55.6489 65.8311C55.6489 65.4014 55.5526 65.0915 55.3599 64.9014C55.1698 64.7113 54.869 64.6162 54.4575 64.6162H54.0317V67.1045Z" fill="white"/>
<path d="M52.5864 67.0889C52.5864 68.0342 52.4445 68.7607 52.1606 69.2686C51.8794 69.7764 51.4718 70.0303 50.938 70.0303C50.3989 70.0303 49.9901 69.7751 49.7114 69.2646C49.4328 68.7516 49.2935 68.0238 49.2935 67.0811C49.2935 66.0967 49.4315 65.3636 49.7075 64.8818C49.9836 64.4001 50.3976 64.1592 50.9497 64.1592C51.481 64.1592 51.8859 64.4131 52.1646 64.9209C52.4458 65.4261 52.5864 66.1488 52.5864 67.0889ZM49.6919 67.0889C49.6919 67.9378 49.7974 68.5798 50.0083 69.0146C50.2218 69.4469 50.5317 69.6631 50.938 69.6631C51.3468 69.6631 51.6567 69.4482 51.8677 69.0186C52.0812 68.5889 52.188 67.9456 52.188 67.0889C52.188 66.2425 52.0838 65.6045 51.8755 65.1748C51.6672 64.7425 51.3586 64.5264 50.9497 64.5264C50.5304 64.5264 50.2153 64.7451 50.0044 65.1826C49.7961 65.6175 49.6919 66.2529 49.6919 67.0889Z" fill="white"/>
<path d="M48.5942 65.8818C48.5942 66.4704 48.4588 66.9027 48.188 67.1787C47.9198 67.4548 47.5213 67.5928 46.9927 67.5928H46.5864V69.9521H46.2036V64.2412H46.9849C47.5422 64.2412 47.9497 64.3727 48.2075 64.6357C48.4653 64.8988 48.5942 65.3141 48.5942 65.8818ZM46.5864 67.2412H46.9692C47.4172 67.2412 47.7349 67.1357 47.9224 66.9248C48.1099 66.7139 48.2036 66.3662 48.2036 65.8818C48.2036 65.4209 48.106 65.0915 47.9106 64.8936C47.7179 64.693 47.4185 64.5928 47.0122 64.5928H46.5864V67.2412Z" fill="white"/>
</svg>
