<?xml version="1.0" encoding="UTF-8"?><svg xmlns="http://www.w3.org/2000/svg" viewBox="0 0 47.84 18"><g transform="matrix(0.3715,0,0,0.3715,-222.336,-186.185)"><g transform="matrix(3.7794642857142855,0,0,3.7794642857142855,0,0.007366071428562141)"><path style="fill:#3a2c1a" d="m 158.59555,145.1211 c 4e-4,-0.0335 0.27662,-0.22929 0.61383,-0.43518 0.33721,-0.20588 1.05126,-0.66103 1.58678,-1.01145 0.61902,-0.40506 1.34373,-0.78727 1.98967,-1.04937 1.34871,-0.54726 1.63927,-0.72707 2.49343,-1.54296 0.39815,-0.38031 1.02898,-0.92137 1.40186,-1.20234 0.84984,-0.6404 1.17078,-1.00849 1.64856,-1.89073 0.23793,-0.43935 0.63219,-0.97193 1.05834,-1.42961 0.43563,-0.46788 0.97643,-1.20183 1.50828,-2.047 0.87192,-1.38556 1.24053,-1.63227 2.38819,-1.59843 0.1397,0.004 0.61902,-0.0189 1.06514,-0.0511 1.2159,-0.0878 1.66449,0.22932 2.34486,1.65775 0.36036,0.75657 0.71617,1.22552 1.12625,1.48439 0.41608,0.26266 0.76726,0.94957 0.95705,1.87197 0.14638,0.71145 0.27953,0.99321 0.79384,1.67988 0.20927,0.2794 0.4399,0.63182 0.51252,0.78316 0.15076,0.31419 0.17736,0.31971 0.68662,0.14238 0.27972,-0.0974 0.53789,-0.11606 1.02194,-0.0738 0.51277,0.0447 0.7875,0.0206 1.31906,-0.11582 1.17644,-0.30195 1.39556,-0.28572 1.97453,0.14625 0.36799,0.27456 0.60925,0.37006 1.39828,0.55355 1.27122,0.29562 2.38536,0.85027 3.39458,1.68994 0.4191,0.34868 1.11326,0.85486 1.54258,1.12484 0.42932,0.26997 0.74693,0.50246 0.70581,0.51665 -0.17074,0.0589 -1.55038,-0.73006 -2.41772,-1.38256 -1.36582,-1.0275 -3.42288,-1.91663 -3.63609,-1.57165 -0.0574,0.0929 -0.96194,-0.418 -1.194,-0.67442 -0.21242,-0.23473 -0.34647,-0.20463 -0.4533,0.10181 -0.19205,0.55092 -0.14537,0.64123 0.81722,1.58108 0.64476,0.62953 0.79301,0.80655 0.50838,0.60706 -0.22098,-0.15488 -0.46501,-0.35147 -0.54229,-0.43686 -0.37268,-0.4118 -0.36671,-0.0989 0.0125,0.65394 0.16284,0.32329 0.29619,0.71286 0.29633,0.8657 1.5e-4,0.15283 0.0584,0.41953 0.12944,0.59266 0.12917,0.31478 0.12917,0.31478 -0.0748,0.0631 -0.11217,-0.13841 -0.18587,-0.29877 -0.16378,-0.35634 0.0593,-0.15444 -0.13115,-0.69332 -0.39845,-1.12765 -0.12896,-0.20955 -0.29795,-0.57751 -0.37552,-0.81768 -0.21021,-0.6508 -0.5071,-0.94407 -0.74572,-0.73662 -0.18093,0.1573 -0.18093,0.1573 -0.008,-0.0967 0.15991,-0.23525 0.45201,-0.98843 0.45201,-1.16553 0,-0.0898 -0.52922,-0.0162 -1.15678,0.16089 -0.30511,0.0861 -0.75758,0.1158 -1.49828,0.0983 -1.48689,-0.0351 -1.389,0.93943 0.13224,1.31648 0.12586,0.0312 0.46876,0.24661 0.762,0.47869 0.29324,0.23209 0.72366,0.52211 0.95649,0.64451 0.5129,0.26961 1.40222,0.89233 1.57078,1.09989 0.1413,0.17399 0.0887,0.14897 -0.42778,-0.20354 -0.16298,-0.11123 -0.56303,-0.33579 -0.889,-0.49901 -0.32597,-0.16322 -0.85937,-0.49599 -1.18533,-0.73949 -0.32597,-0.24351 -0.78317,-0.51133 -1.016,-0.59516 -0.54732,-0.19707 -1.28554,-0.94275 -1.88931,-1.9084 -0.24749,-0.39581 -0.57558,-0.89704 -0.7291,-1.11384 -0.2009,-0.28369 -0.34145,-0.64881 -0.50146,-1.30268 -0.24359,-0.99536 -0.40144,-1.32914 -0.75225,-1.59062 -0.37315,-0.27814 -0.36672,-0.10387 0.0198,0.53581 0.19878,0.32898 0.34548,0.61408 0.32601,0.63355 -0.087,0.087 -0.71586,-0.90264 -0.92186,-1.45083 -0.12516,-0.33308 -0.30638,-0.71628 -0.4027,-0.85154 -0.0963,-0.13527 -0.24134,-0.4152 -0.32227,-0.62206 -0.24015,-0.61386 -0.63446,-1.11595 -0.83586,-1.06432 -0.0944,0.0242 -0.37998,0.10321 -0.6346,0.1756 -0.29512,0.0839 -0.80924,0.1316 -1.41817,0.1316 -1.126,0 -1.23143,0.15137 -0.65364,0.93847 0.16586,0.22595 0.39394,0.64652 0.50683,0.9346 0.1129,0.28807 0.26599,0.61644 0.3402,0.7297 0.21153,0.32283 0.0866,0.31266 -0.20244,-0.0165 -0.14394,-0.16394 -0.30416,-0.46049 -0.35605,-0.65901 -0.0993,-0.37994 -0.58008,-1.24995 -0.69072,-1.24995 -0.35709,0 -0.46952,1.31262 -0.16779,1.95906 0.11806,0.25295 0.21463,0.70492 0.27133,1.27 0.17075,1.70142 0.24631,2.109 0.45799,2.47045 0.20792,0.35502 0.82281,2.01965 0.76674,2.07571 -0.0479,0.0479 -0.30514,-0.47736 -0.63584,-1.29816 -0.39807,-0.98802 -0.44386,-0.98527 -1.057,0.0633 -0.27914,0.47737 -0.67919,1.05971 -0.889,1.29409 -0.20982,0.23438 -0.48756,0.55823 -0.61719,0.71967 -0.2357,0.29352 -0.2357,0.29352 -0.009,-0.0875 0.12479,-0.20955 0.36813,-0.55245 0.54077,-0.762 1.15463,-1.4015 1.38633,-2.06147 1.2811,-3.64894 -0.12651,-1.90843 -0.34824,-2.62154 -0.65994,-2.12244 -0.0872,0.13956 -1.24397,1.61394 -1.77143,2.25771 -0.54622,0.66668 0.16543,-0.48919 0.85453,-1.38792 0.81849,-1.06749 0.93855,-1.29877 1.01922,-1.96337 0.0368,-0.30333 0.13969,-0.57931 0.3037,-0.81478 0.27268,-0.39149 0.26689,-0.72281 -0.0153,-0.87383 -0.223,-0.11934 -0.20498,-0.13606 -0.5727,0.5314 -0.60203,1.09275 -1.18015,1.90621 -1.90651,2.68263 -0.48454,0.51793 -0.82607,0.98088 -1.07113,1.45191 -0.45479,0.87417 -0.77695,1.23007 -1.77949,1.96585 -0.44238,0.32468 -1.10913,0.88478 -1.48166,1.24467 -0.72946,0.7047 -1.20028,0.98112 -2.60096,1.52698 -0.46532,0.18134 -1.19798,0.5577 -1.62813,0.83635 -1.07817,0.69844 -2.50287,1.43644 -2.50119,1.29562 z m 21.07032,-2.2517 c -0.38979,-0.34349 -0.84001,-0.76259 -1.00049,-0.93133 -0.73515,-0.77303 -0.58584,-0.12597 0.29065,1.25952 0.16068,0.254 0.16068,0.254 -0.11021,0.005 -0.37299,-0.34321 -0.69299,-1.01567 -0.69299,-1.45627 0,-0.40492 -0.4279,-1.66424 -0.70786,-2.08327 -0.68555,-1.02608 -0.91831,-1.51157 -0.98587,-2.05635 -0.0382,-0.30787 -0.12547,-0.62361 -0.19397,-0.70164 -0.2853,-0.325 -0.75657,-1.27464 -0.57768,-1.16408 0.31171,0.19265 0.96421,1.38957 1.03674,1.90179 0.0657,0.46421 0.16469,0.68968 0.61574,1.40309 0.29557,0.46749 0.66325,1.19289 0.81707,1.61199 0.27222,0.74171 0.30678,0.78962 1.29758,1.79917 1.16472,1.18676 1.22636,1.30715 0.21129,0.41264 z" id="path7"></path></g></g></svg>