<?xml version="1.0" encoding="UTF-8"?><svg xmlns="http://www.w3.org/2000/svg" viewBox="0 0 61.96 18"><g transform="matrix(0.4789,0,0,0.4789,-287.490,-186.454)"><g transform="matrix(3.7794642857142855,0,0,3.7794642857142855,0,0.007366071428562141)"><path style="fill:#3a2c1a" d="m 159.15222,112.65679 c 0.0394,-0.0334 1.63902,-1.02242 2.12779,-1.31557 0.17298,-0.10375 0.64928,-0.44353 1.05844,-0.75507 0.96155,-0.73215 1.05445,-0.78844 1.75971,-1.06633 1.17236,-0.46195 6.77854,-3.59807 8.36855,-4.68141 2.32325,-1.58293 2.93376,-1.77645 4.30662,-1.36513 0.2748,0.0823 0.50888,0.072 1.30918,-0.0581 0.83297,-0.13534 1.05978,-0.14373 1.56118,-0.0578 0.32264,0.0553 0.81892,0.10059 1.10285,0.10059 0.28393,0 0.69279,0.0558 0.90859,0.12396 0.2158,0.0682 0.71539,0.22389 1.11019,0.34603 0.8879,0.27469 0.93318,0.29827 1.61051,0.83848 0.30268,0.2414 0.87418,0.64246 1.27,0.89123 0.39582,0.24877 1.09694,0.76914 1.55805,1.15637 1.2595,1.05772 3.69419,2.6906 4.98245,3.34158 0.75825,0.38316 0.8528,0.48914 0.21167,0.23724 -1.19548,-0.46969 -4.13891,-2.3247 -5.45277,-3.43645 -0.28652,-0.24244 -0.97232,-0.73333 -1.524,-1.09087 -0.55169,-0.35754 -1.16281,-0.79663 -1.35804,-0.97575 -0.3755,-0.34451 -0.62188,-0.37157 -1.78286,-0.1958 -0.38297,0.058 -0.43624,-0.0127 1.22767,1.62867 0.82656,0.81536 1.26264,1.27589 0.96907,1.0234 -0.83659,-0.71954 -1.03286,-0.86802 -1.08221,-0.81867 -0.10197,0.10197 0.0867,0.69105 0.34078,1.06386 0.35112,0.51524 0.40509,0.60806 0.35351,0.60806 -0.14291,0 -0.73285,-1.00615 -0.81118,-1.38351 -0.25857,-1.2455 -1.86293,-2.47531 -1.86769,-1.43166 -0.001,0.29775 -0.0645,0.61837 -0.16248,0.8255 -0.16962,0.35844 -0.2335,0.2946 -0.088,-0.088 0.11008,-0.28955 0.16966,-1.38272 0.0784,-1.4391 -0.56269,-0.34777 -3.12768,-0.22416 -3.12768,0.15072 0,0.0408 -0.18513,0.2719 -0.4114,0.51359 -0.30645,0.32733 -0.42509,0.52866 -0.46506,0.78919 -0.10954,0.71402 -0.91636,2.57344 -1.33612,3.07924 -0.13827,0.16662 -0.1296,0.12883 0.0408,-0.17751 0.57802,-1.03947 1.34534,-3.29382 1.12113,-3.29382 -0.0882,0 -0.74146,0.34145 -1.02364,0.53506 -0.254,0.17429 -0.254,0.17429 -0.0847,-0.0231 0.0931,-0.10854 0.51846,-0.42215 0.94517,-0.6969 0.42671,-0.27476 0.87632,-0.6313 0.99914,-0.79232 0.12282,-0.16103 0.29757,-0.29277 0.38833,-0.29277 0.26886,0 0.18837,-0.21151 -0.14011,-0.36815 -0.40504,-0.19315 -0.98234,-0.26643 -1.19639,-0.15188 -0.1417,0.0758 -0.17022,0.0674 -0.16086,-0.0479 0.0154,-0.18891 -0.27204,-0.26015 -1.09054,-0.27033 -0.78451,-0.01 -0.89333,0.0356 -2.18387,0.91034 -2.69098,1.82395 -7.97074,4.74676 -9.71246,5.3767 -0.2106,0.0762 -0.744,0.40467 -1.18533,0.73 -0.44133,0.32533 -1.03102,0.71259 -1.31042,0.86058 -0.2794,0.148 -0.6604,0.37215 -0.84666,0.49812 -0.47746,0.32291 -1.55103,0.85361 -1.30528,0.64524 z m 23.00383,-8.14686 c 0.21889,-0.0928 0.43955,-0.1174 0.72435,-0.0808 0.54333,0.0699 0.44883,-0.0448 -0.25698,-0.31191 -0.95365,-0.36088 -1.49401,-0.48975 -2.06503,-0.4925 -0.29859,-10e-4 -0.82864,-0.0404 -1.17789,-0.0865 -0.60826,-0.0803 -1.44178,0.013 -1.43789,0.16105 0.003,0.096 0.8778,0.4371 1.12035,0.43656 0.30388,-6.6e-4 1.59825,0.22401 2.13787,0.37109 0.57118,0.15568 0.59479,0.15576 0.95522,0.003 z m -14.29022,4.58665 c 0,-0.0455 1.15684,-0.97727 2.34536,-1.88902 0.48225,-0.36994 1.03059,-0.70135 1.43934,-0.86991 0.918,-0.37857 2.11942,-1.06557 2.52297,-1.44269 0.44354,-0.41449 0.60565,-0.49071 1.18958,-0.55934 0.63688,-0.0748 0.56059,0.0855 -0.11153,0.23448 -0.37833,0.0838 -0.57875,0.19331 -0.90872,0.49636 -0.23283,0.21385 -0.63866,0.53373 -0.90183,0.71086 -0.27451,0.18475 -0.6116,0.51531 -0.79071,0.77537 -0.17172,0.24932 -0.48979,0.59732 -0.70684,0.77333 -0.33981,0.27557 -0.3093,0.22681 0.21973,-0.35107 0.75518,-0.82495 0.7025,-0.89917 -0.34124,-0.48081 -0.80477,0.32257 -0.95363,0.41989 -3.29994,2.15734 -0.36089,0.26724 -0.65617,0.46753 -0.65617,0.4451 z" id="path6"></path></g></g></svg>