<?xml version="1.0" encoding="UTF-8"?><svg xmlns="http://www.w3.org/2000/svg" viewBox="0 0 68.89 18"><g transform="matrix(0.5126,0,0,0.5126,-308.677,-158.126)"><g transform="matrix(3.7794642857142855,0,0,3.7794642857142855,0,0.007366071428562141)"><path style="fill:#3a2c1a" d="m 159.65362,90.544669 c 0.0631,-0.07599 0.40337,-0.283322 0.75623,-0.460735 0.555,-0.27905 1.08241,-0.66745 2.32847,-1.714741 0.15158,-0.127393 0.53805,-0.339192 0.85883,-0.470664 0.41632,-0.170623 1.09051,-0.622902 2.35558,-1.580213 1.1609,-0.878487 1.99336,-1.442846 2.413,-1.635886 0.35237,-0.162092 0.94547,-0.477281 1.318,-0.700421 0.88525,-0.530244 1.84086,-0.716553 3.32617,-0.648482 0.93175,0.0427 1.8181,-0.02657 3.65883,-0.285943 0.34925,-0.04921 1.11125,-0.121719 1.69333,-0.161125 1.11012,-0.07515 1.39377,-0.135506 1.98733,-0.42284 0.1991,-0.09638 0.70612,-0.230901 1.12671,-0.298927 0.4206,-0.06803 0.86603,-0.162202 0.98985,-0.209279 0.38413,-0.146045 0.52537,-0.0985 0.90498,0.304647 0.20211,0.214634 0.79492,0.711264 1.31735,1.103621 0.65503,0.491934 1.13457,0.937469 1.54485,1.435284 0.69646,0.845076 0.76943,0.908816 1.9926,1.740614 1.46522,0.996403 1.81869,1.171971 2.64748,1.314993 0.9946,0.171638 3.74485,1.538016 3.74485,1.860516 0,0.05384 -1.22135,-0.615857 -1.651,-0.905289 -0.69897,-0.470865 -1.13726,-0.631449 -2.18905,-0.80205 -0.46539,-0.07549 -0.37682,0.03393 0.51274,0.63341 0.42846,0.288742 0.82851,0.584763 0.889,0.657824 0.15169,0.183216 -0.80807,-0.421435 -1.64986,-1.039418 -0.38252,-0.280822 -0.88599,-0.618589 -1.11883,-0.750594 -1.60136,-0.907893 -2.64396,-1.732858 -3.62457,-2.867978 -0.2773,-0.320991 -0.859,-0.831503 -1.33333,-1.170158 -0.46279,-0.33041 -0.9203,-0.711507 -1.0167,-0.846882 -0.23465,-0.329545 -0.22183,-0.334581 -0.9666,0.379434 -0.68648,0.658132 -0.71774,0.754374 -0.34541,1.063378 0.072,0.05978 0.21172,0.380495 0.31043,0.712704 0.15184,0.511 0.24647,0.66744 0.6145,1.015883 0.43502,0.411868 0.43502,0.411868 0.0392,0.148466 -0.57842,-0.384913 -0.63011,-0.4552 -0.83151,-1.130702 -0.2846,-0.954556 -0.49491,-1.164073 -0.87639,-0.8731 -0.16582,0.126473 -0.67822,0.393481 -1.13868,0.593351 -2.21077,0.959627 -3.2075,1.862291 -2.63173,2.383357 0.15715,0.142218 0.63759,1.530188 0.55742,1.610359 -0.0217,0.02172 -0.14542,-0.257604 -0.27488,-0.62072 -0.12946,-0.363117 -0.32449,-0.781496 -0.4334,-0.92973 -0.10891,-0.148235 -0.19801,-0.313335 -0.19801,-0.366889 0,-0.367249 -0.23555,0.100158 -0.34557,0.68573 -0.17289,0.92013 -0.23216,1.06033 -0.24042,0.568677 -0.008,-0.46107 0.14294,-1.246272 0.26927,-1.403213 0.15287,-0.189897 0.004,-0.209048 -0.71533,-0.09227 -1.20404,0.195347 -2.2982,0.147764 -2.94729,-0.128174 -1.72046,-0.731394 -1.92514,-0.724578 -1.83281,0.06104 0.0578,0.491644 -0.14004,1.015507 -0.58053,1.537291 -0.16914,0.200361 -0.14258,0.114583 0.12579,-0.406189 0.3304,-0.641133 0.43214,-1.075478 0.25193,-1.075478 -0.26221,0 -0.96548,0.841864 -1.31404,1.573002 -0.20183,0.423336 -0.43106,0.822905 -0.50942,0.887932 -0.0948,0.07865 -0.0576,-0.05129 0.11101,-0.388185 0.13941,-0.278528 0.30261,-0.658815 0.36268,-0.845082 0.0678,-0.210169 0.32434,-0.563538 0.67622,-0.931333 0.76887,-0.803654 0.95129,-1.11999 0.71951,-1.247669 -0.0931,-0.0513 -0.42467,-0.35354 -0.73675,-0.671638 -0.31208,-0.318098 -0.62508,-0.57836 -0.69555,-0.57836 -0.19399,0 -0.7373,0.512687 -0.86357,0.814889 -0.11935,0.285648 -0.56546,0.676833 -1.04847,0.919387 -0.16298,0.08185 -0.37187,0.210891 -0.4642,0.286767 -0.15969,0.131232 -0.16184,0.130194 -0.0439,-0.02131 0.0682,-0.0876 0.38231,-0.329472 0.69808,-0.537501 0.52754,-0.347541 0.82605,-0.637996 0.82605,-0.80374 0,-0.282526 -0.87556,0.24326 -2.82034,1.693654 -2.05317,1.531231 -2.23784,1.655624 -2.47312,1.665923 -0.25114,0.01099 -0.84201,0.398662 -1.56454,1.026498 -0.40935,0.3557 -0.89073,0.671149 -1.35466,0.887701 -0.39582,0.184759 -0.83054,0.39416 -0.96606,0.465336 -0.22678,0.119114 -0.23726,0.118417 -0.13172,-0.0088 z m 15.88682,-4.270971 c 0.22474,-0.0459 0.73247,-0.143787 1.12829,-0.217529 0.39582,-0.07374 0.82146,-0.198113 0.94587,-0.276381 1.34621,-0.846918 1.99108,-1.211783 2.48748,-1.407408 1.1942,-0.470616 3.19553,-2.150881 2.83054,-2.376455 -0.0438,-0.0271 -0.16202,-0.0052 -0.26261,0.04861 -0.28594,0.153029 -0.65833,0.247 -1.32173,0.333525 -0.33717,0.04398 -0.7964,0.173218 -1.02238,0.287732 -0.49332,0.249983 -1.60864,0.47403 -2.35976,0.47403 -0.3006,0 -0.6248,0.04188 -0.72045,0.09307 -0.0956,0.05119 -0.57891,0.111728 -1.07393,0.134531 -0.49502,0.0228 -1.07148,0.08228 -1.28103,0.132174 -0.20955,0.04989 -0.70485,0.09413 -1.10067,0.0983 -0.42918,0.0045 -0.71365,0.04176 -0.70477,0.09226 0.008,0.04657 0.0381,0.160867 0.0665,0.254 0.0284,0.09313 -0.0162,0.04048 -0.099,-0.117007 -0.15046,-0.285894 -1.77743,-0.382225 -1.86797,-0.1106 -0.0152,0.04545 -0.10146,0.0633 -0.19181,0.03967 -0.24196,-0.06327 -0.76126,0.05311 -0.81059,0.181665 -0.0945,0.246327 1.4959,1.657268 1.86809,1.657268 0.0696,0 0.42275,0.119898 0.78485,0.266439 1.18056,0.477766 1.86959,0.582738 2.70508,0.412109 z" id="path5"></path></g></g></svg>