<?xml version="1.0" encoding="UTF-8"?><svg xmlns="http://www.w3.org/2000/svg" viewBox="0 0 35.4 18"><g transform="matrix(0.4385,0,0,0.4385,-277.511,-89.341)"><g transform="matrix(3.7794642857142855,0,0,3.7794642857142855,0,0.007366071428562141)"><path style="fill:#3a2c1a" d="m 168.45215,63.665265 c 1.03742,-1.085922 1.29721,-1.309175 1.9351,-1.662949 0.82472,-0.457385 1.43926,-0.975851 2.98722,-2.520213 1.59112,-1.587407 1.8214,-1.91628 2.41748,-3.452389 0.71539,-1.843601 0.58127,-1.764471 3.1005,-1.829295 2.44495,-0.06291 2.40194,-0.07474 2.85203,0.784121 0.17923,0.342012 0.51661,0.813203 0.74973,1.04709 0.23312,0.233888 0.70643,0.851818 1.0518,1.373179 0.5381,0.812293 0.68346,0.973828 1.01593,1.128933 0.62998,0.293905 1.0417,0.688308 2.0946,2.00646 0.54776,0.685765 1.22606,1.492333 1.50732,1.792374 0.51139,0.545528 0.51139,0.545528 0.10158,0.216369 -0.37698,-0.30279 -1.13031,-1.15203 -1.95336,-2.202064 -0.80023,-1.020923 -1.61375,-1.700067 -1.95501,-1.632094 -0.1276,0.02541 -0.66717,-0.644747 -1.15329,-1.432412 -0.15722,-0.254757 -0.5369,-0.741242 -0.84372,-1.081077 -0.36794,-0.407525 -0.63889,-0.808539 -0.79587,-1.1779 -0.26429,-0.621863 -0.31527,-0.655809 -0.51867,-0.345388 -0.1295,0.19764 -0.12997,0.241758 -0.006,0.557328 0.10959,0.278992 0.11218,0.324077 0.0139,0.24253 -0.0664,-0.05509 -0.145,-0.229691 -0.17469,-0.387995 -0.0531,-0.283177 -0.061,-0.287807 -0.48908,-0.28667 -0.76763,0.002 -0.93787,0.114557 -0.73658,0.486826 0.0437,0.08086 0.17701,0.356568 0.2962,0.612685 0.11919,0.256117 0.3298,0.618067 0.46803,0.804333 0.35906,0.483861 0.31552,0.553209 -0.0733,0.116722 -0.36016,-0.404329 -0.52089,-0.407651 -0.31343,-0.0065 0.20061,0.387948 0.2429,0.851458 0.13286,1.45609 -0.18777,1.03166 -0.18806,1.065343 -0.0121,1.406135 0.0936,0.181242 0.46858,0.635427 0.83336,1.0093 0.36477,0.373873 0.82816,0.87974 1.02975,1.12415 0.20885,0.253208 0.70057,0.666783 1.143,0.961356 0.92772,0.61767 1.07763,0.74824 0.56481,0.491935 -1.04312,-0.521348 -1.61112,-0.970446 -2.13855,-1.690877 -0.4769,-0.651409 -1.43651,-1.544674 -1.51937,-1.414315 -0.0437,0.06878 -0.0652,0.05193 -0.0661,-0.05175 -0.004,-0.453387 -0.17313,-0.511223 -0.43884,-0.14991 -0.35086,0.477087 -0.35819,0.434773 -0.0328,-0.189422 0.41052,-0.787588 0.55662,-1.843291 0.35259,-2.54774 -0.0821,-0.283357 -0.17769,-0.785618 -0.2125,-1.116134 -0.12851,-1.220302 -1.39145,-1.776137 -2.09725,-0.92303 -0.21012,0.253969 -0.21012,0.253969 -0.15981,-3.1e-5 0.0466,-0.235536 -0.37105,-0.550333 -0.73022,-0.550333 -0.0309,0 -0.26882,0.543914 -0.52878,1.208699 -0.74159,1.896473 -0.91634,2.14446 -2.87674,4.082259 -0.94394,0.933049 -1.81308,1.848311 -1.93144,2.033914 -0.11836,0.185604 -0.32115,0.432711 -0.45065,0.549128 -0.2513,0.225918 -0.20779,0.07949 0.0673,-0.226566 0.861,-0.957832 -0.87002,0.07531 -2.11738,1.263732 -1.28914,1.228233 -1.51382,1.298249 -0.38952,0.121385 z m 7.45435,-0.311885 c -0.30803,-1.144669 -0.26371,-3.095958 0.084,-3.696848 0.32236,-0.557135 0.087,-0.503288 -0.34331,0.07855 -0.21477,0.290382 -0.61751,0.836114 -0.89499,1.212736 -0.44196,0.599873 -1.14092,1.293595 -1.52858,1.517113 -0.0699,0.04028 0.201,-0.273053 0.60188,-0.696284 0.40088,-0.423231 0.90582,-1.030381 1.12209,-1.349221 0.21628,-0.31884 0.56499,-0.789259 0.77493,-1.045376 0.48989,-0.597664 0.75506,-1.166944 0.87954,-1.888254 0.0985,-0.570859 0.40264,-1.329079 0.5331,-1.329079 0.0879,0 0.0982,-0.04578 -0.14245,0.635 -0.11523,0.325967 -0.21032,0.711701 -0.2113,0.857188 -9.8e-4,0.145487 -0.0589,0.426503 -0.12879,0.624479 -0.0699,0.197976 -0.127,0.438414 -0.127,0.534308 0,0.09589 -0.13754,0.440138 -0.30565,0.764986 -0.24233,0.468269 -0.29682,0.656488 -0.26302,0.908504 0.0234,0.174829 0.0109,0.597321 -0.028,0.93887 -0.0428,0.376143 -0.0368,0.845465 0.0152,1.190289 0.0948,0.62861 0.0689,1.138992 -0.0376,0.743042 z" id="path4"></path></g></g></svg>