<?xml version="1.0" encoding="UTF-8"?><svg xmlns="http://www.w3.org/2000/svg" viewBox="0 0 79.67 18"><g transform="matrix(0.9886,0,0,0.9886,-638.855,-138.876)"><g transform="matrix(3.7794642857142855,0,0,3.7794642857142855,0,0.007366071428562141)"><path style="fill:#3a2c1a" d="m 171.28753,41.587444 c 0.0639,-0.0774 0.19726,-0.141374 0.29633,-0.142157 0.89059,-0.007 5.1371,-2.232487 6.11895,-3.206726 0.60331,-0.598644 0.5644,-0.589627 3.04937,-0.706572 4.0076,-0.188601 4.25065,-0.16269 5.08094,0.54165 0.63365,0.53754 2.55458,1.74378 3.1119,1.954112 0.2363,0.08918 0.71539,0.309491 1.06464,0.48958 0.34925,0.18009 0.92075,0.465899 1.27,0.635133 0.64567,0.312867 0.95996,0.530229 0.635,0.439163 -0.2631,-0.07373 -1.22028,-0.465252 -1.73567,-0.709952 -0.25611,-0.121601 -0.81014,-0.360266 -1.23117,-0.530365 -0.93357,-0.377171 -2.8733,-1.638539 -3.24878,-2.11261 -0.37106,-0.468501 -0.51319,-0.492418 -1.08519,-0.182611 -0.26599,0.144066 -0.63712,0.283504 -0.82474,0.309862 -0.38767,0.05446 -0.89145,0.196953 -0.89145,0.252141 0,0.0203 0.0354,0.103074 0.0786,0.183934 0.0432,0.08086 0.16343,0.333148 0.2671,0.56064 0.12069,0.264827 0.28157,0.462802 0.44721,0.550333 0.1423,0.07519 0.45073,0.321403 0.68541,0.547136 0.46547,0.447738 0.37786,0.44763 -0.18024,-2.21e-4 -0.4938,-0.396261 -0.71925,-0.385998 -0.41058,0.01869 0.12665,0.166042 0.21206,0.320097 0.18982,0.342345 -0.0929,0.09288 -0.71304,-0.744563 -0.89222,-1.204817 -0.40742,-1.046552 -0.29703,-0.988957 -2.0901,-1.090506 -1.38252,-0.0783 -1.66691,0.192382 -1.30455,1.241659 0.13401,0.388036 0.14279,0.523414 0.0623,0.959758 -0.1511,0.818792 -0.25052,0.840645 -0.19259,0.04233 0.0738,-1.017513 -0.0407,-1.303941 -0.38834,-0.970908 -0.25819,0.247361 -0.35382,0.20872 -0.12077,-0.0488 0.32501,-0.359125 0.54517,-1.266293 0.30733,-1.266293 -0.0852,0 -0.34242,-0.09509 -0.5715,-0.211312 -0.52409,-0.265889 -0.42507,-0.293003 -1.01286,0.27733 -0.67029,0.650388 -1.80796,1.396273 -2.76994,1.816043 -0.43031,0.18777 -1.25655,0.549491 -1.83608,0.803826 -1.11756,0.490454 -2.12254,0.714224 -1.8781,0.41818 z m 11.81409,-3.401316 c 0.22859,-0.06935 0.52751,-0.126084 0.66427,-0.126084 0.26301,0 0.74044,-0.237256 0.74044,-0.367957 0,-0.04606 -0.45464,-0.05217 -1.12184,-0.01507 -1.3105,0.07287 -3.82346,0.14951 -4.40266,0.134267 -0.46618,-0.01227 -0.52179,0.100103 -0.127,0.256607 0.23692,0.09392 1.17711,0.15794 3.3655,0.229161 0.25611,0.0083 0.65269,-0.04158 0.88129,-0.110928 z" id="path3"></path></g></g></svg>