<?xml version="1.0" encoding="UTF-8"?><svg xmlns="http://www.w3.org/2000/svg" viewBox="0 0 76.02 18"><g transform="matrix(0.6787,0,0,0.6787,-425.982,-29.651)"><g transform="matrix(3.7794642857142855,0,0,3.7794642857142855,0,0.007366071428562141)"><path style="fill:#3a2c1a" d="m 193.9194,17.8919 c -0.67522,-0.225511 -1.53247,-0.490689 -1.905,-0.589286 -0.37253,-0.0986 -0.90593,-0.296502 -1.18533,-0.439791 -1.23817,-0.634986 -1.66022,-0.833285 -1.88078,-0.883685 -1.04065,-0.237789 -1.64915,-0.496447 -2.56422,-1.089984 -1.20672,-0.782703 -1.92561,-1.197157 -2.20134,-1.269114 -0.11641,-0.03038 -0.002,0.07042 0.254,0.224 0.39366,0.23606 2.58481,2.336992 2.51263,2.409173 -0.0756,0.07559 -1.19778,-0.795951 -1.67007,-1.29704 -0.30495,-0.323537 -0.78491,-0.728247 -1.06659,-0.899354 -0.36079,-0.219172 -0.64277,-0.486793 -0.95423,-0.905642 -0.6526,-0.877616 -0.93828,-1.072649 -1.36494,-0.931839 -0.40173,0.132581 -0.43865,0.334726 -0.11581,0.633929 0.27509,0.254944 0.71406,0.937608 1.05311,1.637743 0.31591,0.65235 0.28784,0.885349 -0.0394,0.326967 -0.12954,-0.221056 -0.38385,-0.581396 -0.56512,-0.800756 -0.18127,-0.21936 -0.32958,-0.445835 -0.32958,-0.503276 0,-0.766209 -0.69669,-0.667064 -1.30704,0.186002 -0.13327,0.186266 -0.39853,0.493023 -0.58946,0.68168 -0.26287,0.259732 -0.39599,0.495306 -0.54826,0.970257 -0.19443,0.606434 -1.00983,2.24536 -1.08147,2.17372 -0.0194,-0.01938 0.0639,-0.297528 0.18514,-0.618112 0.12121,-0.320583 0.32738,-0.874338 0.45816,-1.230565 0.13079,-0.356228 0.2637,-0.689603 0.29536,-0.740834 0.09,-0.145709 -0.20828,-0.107794 -0.61932,0.07871 -0.53023,0.240585 -1.08126,0.659554 -2.38111,1.810453 -1.57577,1.395202 -1.60318,1.416443 -1.21129,0.938692 1.21338,-1.479266 3.06416,-2.963497 4.07011,-3.264031 0.36013,-0.107591 0.40887,-0.152582 1.49331,-1.378599 0.70641,-0.798625 0.70815,-0.818515 0.0717,-0.817898 -0.84753,8.22e-4 -1.10183,0.119246 -1.74078,0.810657 -1.07128,1.159233 -1.40209,1.268915 -0.43489,0.14419 0.6632,-0.771213 0.70444,-1.091463 0.0687,-0.533249 -0.16667,0.146341 -0.50341,0.360943 -0.7483,0.476892 -0.24488,0.11595 -0.65856,0.389742 -0.91928,0.608428 -0.26071,0.218685 -0.71348,0.598444 -1.00614,0.843908 -0.74457,0.62449 -0.91814,0.79075 -1.22063,1.169234 -0.19254,0.24091 -0.42592,0.396565 -0.85198,0.568226 -0.32274,0.130033 -0.86064,0.445053 -1.19532,0.700043 -0.33469,0.254991 -0.60852,0.416315 -0.60852,0.358498 0,-0.236637 1.02026,-1.070793 1.71593,-1.402919 0.39778,-0.18991 0.76671,-0.429107 0.84416,-0.547314 0.0757,-0.115486 0.20008,-0.27247 0.27646,-0.348853 0.24,-0.24 -0.0469,-0.167038 -0.75965,0.19318 -0.366,0.184976 -0.84961,0.356849 -1.0918,0.388024 -0.7961,0.102474 -1.50586,0.295046 -2.03011,0.550809 -0.28534,0.139209 -0.6087,0.253107 -0.71859,0.253107 -0.42881,0 -1.41854,0.373835 -1.81096,0.684024 -0.21995,0.173863 -0.58198,0.380999 -0.80451,0.460302 -0.22253,0.0793 -0.60599,0.221203 -0.85214,0.315333 -0.24615,0.09413 -0.47418,0.144508 -0.50673,0.111952 -0.0954,-0.09543 0.31921,-0.366554 0.91194,-0.596297 0.30268,-0.117321 0.75824,-0.371093 1.01235,-0.563939 0.44912,-0.34084 1.49459,-0.745892 1.93263,-0.748771 0.10632,-6.99e-4 0.37302,-0.09221 0.59267,-0.203355 0.50851,-0.257324 0.89102,-0.366402 1.83868,-0.524325 0.50318,-0.08385 0.94893,-0.222453 1.31234,-0.40805 0.30268,-0.154586 0.82212,-0.362373 1.15432,-0.461749 0.50116,-0.149925 0.72457,-0.282894 1.31233,-0.781088 0.38959,-0.330223 0.8798,-0.697633 1.08935,-0.816467 0.20955,-0.118835 0.59055,-0.353727 0.84666,-0.521983 0.50516,-0.331862 0.65804,-0.362993 2.49767,-0.508604 0.5588,-0.04423 1.10032,-0.106523 1.20339,-0.138428 0.28087,-0.08695 0.90791,0.254406 1.26275,0.687436 0.23509,0.286895 0.50493,0.468246 1.17189,0.787589 0.47657,0.228179 1.20552,0.642423 1.61989,0.920541 1.10141,0.739237 1.60392,0.995651 2.36208,1.205299 0.96726,0.267467 1.48924,0.480453 2.13931,0.87291 0.66383,0.400761 1.13453,0.590005 2.13282,0.857481 0.68278,0.182943 2.49191,0.911264 2.6663,1.073407 0.16915,0.157261 -0.28742,0.04984 -1.47743,-0.347598 z" id="path1"></path></g></g></svg>