<svg width="106" height="79" viewBox="0 0 106 79" fill="none" xmlns="http://www.w3.org/2000/svg">
<path d="M25.5702 45.293C25.5702 46.4542 26.098 46.982 27.5055 47.1931V47.6857H19.8347V47.1931C21.207 46.982 21.7348 46.4542 21.7348 45.293V35.1238C21.7348 33.9627 21.2773 33.3645 20.0458 33.2589L19.6235 33.2237V32.7311L25.5702 31.1829V45.293Z" fill="white"/>
<path d="M16.2565 45.2931C16.2565 46.4543 16.7844 46.9821 18.1919 47.1932V47.6859H10.521V47.1932C11.8933 46.9821 12.4211 46.4543 12.4211 45.2931V36.9537C12.4211 34.6665 11.2599 33.6461 9.57095 33.6461C7.7764 33.6461 5.98185 34.948 5.98185 37.9038V45.2931C5.98185 46.4543 6.50966 46.9821 7.88196 47.1932V47.6859H0.211123V47.1932C1.61862 46.9821 2.14643 46.4543 2.14643 45.2931V26.9605C2.14643 25.7993 1.6538 25.2011 0.422247 25.0956L0 25.0604V24.5678L5.98185 23.0195V35.2647C6.86153 32.7664 8.79683 31.183 11.4359 31.183C14.3916 31.183 16.2565 33.1535 16.2565 36.637V45.2931Z" fill="white"/>
<path d="M23.6538 22.1455C25.147 22.1456 26.3413 23.3207 26.3413 24.8877C26.3412 26.419 25.147 27.5585 23.6538 27.5586C22.0858 27.5586 20.9283 26.419 20.9282 24.8877C20.9282 23.3206 22.0858 22.1455 23.6538 22.1455Z" fill="white"/>
<path d="M62.2656 0.239502C83.9127 -2.14007 103.39 13.4792 105.77 35.1262C108.149 56.7733 92.5308 76.251 70.8838 78.6311C49.2366 81.0109 29.7588 65.3916 27.3789 43.7444C24.9991 22.0972 40.6184 2.61934 62.2656 0.239502ZM57.9727 58.1252C57.4595 58.1252 56.9829 58.2149 56.543 58.3948C56.103 58.5681 55.7192 58.8182 55.3926 59.1448C55.0659 59.4648 54.8128 59.8454 54.6328 60.2854C54.4529 60.7187 54.3623 61.1921 54.3623 61.7053C54.3623 62.2185 54.4528 62.6951 54.6328 63.135C54.8128 63.5682 55.066 63.9481 55.3926 64.2747C55.7192 64.5947 56.103 64.8447 56.543 65.0247C56.9829 65.1979 57.4594 65.2854 57.9727 65.2854C58.4926 65.2854 58.9691 65.198 59.4023 65.0247C59.8423 64.8447 60.223 64.5947 60.543 64.2747C60.8695 63.9481 61.1228 63.5682 61.3027 63.135C61.4827 62.6951 61.5722 62.2185 61.5723 61.7053C61.5723 61.1921 61.4826 60.7186 61.3027 60.2854C61.1227 59.8454 60.8696 59.4648 60.543 59.1448C60.223 58.8181 59.8423 58.5681 59.4023 58.3948C58.9691 58.2149 58.4925 58.1253 57.9727 58.1252ZM48.7373 58.2053V65.2053H50.3174V62.5852H51.6572C52.1371 62.5852 52.554 62.4947 52.9072 62.3147C53.2603 62.1281 53.5333 61.8716 53.7266 61.5452C53.9199 61.2118 54.0166 60.825 54.0166 60.385C54.0166 59.945 53.9199 59.5613 53.7266 59.2346C53.5333 58.9082 53.2603 58.6548 52.9072 58.4749C52.554 58.2949 52.1371 58.2054 51.6572 58.2053H48.7373ZM62.3652 58.2053V65.2053H63.9551V62.4651H64.8369L66.3447 65.2053H68.1748L66.3838 62.1458C66.5389 62.0566 66.6804 61.9553 66.8047 61.8352C67.0047 61.6352 67.158 61.4079 67.2646 61.1545C67.3779 60.8947 67.4355 60.6217 67.4355 60.3352C67.4355 59.9086 67.3387 59.535 67.1455 59.2151C66.9589 58.8952 66.6954 58.6482 66.3555 58.4749C66.0155 58.2949 65.6184 58.2053 65.165 58.2053H62.3652ZM67.8594 58.2053V59.5549H69.9102V65.2053H71.5V59.5549H73.5498V58.2053H67.8594ZM75.2783 58.2053L72.6182 65.2053H74.2686L74.7988 63.7952H77.459L77.9883 65.2053H79.6885L77.0391 58.2053H75.2783ZM80.1221 58.2053V65.2053H84.8721V63.8547H81.7119V58.2053H80.1221ZM57.9727 59.4749C58.366 59.4749 58.7127 59.5716 59.0127 59.7649C59.3193 59.9582 59.5591 60.2217 59.7324 60.5549C59.9058 60.8883 59.9922 61.272 59.9922 61.7053C59.9922 62.0252 59.9427 62.3218 59.8428 62.595C59.7428 62.8616 59.6028 63.0983 59.4229 63.3049C59.2429 63.5049 59.0289 63.6613 58.7822 63.7747C58.5356 63.8813 58.2659 63.9348 57.9727 63.9348C57.5794 63.9348 57.2295 63.8381 56.9229 63.6448C56.6229 63.4514 56.3862 63.1881 56.2129 62.8547C56.0396 62.5148 55.9522 62.1318 55.9521 61.7053C55.9521 61.3855 56.0026 61.092 56.1025 60.8254C56.2025 60.5522 56.3426 60.3154 56.5225 60.1155C56.7024 59.9089 56.9156 59.7514 57.1621 59.6448C57.4088 59.5314 57.6793 59.4749 57.9727 59.4749ZM76.9785 62.4446H75.2891L76.1289 60.1545L76.9785 62.4446ZM51.4766 59.5549C51.7832 59.5549 52.0199 59.6321 52.1865 59.7854C52.3599 59.9321 52.4473 60.1317 52.4473 60.385C52.4473 60.5583 52.4071 60.7085 52.3271 60.8352C52.2538 60.9618 52.1437 61.0617 51.9971 61.135C51.8504 61.2017 51.6766 61.2346 51.4766 61.2346H50.3174V59.5549H51.4766ZM64.8848 59.5549C65.0848 59.5549 65.2555 59.5879 65.3955 59.6545C65.542 59.7145 65.6513 59.8052 65.7246 59.925C65.8046 60.0384 65.8447 60.1752 65.8447 60.3352C65.8447 60.4885 65.8046 60.6254 65.7246 60.7454C65.6514 60.865 65.5417 60.9581 65.3955 61.0247C65.2555 61.0847 65.0848 61.1155 64.8848 61.1155H63.9551V59.5549H64.8848ZM87.5156 32.2043C88.2896 32.2749 89.2045 33.2599 89.9434 34.9485L95.4678 47.5813L94.9756 48.6721C94.0607 50.8537 92.9338 51.9094 91.5967 51.9094C90.6115 51.9093 89.3798 51.5576 88.2188 50.5374L87.0225 54.5129C87.902 54.9351 88.6411 55.1467 89.2744 55.1467C92.0894 55.1467 93.8137 53.387 95.8545 48.8127L101.59 35.6526C102.751 33.1896 103.596 32.3452 104.546 32.2043V31.7112H99.3027V32.2043C100.605 32.3099 101.273 32.6617 101.273 33.6116C101.273 34.069 101.098 34.7027 100.711 35.512L97.5088 42.8665L93.9199 34.3157C93.7792 33.999 93.708 33.7173 93.708 33.4709C93.708 32.7321 94.3418 32.2747 95.5381 32.2043V31.7112H87.5156V32.2043ZM37.333 31.219C33.6736 31.219 31.2453 33.0134 31.21 35.9338C31.21 42.7602 40.6406 39.9455 40.6406 44.5198C40.6406 46.1736 39.3737 47.2649 37.4736 47.2649C35.2216 47.2649 33.1455 45.5754 32.0195 42.303H31.5273L31.1396 46.5256C32.0545 47.2998 34.3069 48.179 37.3682 48.179C40.9571 48.1789 43.5604 46.1737 43.5605 43.0071C43.5605 36.3567 34.166 38.8195 34.166 34.5266C34.166 33.0839 35.3276 32.0989 37.0518 32.0989C39.3035 32.0991 40.9926 33.6826 41.6611 36.3567H42.1533L42.4697 32.2747C41.3438 31.6414 39.7254 31.219 37.333 31.219ZM64.9551 31.1838C60.2048 31.1838 56.9678 34.6325 56.9678 39.6995C56.968 44.731 60.2049 48.179 64.9551 48.179C69.7403 48.1789 72.9773 44.7309 72.9775 39.6995C72.9775 34.6326 69.7404 31.1839 64.9551 31.1838ZM50.5859 26.6448C48.7562 29.0375 46.9967 30.5858 45.1318 32.0989V32.5911H47.2422V43.2532C47.2423 46.3845 48.8612 48.1436 51.6758 48.1438C53.5758 48.1438 55.1595 47.0531 55.8281 45.6809L55.4766 45.47C54.9839 46.0329 54.315 46.3499 53.6113 46.3499C51.9226 46.3498 51.0782 45.2586 51.0781 43.2883V32.5911H55.5469V31.7112H51.0781V26.6448H50.5859ZM74.5225 32.7317V33.2249L74.9453 33.26C76.1764 33.3657 76.6337 33.9635 76.6338 35.1243V45.2942C76.6337 46.4551 76.1055 46.9825 74.7334 47.1936V47.6868H83.3193V47.1936C81.314 47.0177 80.4699 46.4902 80.4697 45.2942V39.3469C80.505 35.8283 82.3695 34.4211 84.1992 34.4211C84.9733 34.4211 85.7475 34.6669 86.3457 35.1243L86.6621 31.5706C86.1696 31.3243 85.6771 31.219 85.2197 31.219C83.2141 31.219 81.3495 33.1189 80.4697 36.1799V31.1838L74.5225 32.7317ZM64.9551 32.0637C67.4533 32.0639 68.8955 34.8086 68.8955 39.6995C68.8954 44.5901 67.4532 47.2989 64.9551 47.2991C62.492 47.2991 61.0489 44.5902 61.0488 39.6995C61.0488 34.8084 62.492 32.0637 64.9551 32.0637Z" fill="white"/>
</svg>
