<svg width="182" height="156" viewBox="0 0 182 156" fill="none" xmlns="http://www.w3.org/2000/svg">
<g clip-path="url(#clip0_1903_204)">
<path d="M126.827 105.033C125.842 105.033 125.004 104.933 124.315 104.732C123.658 104.565 123.198 104.431 122.936 104.331V99.4167C123.166 99.5504 123.51 99.7176 123.97 99.9182C124.463 100.119 125.054 100.219 125.743 100.219C126.334 100.219 126.892 100.135 127.418 99.9683C127.976 99.8011 128.517 99.4 129.043 98.7648C129.568 98.163 130.077 97.1935 130.57 95.8562L122 71.0332H129.388L132.687 82.6173C132.983 83.7205 133.229 84.7736 133.426 85.7766C133.656 86.7795 133.82 87.5986 133.919 88.2338C134.017 88.869 134.066 89.1866 134.066 89.1866C134.066 89.1866 134.099 88.869 134.165 88.2338C134.263 87.5986 134.395 86.7795 134.559 85.7766C134.723 84.7736 134.936 83.7205 135.199 82.6173L138.302 71.0332H145L136.086 96.3075C135.56 97.9123 134.92 99.3665 134.165 100.67C133.41 102.008 132.441 103.061 131.259 103.83C130.11 104.632 128.632 105.033 126.827 105.033Z" fill="#F4E9E1"/>
<path d="M113.268 83.2803V97.0332H106V71.7359H113.268V75.8015C113.818 74.2623 114.574 73.0911 115.536 72.288C116.533 71.4515 117.667 71.0332 118.938 71.0332C119.488 71.0332 119.935 71.0834 120.278 71.1838C120.622 71.2507 120.863 71.3176 121 71.3846V78.01C120.828 77.8762 120.45 77.6921 119.866 77.4579C119.316 77.2237 118.646 77.1066 117.856 77.1066C117.134 77.1066 116.412 77.3241 115.691 77.7591C115.003 78.1606 114.419 78.8131 113.938 79.7166C113.491 80.6201 113.268 81.808 113.268 83.2803Z" fill="#F4E9E1"/>
<path d="M80 84.0332C80 82.5345 80.2714 81.1335 80.8142 79.8302C81.3569 78.4944 82.0354 77.2888 82.8495 76.2137C83.6637 75.1059 84.4948 74.1773 85.3429 73.4279C86.2249 72.5808 87.1917 71.9781 88.2434 71.6197C89.3289 71.2287 90.4314 71.0332 91.5509 71.0332C92.6364 71.0332 93.705 71.2287 94.7566 71.6197C95.8422 71.9781 96.8429 72.5808 97.7589 73.4279C98.6069 74.1773 99.4211 75.1059 100.201 76.2137C101.015 77.2888 101.677 78.4944 102.186 79.8302C102.729 81.1335 103 82.5345 103 84.0332C103 85.4994 102.729 86.9004 102.186 88.2362C101.677 89.5395 101.015 90.7287 100.201 91.8039C99.4211 92.8791 98.6069 93.8076 97.7589 94.5896C96.8429 95.4041 95.8422 96.0069 94.7566 96.3979C93.705 96.8214 92.6364 97.0332 91.5509 97.0332C90.4653 97.0332 89.3798 96.8214 88.2942 96.3979C87.2087 96.0069 86.2249 95.4041 85.3429 94.5896C84.4948 93.8076 83.6637 92.8791 82.8495 91.8039C82.0354 90.7287 81.3569 89.5395 80.8142 88.2362C80.2714 86.9004 80 85.4994 80 84.0332ZM87.3274 84.0332C87.3274 85.6623 87.531 87.1284 87.938 88.4317C88.379 89.7024 88.837 90.6147 89.3119 91.1685C89.6851 91.5921 90.0583 91.9016 90.4314 92.0971C90.8385 92.2926 91.2116 92.3903 91.5509 92.3903C92.365 92.3903 93.0944 91.9831 93.7389 91.1685C94.3156 90.5169 94.7736 89.572 95.1128 88.334C95.486 87.0959 95.6726 85.6623 95.6726 84.0332C95.6726 82.4041 95.469 80.9868 95.0619 79.7813C94.6888 78.5432 94.2478 77.5984 93.7389 76.9467C93.3997 76.458 93.0435 76.1322 92.6704 75.9693C92.2972 75.7738 91.924 75.6761 91.5509 75.6761C91.1777 75.6761 90.8046 75.7738 90.4314 75.9693C90.0583 76.1322 89.6851 76.458 89.3119 76.9467C88.8031 77.5984 88.3451 78.5432 87.938 79.7813C87.531 80.9868 87.3274 82.4041 87.3274 84.0332Z" fill="#F4E9E1"/>
<path d="M63 76.0985V70.9026H66.9377V65.5555L73.9657 63.0332V70.9026H79V76.0985H73.9657V87.2973C73.9657 88.0035 74.0156 88.7434 74.1153 89.5169C74.2482 90.2567 74.514 90.8957 74.9128 91.4338C75.3115 91.9382 75.8931 92.1905 76.6573 92.1905C77.2555 92.1905 77.7207 92.1064 78.053 91.9382C78.3853 91.7365 78.6677 91.5515 78.9003 91.3834V96.327C78.6677 96.4615 78.2856 96.6128 77.7539 96.781C77.2222 96.9491 76.3915 97.0332 75.2617 97.0332C73.4673 97.0332 71.9553 96.5624 70.7259 95.6207C69.4964 94.6791 68.5493 93.4348 67.8847 91.8878C67.2534 90.3408 66.9377 88.6761 66.9377 86.8937V76.0985H63Z" fill="#F4E9E1"/>
<path d="M62 88.6761C62 89.9793 61.6187 91.2826 60.856 92.5858C60.1265 93.8565 59.0654 94.9154 57.6728 95.7625C56.3133 96.6096 54.6553 97.0332 52.699 97.0332C50.8421 97.0332 49.2173 96.6585 47.8246 95.9091C46.4319 95.1598 45.3211 94.1335 44.4922 92.8302C43.6632 91.5269 43.1658 90.0608 43 88.4317H49.5157C49.4162 89.6372 49.6649 90.5984 50.2618 91.3152C50.8586 92.0319 51.671 92.3903 52.699 92.3903C53.5611 92.3903 54.2408 92.1297 54.7382 91.6084C55.2688 91.0545 55.534 90.4192 55.534 89.7024C55.534 88.8553 55.2356 88.2036 54.6387 87.7475C54.075 87.2588 53.3456 86.8678 52.4503 86.5746C51.555 86.2487 50.5934 85.9229 49.5655 85.5971C48.5375 85.2387 47.5759 84.7989 46.6806 84.2776C45.7853 83.7563 45.0393 83.0395 44.4424 82.1272C43.8787 81.2149 43.5969 80.0257 43.5969 78.5595C43.5969 77.2888 43.9782 76.0833 44.7408 74.943C45.5367 73.8026 46.6143 72.8741 47.9738 72.1573C49.3333 71.4079 50.8752 71.0332 52.5995 71.0332C55.2522 71.0332 57.3578 71.7989 58.9162 73.3302C60.5079 74.8615 61.4695 76.7512 61.8011 78.9994H55.2853C55.3848 78.1848 55.219 77.4355 54.788 76.7512C54.39 76.0345 53.6771 75.6761 52.6492 75.6761C51.8534 75.6761 51.1902 75.9041 50.6597 76.3603C50.1292 76.8164 49.8639 77.3866 49.8639 78.0708C49.8639 78.8202 50.1457 79.4066 50.7094 79.8302C51.3063 80.2212 52.0689 80.547 52.9974 80.8076C53.9258 81.0357 54.904 81.2964 55.9319 81.5896C56.9599 81.8828 57.938 82.2901 58.8665 82.8114C59.7949 83.3001 60.541 84.0169 61.1047 84.9618C61.7016 85.8741 62 87.1121 62 88.6761Z" fill="#F4E9E1"/>
<path d="M32.6667 71.3473H39.381V97.0332H32.6667V71.3473ZM36 68.3913C34.8571 68.3913 33.9047 67.9836 33.1428 67.1682C32.3809 66.3528 32 65.3675 32 64.2123C32 63.0231 32.3809 62.0378 33.1428 61.2563C33.9047 60.4409 34.8571 60.0332 36 60.0332C37.1111 60.0332 38.0476 60.4409 38.8095 61.2563C39.6032 62.0378 40 63.0231 40 64.2123C40 65.3675 39.6032 66.3528 38.8095 67.1682C38.0476 67.9836 37.1111 68.3913 36 68.3913Z" fill="#F4E9E1"/>
<path d="M19.6183 61.0332H27V97.0332H19.6183V81.0903H7.38165V97.0332H0V61.0332H7.38165V75.6903H19.6183V61.0332Z" fill="#F4E9E1"/>
<path d="M57.6005 105.788V124.757H55.6216V105.788H57.6005Z" fill="#F4E9E1"/>
<path d="M50.3916 124.757V122.21C50.0663 123.059 49.5693 123.754 48.9006 124.296C48.2319 124.82 47.4187 125.082 46.4608 125.082C45.7018 125.082 45.015 124.91 44.4006 124.567C43.8042 124.206 43.3253 123.718 42.9638 123.104C42.6204 122.472 42.4487 121.767 42.4487 120.99C42.4487 120.141 42.6656 119.382 43.0993 118.714C43.5512 118.045 44.1656 117.522 44.9427 117.142C45.7199 116.745 46.5964 116.546 47.5723 116.546C48.0241 116.546 48.503 116.591 49.0091 116.681C49.5332 116.772 49.994 116.889 50.3916 117.034V116.383C50.3916 115.173 50.1747 114.161 49.741 113.348C49.3073 112.535 48.5753 112.129 47.5452 112.129C46.6054 112.129 45.8644 112.463 45.3223 113.132C44.7982 113.8 44.6084 114.631 44.753 115.625H42.6656C42.7017 114.776 42.9096 113.981 43.2891 113.24C43.6686 112.499 44.2108 111.903 44.9156 111.451C45.6385 111 46.5151 110.774 47.5452 110.774C49.0994 110.774 50.2922 111.316 51.1236 112.4C51.9549 113.466 52.3706 114.929 52.3706 116.79V124.757H50.3916ZM44.4548 120.936C44.4548 121.749 44.6988 122.417 45.1867 122.941C45.6928 123.447 46.3253 123.7 47.0843 123.7C47.6988 123.7 48.241 123.51 48.7109 123.131C49.1988 122.752 49.5874 122.255 49.8766 121.641C50.1657 121.008 50.3374 120.313 50.3916 119.554V118.334C50.0482 118.19 49.6506 118.073 49.1988 117.982C48.7651 117.892 48.3585 117.847 47.9789 117.847C46.9488 117.847 46.0994 118.145 45.4307 118.741C44.7801 119.319 44.4548 120.051 44.4548 120.936Z" fill="#F4E9E1"/>
<path d="M33.7471 112.562V111.099H35.8887V108.199L37.8676 107.332V111.099H40.8496V112.562H37.8676V120.502C37.8676 121.062 37.9038 121.586 37.9761 122.074C38.0664 122.544 38.2291 122.932 38.464 123.239C38.699 123.546 39.0423 123.7 39.4941 123.7C39.8556 123.7 40.1357 123.628 40.3345 123.483C40.5333 123.339 40.696 123.203 40.8225 123.077V124.648C40.696 124.721 40.5062 124.811 40.2532 124.919C40.0183 125.028 39.6568 125.082 39.1688 125.082C38.0845 125.082 37.2622 124.648 36.7019 123.781C36.1598 122.914 35.8887 121.794 35.8887 120.421V112.562H33.7471Z" fill="#F4E9E1"/>
<path d="M29.1152 117.223V124.757H27.1362V111.099H29.1152V113.782C29.3863 112.806 29.7929 112.066 30.3351 111.56C30.8773 111.036 31.4827 110.774 32.1514 110.774C32.4044 110.774 32.6122 110.801 32.7749 110.855C32.9556 110.891 33.0911 110.927 33.1815 110.964V112.861C32.9104 112.626 32.4767 112.508 31.8803 112.508C31.4285 112.508 30.9857 112.707 30.5519 113.104C30.1363 113.484 29.7929 114.026 29.5218 114.73C29.2507 115.435 29.1152 116.266 29.1152 117.223Z" fill="#F4E9E1"/>
<path d="M13.1387 117.928C13.1387 116.7 13.3917 115.57 13.8977 114.541C14.4218 113.511 15.0453 112.662 15.7682 111.993C16.6176 111.18 17.6478 110.774 18.8586 110.774C19.3827 110.774 19.9068 110.873 20.431 111.072C20.9731 111.271 21.4701 111.578 21.9219 111.993C22.6268 112.662 23.2322 113.511 23.7382 114.541C24.2623 115.57 24.5244 116.7 24.5244 117.928C24.5244 119.175 24.2623 120.304 23.7382 121.315C23.2322 122.327 22.6268 123.167 21.9219 123.836C21.4882 124.251 21.0002 124.558 20.4581 124.757C19.934 124.974 19.4008 125.082 18.8586 125.082C18.2984 125.082 17.7472 124.974 17.205 124.757C16.6809 124.558 16.202 124.251 15.7682 123.836C15.0453 123.167 14.4218 122.327 13.8977 121.315C13.3917 120.304 13.1387 119.175 13.1387 117.928ZM15.1447 117.928C15.1447 118.958 15.3164 119.933 15.6598 120.855C16.0212 121.776 16.4369 122.444 16.9068 122.86C17.5032 123.438 18.1538 123.727 18.8586 123.727C19.5454 123.727 20.187 123.438 20.7834 122.86C21.2713 122.408 21.678 121.731 22.0033 120.828C22.3466 119.924 22.5183 118.958 22.5183 117.928C22.5183 116.898 22.3466 115.941 22.0033 115.056C21.6599 114.152 21.2533 113.475 20.7834 113.023C20.187 112.427 19.5454 112.129 18.8586 112.129C18.1538 112.129 17.5032 112.427 16.9068 113.023C16.4369 113.475 16.0212 114.152 15.6598 115.056C15.3164 115.941 15.1447 116.898 15.1447 117.928Z" fill="#F4E9E1"/>
<path d="M0 129.107V111.113H1.97894V114.202C2.23196 113.317 2.65666 112.594 3.25306 112.034C3.66873 111.619 4.12054 111.312 4.6085 111.113C5.09646 110.896 5.59346 110.788 6.09949 110.788C6.62359 110.788 7.12962 110.896 7.61758 111.113C8.10554 111.312 8.54832 111.619 8.94591 112.034C9.59653 112.703 10.1568 113.552 10.6267 114.582C11.1146 115.593 11.3586 116.722 11.3586 117.969C11.3586 119.179 11.1146 120.299 10.6267 121.329C10.1568 122.341 9.59653 123.181 8.94591 123.849C8.53025 124.283 8.0694 124.599 7.56336 124.798C7.07541 124.997 6.58745 125.096 6.09949 125.096C4.97899 125.096 4.03018 124.68 3.25306 123.849C2.65666 123.271 2.23196 122.549 1.97894 121.682V129.107H0ZM1.97894 117.969C1.97894 118.999 2.1416 119.965 2.4669 120.869C2.81028 121.754 3.21691 122.422 3.6868 122.874C4.31934 123.452 4.97899 123.741 5.66575 123.741C6.37058 123.741 7.02119 123.452 7.61758 122.874C8.08747 122.422 8.4941 121.754 8.83748 120.869C9.18086 119.965 9.35255 118.999 9.35255 117.969C9.35255 116.921 9.17182 115.937 8.81037 115.015C8.46699 114.094 8.06036 113.425 7.59047 113.01C6.95793 112.432 6.30732 112.143 5.63864 112.143C4.96995 112.143 4.31934 112.432 3.6868 113.01C3.21691 113.462 2.81028 114.139 2.4669 115.042C2.1416 115.946 1.97894 116.921 1.97894 117.969Z" fill="#F4E9E1"/>
<path d="M78.5242 149.379C97.2155 154.882 118.267 152.932 136.738 142.271C171.923 121.963 184.424 77.7489 164.66 43.5158C144.896 9.2827 100.349 -2.00661 65.164 18.301C53.2791 25.161 43.986 34.752 37.6469 45.7615C44.0143 32.7024 54.2139 21.3366 67.7461 13.5258C103.856 -7.31625 150.023 5.04858 170.862 41.1434C191.702 77.2383 179.322 123.395 143.212 144.237C122.732 156.057 99.0186 157.193 78.5242 149.379Z" fill="#F4E9E1"/>
</g>
<defs>
<clipPath id="clip0_1903_204">
<rect width="182" height="156" fill="white"/>
</clipPath>
</defs>
</svg>
