<?xml version="1.0" encoding="UTF-8"?><svg xmlns="http://www.w3.org/2000/svg" viewBox="0 0 25.48 10"><g transform="matrix(0.3032,0,0,0.3032,-120.249,-89.498)"><g transform="matrix(3.7794642857142855,0,0,3.7794642857142855,50.15244753190449,0.007366071428562141)"><path style="fill:#3a2c1a" d="m 92.120834,86.343337 c 0.146014,-0.130847 0.499771,-0.368942 0.786127,-0.5291 0.903508,-0.505329 1.552328,-1.126252 3.206838,-3.068954 0.884912,-1.03905 1.869921,-2.141304 2.18891,-2.449451 2.310401,-2.231883 3.821451,-2.471088 6.675981,-1.056839 1.79035,0.887012 3.27552,1.944607 5.44567,3.877871 1.34073,1.194385 2.06586,1.761257 2.7525,2.151756 0.73924,0.420421 0.51622,0.482837 -0.30256,0.08468 -0.69719,-0.339034 -1.53832,-0.95448 -2.7303,-1.997747 -1.98908,-1.740917 -3.66281,-2.934483 -5.24998,-3.74386 -1.23891,-0.631782 -2.01356,-0.862654 -2.87866,-0.857944 -1.53769,0.0084 -2.677439,0.849494 -5.315409,3.922688 -1.600321,1.864349 -2.080224,2.362238 -2.778384,2.882518 -0.532794,0.397046 -1.400889,0.849897 -1.854545,0.967443 -0.203163,0.05264 -0.201002,0.04529 0.05381,-0.183058 z m 13.535186,-5.75859 c -0.16153,-0.08749 -0.21226,-0.151541 -0.13934,-0.175939 0.0631,-0.0211 0.19535,0.04233 0.29398,0.140963 0.21266,0.212666 0.18499,0.218926 -0.15464,0.03498 z" id="path34"></path></g></g></svg>