<?xml version="1.0" encoding="UTF-8"?><svg xmlns="http://www.w3.org/2000/svg" viewBox="0 0 26.89 10"><g transform="translate(26.89 0) scale(-1 1)"><g transform="matrix(0.3589,0,0,0.3589,-143.462,-17.212)"><g transform="matrix(3.7794642857142855,0,0,3.7794642857142855,50.15244753190449,0.007366071428562141)"><path style="fill:#3a2c1a" d="m 92.744356,19.746629 c 0,-0.133636 0.403927,-0.457138 0.846667,-0.67809 0.409348,-0.204289 2.032675,-1.254935 2.762439,-1.7879 0.331892,-0.24239 1.170092,-0.980448 1.862667,-1.64013 2.518381,-2.398771 3.554041,-2.944692 4.921671,-2.594321 1.32548,0.339574 2.70237,1.27962 5.90489,4.031477 0.93133,0.800274 2.00618,1.690107 2.38856,1.977407 0.7108,0.534063 0.80252,0.705925 0.21746,0.407447 -0.45248,-0.230838 -1.48144,-1.018198 -3.09862,-2.371065 -3.62517,-3.032678 -5.26554,-3.989884 -6.41504,-3.743362 -0.89314,0.191545 -1.39933,0.56966 -3.474821,2.595646 -1.925504,1.879574 -2.964752,2.592013 -5.344373,3.663743 -0.422764,0.190404 -0.5715,0.226618 -0.5715,0.139148 z m 12.741864,-4.276046 c -0.0845,-0.09342 -0.13019,-0.193376 -0.10144,-0.222127 0.0851,-0.08513 0.29553,0.03072 0.39568,0.217863 0.12631,0.236001 -0.0818,0.239016 -0.29424,0.0043 z" id="path29"></path></g></g></g></svg>