<?xml version="1.0" encoding="UTF-8"?><svg xmlns="http://www.w3.org/2000/svg" viewBox="0 0 30.1 10"><g transform="matrix(0.3354,0,0,0.3354,-132.374,-81.738)"><g transform="matrix(3.7794642857142855,0,0,3.7794642857142855,50.15244753190449,0.007366071428562141)"><path style="fill:#3a2c1a" d="m 91.43332,72.050534 c 0.0033,-0.160005 0.180532,-0.281947 0.930037,-0.63978 2.232896,-1.066041 3.502443,-2.017055 6.333433,-4.744358 1.48403,-1.429674 1.69098,-1.582823 2.42536,-1.794812 1.54915,-0.447184 3.33654,0.294808 7.6721,3.184883 0.67827,0.452137 1.64982,1.06066 2.159,1.352274 2.12455,1.216769 3.7855,2.231827 3.69909,2.260631 -0.22615,0.07538 -4.04175,-2.07015 -6.32932,-3.559016 -4.297,-2.79671 -5.93426,-3.410822 -7.38474,-2.769915 -0.23051,0.101853 -0.9219,0.70415 -1.947329,1.696395 -1.867899,1.807447 -2.846784,2.648078 -3.830608,3.289586 -0.91374,0.59581 -2.270322,1.284591 -2.923986,1.484604 -0.2794,0.08549 -0.544195,0.188644 -0.588434,0.229225 -0.09871,0.09055 -0.216357,0.09618 -0.214603,0.01028 z m 14.01104,-5.0165 c -0.0843,-0.09313 -0.11515,-0.169334 -0.0686,-0.169334 0.0466,0 0.15363,0.0762 0.23791,0.169334 0.0843,0.09313 0.11514,0.169333 0.0686,0.169333 -0.0466,0 -0.15363,-0.0762 -0.23791,-0.169333 z" id="path33"></path></g></g></svg>