<?xml version="1.0" encoding="UTF-8"?><svg xmlns="http://www.w3.org/2000/svg" viewBox="0 0 21.67 10"><g transform="matrix(0.3182,0,0,0.3182,-129.225,-31.914)"><g transform="matrix(3.7794642857142855,0,0,3.7794642857142855,50.15244753190449,0.007366071428562141)"><path style="fill:#3a2c1a" d="m 94.451801,34.510821 c 0.01552,-0.04071 0.294922,-0.276077 0.620889,-0.523045 1.775672,-1.345333 2.709437,-2.177763 4.571999,-4.075832 2.052241,-2.091365 2.595421,-2.543033 3.511641,-2.919998 0.89474,-0.368128 2.35916,-0.193416 3.33929,0.398392 0.57531,0.347375 1.49882,1.227923 2.21768,2.114497 1.20703,1.488665 3.32105,4.529562 3.21951,4.631101 -0.0877,0.08769 -0.31741,-0.163704 -1.0985,-1.202101 -3.56602,-4.740713 -4.60251,-5.630537 -6.55829,-5.630267 -0.94299,1.31e-4 -1.98639,0.675412 -3.44655,2.230577 -2.019253,2.150645 -4.039289,3.85105 -5.729524,4.822944 -0.390063,0.224288 -0.703387,0.298605 -0.648145,0.153732 z m 13.000259,-4.793724 c -0.2601,-0.325975 -0.27701,-0.381596 -0.11604,-0.381596 0.11833,0 0.46066,0.554564 0.38749,0.62773 -0.023,0.02296 -0.14511,-0.0878 -0.27145,-0.246134 z m -0.59659,-0.01471 c -0.031,-0.03104 -0.0564,-0.09581 -0.0564,-0.143933 0,-0.05305 0.0394,-0.04805 0.10019,0.0127 0.0551,0.0551 0.0805,0.119874 0.0564,0.143933 -0.0241,0.02406 -0.0691,0.01835 -0.10019,-0.0127 z" id="path30"></path></g></g></svg>