<?xml version="1.0" encoding="UTF-8"?><svg xmlns="http://www.w3.org/2000/svg" viewBox="0 0 31.14 10"><g transform="matrix(0.4123,0,0,0.4123,-164.154,-145.570)"><g transform="matrix(3.7794642857142855,0,0,3.7794642857142855,50.15244753190449,0.007366071428562141)"><path style="fill:#3a2c1a" d="m 92.794996,99.303331 c 0.577537,-0.277785 1.900572,-1.154238 5.400577,-3.577647 1.58774,-1.099353 2.896587,-1.805854 3.671667,-1.98192 0.93977,-0.21348 2.05505,0.06779 3.42556,0.863929 1.80069,1.046036 5.90273,3.871196 6.3572,4.378336 0.37097,0.413966 -0.0136,0.233705 -1.19415,-0.559751 -0.68949,-0.463404 -1.5803,-1.034464 -1.97958,-1.269022 -0.39929,-0.234557 -1.06604,-0.654476 -1.48167,-0.933152 -1.87954,-1.260209 -3.52691,-2.050037 -4.28161,-2.052807 -0.39721,-0.0015 -1.33162,0.287481 -1.96875,0.608784 -0.27464,0.138496 -1.465353,0.896548 -2.646033,1.684559 -3.088096,2.061061 -4.670235,2.933857 -5.582271,3.079489 -0.292733,0.04674 -0.259953,0.01846 0.27906,-0.240798 z m 12.367574,-3.34044 c -0.32793,-0.236176 -0.39767,-0.353394 -0.21027,-0.353394 0.0607,0 0.23964,0.13335 0.39761,0.296334 0.33864,0.349392 0.25424,0.375099 -0.18734,0.05706 z" id="path35"></path></g></g></svg>