<?xml version="1.0" encoding="UTF-8"?><svg xmlns="http://www.w3.org/2000/svg" viewBox="0 0 35.6 10"><g transform="matrix(0.8511,0,0,0.8511,-431.624,-260.561)"><g transform="matrix(3.7794642857142855,0,0,3.7794642857142855,50.15244753190449,0.007366071428562141)"><path style="fill:#3a2c1a" d="m 125.27927,83.638761 c 0.18627,-0.11758 0.6866,-0.38198 1.11184,-0.58757 0.42524,-0.20559 0.79403,-0.42818 0.81954,-0.49465 0.0255,-0.0665 -0.0925,-0.31927 -0.26231,-0.56179 l -0.30867,-0.44094 -0.38387,0.0518 c -0.21112,0.0285 -0.89821,0.29756 -1.52686,0.59797 -0.62865,0.30041 -1.58115,0.69654 -2.11667,0.88029 -0.53551,0.18376 -1.07844,0.37498 -1.2065,0.42494 -0.14306,0.0558 -0.23283,0.0594 -0.23283,0.009 0,-0.082 1.05607,-0.63554 1.60867,-0.8431 0.16298,-0.0612 0.85993,-0.37566 1.54877,-0.69876 2.09887,-0.98445 2.93745,-0.95971 4.65588,0.13737 0.24292,0.15509 1.01318,0.57554 1.71168,0.93433 0.73895,0.37958 1.1461,0.62745 0.97369,0.5928 -0.32386,-0.0651 -2.05366,-0.88909 -3.25969,-1.55276 -0.4191,-0.23063 -0.91304,-0.44686 -1.09764,-0.48052 l -0.33564,-0.0612 0.16106,0.24566 c 0.57077,0.87059 0.46778,1.02686 -1.11335,1.6893 -1.01063,0.42342 -1.24726,0.47334 -0.7471,0.15764 z" id="path21"></path></g></g></svg>