<?xml version="1.0" encoding="UTF-8"?><svg xmlns="http://www.w3.org/2000/svg" viewBox="0 0 30.63 10"><g transform="matrix(0.7894,0,0,0.7894,-402.388,-86.674)"><g transform="matrix(3.7794642857142855,0,0,3.7794642857142855,50.15244753190449,0.007366071428562141)"><path style="fill:#3a2c1a" d="m 124.88455,32.073025 c 0.0543,-0.06541 0.46923,-0.302833 0.9221,-0.527609 1.2999,-0.645184 1.43604,-0.875842 0.90176,-1.527856 -0.22744,-0.277563 -0.36669,-0.374082 -0.53969,-0.374082 -0.42503,0 -0.94561,0.247914 -1.797,0.855773 -1.02056,0.728636 -2.19713,1.367618 -2.44985,1.330487 -0.14506,-0.02131 -0.0484,-0.108537 0.44294,-0.399863 0.34566,-0.204931 1.10252,-0.710822 1.68192,-1.124202 1.26925,-0.905566 1.64697,-1.041754 2.71967,-0.980591 0.91126,0.05196 1.29283,0.216988 2.86365,1.238517 0.63391,0.412242 1.36211,0.868319 1.61823,1.013504 0.25612,0.145185 0.40373,0.264813 0.32803,0.26584 -0.25125,0.0034 -1.07003,-0.408148 -2.1233,-1.06727 -1.2633,-0.790559 -1.96677,-1.13204 -2.33223,-1.132129 -0.15134,-3.6e-5 -0.27517,0.02153 -0.27517,0.04792 0,0.02639 0.1016,0.181187 0.22578,0.343992 0.33636,0.440987 0.30342,0.757024 -0.11744,1.1268 -0.18877,0.165857 -0.5666,0.391204 -0.83961,0.500771 -1.28224,0.514588 -1.32973,0.530421 -1.22979,0.410002 z" id="path24"></path></g></g></svg>