<?xml version="1.0" encoding="UTF-8"?><svg xmlns="http://www.w3.org/2000/svg" viewBox="0 0 30.2 10"><g transform="matrix(0.6409,0,0,0.6409,-323.497,-101.255)"><g transform="matrix(3.7794642857142855,0,0,3.7794642857142855,50.15244753190449,0.007366071428562141)"><path style="fill:#3a2c1a" d="m 124.77691,45.64178 c 0.0497,-0.04983 0.52525,-0.38524 1.05685,-0.745358 1.00735,-0.682408 1.24385,-0.947911 1.15409,-1.295627 -0.0747,-0.289459 -0.65572,-1.179849 -0.76842,-1.177607 -0.29601,0.0059 -1.16908,0.534686 -2.718,1.646231 -0.82778,0.594031 -0.967,0.667538 -2.02906,1.071292 -1.30949,0.497816 -1.20546,0.25881 0.16788,-0.385718 0.4422,-0.20753 1.15498,-0.655828 1.69333,-1.065008 1.05982,-0.805521 1.89692,-1.355129 2.32389,-1.525771 0.40391,-0.161421 1.24704,-0.120981 1.79238,0.08597 0.24975,0.09477 0.70823,0.35303 1.01886,0.573899 1.78796,1.271337 2.97858,2.084743 3.52351,2.407189 0.48952,0.289658 0.57832,0.37104 0.42992,0.394023 -0.34381,0.05325 -2.07858,-0.967179 -3.71387,-2.184581 -0.76824,-0.571926 -1.44664,-0.932544 -1.75683,-0.933891 -0.10478,-4.55e-4 -0.1905,0.01569 -0.1905,0.03588 0,0.02019 0.12192,0.232836 0.27093,0.472548 0.44884,0.722024 0.33837,1.188649 -0.40696,1.719043 -0.38439,0.273544 -2.01353,1.073557 -1.848,0.907486 z" id="path25"></path></g></g></svg>