<?xml version="1.0" encoding="UTF-8"?><svg xmlns="http://www.w3.org/2000/svg" viewBox="0 0 28.56 10"><g transform="translate(28.56 0) scale(-1 1)"><g transform="matrix(0.6288,0,0,0.6288,-318.444,-131.272)"><g transform="matrix(3.7794642857142855,0,0,3.7794642857142855,50.15244753190449,0.007366071428562141)"><path style="fill:#3a2c1a" d="m 126.2106,59.134042 c 0,-0.02446 0.22728,-0.288774 0.50506,-0.587368 0.80849,-0.86906 0.79625,-1.081157 -0.11452,-1.984373 l -0.63177,-0.626542 -0.51638,0.193112 c -0.53895,0.201552 -1.21147,0.671662 -2.29899,1.607062 -0.61035,0.524966 -2.07175,1.422449 -2.16476,1.329434 -0.0239,-0.02387 0.31249,-0.309397 0.74748,-0.634496 0.43499,-0.325099 1.01948,-0.805178 1.29888,-1.066842 0.83422,-0.781258 1.66955,-1.38733 2.24869,-1.631523 0.47905,-0.201986 0.65849,-0.230357 1.47665,-0.233461 0.91034,-0.0035 0.94469,0.0034 1.524,0.305846 0.32596,0.17016 1.03081,0.621177 1.56633,1.002261 0.53552,0.381084 1.04987,0.73148 1.143,0.778658 0.48199,0.244162 1.48167,0.8821 1.48167,0.945522 0,0.100119 -0.35563,0.0024 -1.05834,-0.290706 -0.65113,-0.271625 -1.05063,-0.50857 -2.32486,-1.378863 -1.03314,-0.705635 -1.6673,-0.980526 -2.2683,-0.983243 -0.24448,-0.0011 -0.4445,0.03232 -0.4445,0.07428 0,0.04196 0.23036,0.275853 0.51191,0.519764 0.97993,0.848935 0.98955,1.22884 0.0537,2.123347 -0.55384,0.52939 -0.73497,0.662009 -0.73497,0.538131 z" id="path26"></path></g></g></g></svg>