<?xml version="1.0" encoding="UTF-8"?><svg xmlns="http://www.w3.org/2000/svg" viewBox="0 0 26.9 10"><g transform="translate(26.9 0) scale(-1 1)"><g transform="matrix(0.6199,0,0,0.6199,-307.440,-213.742)"><g transform="matrix(3.7794642857142855,0,0,3.7794642857142855,50.15244753190449,0.007366071428562141)"><path style="fill:#3a2c1a" d="m 118.22519,95.235377 c 0,-0.02099 0.30558,-0.234187 0.67907,-0.473768 0.37348,-0.239581 1.02469,-0.729025 1.44712,-1.087653 1.45663,-1.236627 1.98193,-1.632075 2.5287,-1.903621 0.50782,-0.252199 0.61156,-0.272425 1.397,-0.272364 1.17559,9e-5 1.1691,-0.0036 3.50396,1.971588 0.29636,0.250706 0.74513,0.58779 0.99726,0.749076 0.50542,0.323312 0.54222,0.528962 0.0585,0.326847 -0.55506,-0.231919 -1.24869,-0.702423 -2.18726,-1.483672 -1.07969,-0.898715 -1.76166,-1.267406 -2.34451,-1.267504 -0.21844,-3.7e-5 -0.4193,0.03574 -0.44635,0.07951 -0.0271,0.04377 0.0932,0.186643 0.26717,0.3175 0.174,0.130856 0.47963,0.394833 0.67919,0.586614 0.33066,0.317771 0.36283,0.385533 0.36283,0.764119 0,0.404462 -0.0168,0.432072 -0.635,1.046188 -0.34925,0.346919 -0.635,0.587243 -0.635,0.534054 0,-0.05319 0.20787,-0.350305 0.46193,-0.660257 0.25407,-0.309952 0.48492,-0.63597 0.51301,-0.724485 0.0823,-0.259283 -0.20164,-0.73517 -0.62466,-1.046961 -0.21594,-0.159158 -0.50195,-0.40422 -0.63558,-0.544581 -0.20277,-0.212966 -0.2766,-0.242418 -0.44615,-0.177957 -0.32315,0.122863 -1.34369,0.844361 -2.43548,1.721831 -0.56883,0.457167 -1.33419,0.97858 -1.75683,1.196868 -0.4119,0.212736 -0.74891,0.369618 -0.74891,0.348626 z" id="path28"></path></g></g></g></svg>