<?xml version="1.0" encoding="UTF-8"?><svg xmlns="http://www.w3.org/2000/svg" viewBox="0 0 24.88 10"><g transform="translate(24.88 0) scale(-1 1)"><g transform="matrix(0.6014,0,0,0.6014,-303.464,-45.731)"><g transform="matrix(3.7794642857142855,0,0,3.7794642857142855,50.15244753190449,0.007366071428562141)"><path style="fill:#3a2c1a" d="m 120.5008,24.172159 c 0.0394,-0.111928 1.61239,-1.557406 2.32008,-2.13204 0.83602,-0.678847 2.02804,-1.391133 2.60582,-1.557098 0.32877,-0.09444 0.61974,-0.123488 0.8664,-0.0865 0.60378,0.09054 1.46049,0.586632 2.36392,1.368863 0.46566,0.403196 1.18483,1.002268 1.59815,1.331269 0.41331,0.329001 0.70616,0.613289 0.65077,0.631751 -0.15781,0.05261 -1.81822,-0.984855 -2.53369,-1.583109 -1.1138,-0.931332 -2.08863,-1.462653 -2.43775,-1.328681 -0.10846,0.04162 -0.0284,0.165847 0.38251,0.593814 0.47885,0.498671 0.51967,0.57103 0.51967,0.921123 0,0.317496 -0.0612,0.461401 -0.37259,0.875599 -0.7361,0.979224 -1.00748,1.031554 -0.34707,0.06692 0.55491,-0.810536 0.53576,-1.030694 -0.15426,-1.773517 -0.45624,-0.491163 -0.56617,-0.568453 -0.74475,-0.523632 -0.36996,0.09285 -1.69668,0.980506 -2.72367,1.822303 -1.54195,1.263883 -1.78739,1.450555 -1.90888,1.451844 -0.0621,6.58e-4 -0.10019,-0.03485 -0.0847,-0.07891 z" id="path23"></path></g></g></g></svg>