<?xml version="1.0" encoding="UTF-8"?><svg xmlns="http://www.w3.org/2000/svg" viewBox="0 0 33.43 10"><g transform="matrix(0.8496,0,0,0.8496,-429.709,-41.674)"><g transform="matrix(3.7794642857142855,0,0,3.7794642857142855,50.15244753190449,0.007366071428562141)"><path style="fill:#3a2c1a" d="m 120.96627,15.656302 c 0.11642,-0.0923 0.64982,-0.379774 1.18533,-0.63882 0.53552,-0.259046 1.25942,-0.636565 1.60867,-0.838931 1.34924,-0.781793 2.34633,-1.051116 3.31431,-0.895227 0.75154,0.121032 1.29842,0.411319 2.14669,1.139466 0.4191,0.359753 0.92386,0.756399 1.12168,0.881434 0.3644,0.230318 0.45136,0.354338 0.24846,0.354338 -0.16561,0 -1.50971,-0.819506 -1.9758,-1.204665 -0.53661,-0.443424 -0.95937,-0.651072 -1.58625,-0.779112 -0.50982,-0.10413 -0.81376,-0.09058 -0.81376,0.03627 0,0.03561 0.12777,0.162196 0.28393,0.281304 0.15616,0.119109 0.33324,0.335608 0.39351,0.481108 0.0966,0.233319 0.0903,0.290342 -0.0536,0.483074 -0.21845,0.292586 -0.87786,0.832018 -0.87786,0.718134 0,-0.04976 0.1524,-0.266565 0.33867,-0.481779 0.18627,-0.215214 0.33867,-0.447764 0.33867,-0.516777 0,-0.201045 -0.76365,-0.964948 -0.96409,-0.964408 -0.0984,2.65e-4 -0.86471,0.337445 -1.70291,0.749289 -1.41054,0.69306 -2.96806,1.369458 -3.14317,1.365013 -0.0408,-10e-4 0.0211,-0.07741 0.1375,-0.16971 z" id="path22"></path></g></g></svg>