<?xml version="1.0" encoding="UTF-8"?><svg xmlns="http://www.w3.org/2000/svg" viewBox="0 0 65.35 16"><g transform="matrix(0.1929,0,0,0.1929,-3.257,-54.573)"><g transform="matrix(3.7794642857142855,0,0,3.7794642857142855,0,0.007366071428562141)"><path style="fill:#3a2c1a" d="m 84.419761,96.294385 c -0.966972,-0.55056 -2.311071,-1.3753 -2.666044,-1.6359 -0.209024,-0.15345 -0.622861,-0.44002 -0.919638,-0.63681 -0.869626,-0.57666 -1.568969,-1.24209 -2.298292,-2.18684 -0.375482,-0.48639 -0.701457,-0.88435 -0.724391,-0.88435 -0.106786,0 -0.545968,0.8204 -0.545968,1.01987 0,0.28365 0.370914,0.80952 1.087117,1.5413 0.307637,0.31432 0.525776,0.5715 0.484751,0.5715 -0.04102,0 -0.369378,-0.26618 -0.729674,-0.59151 -0.731492,-0.6605 -0.688407,-0.6718 -0.803082,0.21051 -0.0363,0.27925 -0.0091,0.60038 0.07993,0.94355 0.159949,0.61657 0.160398,0.62278 0.04498,0.62278 -0.04949,0 -0.206191,-0.25631 -0.348232,-0.56957 l -0.258255,-0.56957 -0.209306,0.25207 c -0.172474,0.20771 -0.157362,0.15202 0.08588,-0.31645 0.342849,-0.66031 0.462929,-1.31052 0.310147,-1.67937 -0.05691,-0.13738 -0.132508,-0.24978 -0.168007,-0.24978 -0.0355,0 -0.208991,0.16193 -0.38554,0.35984 -0.823364,0.92297 -1.744942,1.85548 -1.789602,1.81082 -0.02716,-0.0272 0.04593,-0.17424 0.162435,-0.32685 0.199242,-0.261 0.406213,-0.49683 1.854145,-2.11264 0.554038,-0.61828 0.68262,-0.83183 0.500849,-0.83183 -0.04481,0 -0.310333,0.20421 -0.590059,0.4538 -0.279727,0.2496 -0.785992,0.59863 -1.125034,0.77564 -0.87841,0.45859 -1.50322,0.89707 -1.884564,1.32257 -0.509096,0.56805 -1.272477,1.15005 -1.982238,1.51125 -0.354368,0.18034 -0.853585,0.50193 -1.109371,0.71465 -0.255787,0.21271 -0.509846,0.38675 -0.564576,0.38675 -0.05473,0 -0.1693,0.0252 -0.2546,0.0561 -0.242658,0.0877 0.95225,-0.99364 1.484373,-1.34329 0.99533,-0.65403 1.383682,-0.95831 1.896136,-1.48565 0.60016,-0.61759 1.22687,-1.07008 2.258269,-1.63047 0.392629,-0.21333 0.726778,-0.42659 0.742555,-0.47392 0.01578,-0.0473 -0.184424,-0.15323 -0.444888,-0.23533 -0.321663,-0.1014 -0.579026,-0.25795 -0.802319,-0.48803 l -0.328746,-0.33875 -0.617569,0.53611 c -0.748639,0.6499 -1.49974,1.20499 -1.555305,1.14942 -0.02243,-0.0224 0.381756,-0.43346 0.898186,-0.9134 0.51643,-0.47995 0.988515,-0.97098 1.049078,-1.09119 0.145819,-0.28943 0.235461,-1.70969 0.143948,-2.28065 -0.06273,-0.39139 -0.133049,-0.51302 -0.513965,-0.889 l -0.44129,-0.43557 -0.129971,0.18954 c -0.07148,0.10425 -0.449754,0.45884 -0.840599,0.78796 -0.44464,0.37443 -0.865057,0.82638 -1.123209,1.20746 -0.569929,0.84131 -1.015101,1.32626 -1.864107,2.03067 -0.400218,0.33206 -0.965952,0.8305 -1.257188,1.10765 -0.291235,0.27714 -0.554506,0.47891 -0.585046,0.44837 -0.03054,-0.0305 0.591323,-0.69395 1.381916,-1.47426 0.891795,-0.88018 1.602014,-1.66341 1.870984,-2.06332 0.482863,-0.71793 0.732828,-0.99067 1.570697,-1.7138 0.731228,-0.63109 0.801088,-0.74394 0.873035,-1.41031 0.05988,-0.55459 0.05479,-2.66873 -0.0077,-3.2163 -0.01861,-0.16298 -0.03627,-0.33083 -0.03925,-0.373 -0.003,-0.0422 -0.254746,0.27188 -0.559496,0.69789 -0.30475,0.42601 -0.691339,0.87961 -0.859088,1.008 -0.167748,0.1284 -0.604409,0.50015 -0.970358,0.82611 -0.962509,0.85735 -2.038487,1.73567 -2.126268,1.73567 -0.06847,0 1.938275,-2.0149 2.955499,-2.96752 0.226218,-0.21185 0.62858,-0.70874 0.894138,-1.1042 0.265557,-0.39546 0.748087,-0.98851 1.072288,-1.3179 0.3242,-0.32938 0.686485,-0.79036 0.805076,-1.02439 0.327527,-0.64634 0.742798,-1.90453 0.656938,-1.99039 -0.04348,-0.0435 -0.248241,0.14567 -0.487704,0.45051 -0.964367,1.22764 -3.48442,3.35771 -6.127763,5.17948 -1.195369,0.82383 -1.588745,1.20362 -2.435184,2.35108 -0.727989,0.98688 -1.203845,1.44599 -2.540286,2.45091 -0.907696,0.68253 -1.111705,0.88391 -1.620025,1.59914 -0.726159,1.02174 -2.031429,2.31531 -2.995413,2.96856 -0.67494,0.45738 -1.701404,0.85808 -1.543459,0.60252 0.02839,-0.046 0.421168,-0.32727 0.87283,-0.62517 1.211329,-0.79895 2.700573,-2.24497 2.324037,-2.25659 -0.03493,-0.001 -0.349251,-0.25165 -0.698501,-0.55682 -0.34925,-0.30517 -1.076408,-0.85425 -1.615907,-1.22018 -0.539499,-0.36592 -1.313472,-0.91614 -1.719941,-1.2227 -1.005775,-0.75858 -1.565229,-1.02676 -2.294485,-1.0999 -0.704733,-0.0707 -1.354315,-0.22817 -2.320717,-0.56266 -0.391628,-0.13554 -0.744053,-0.24645 -0.783167,-0.24645 -0.208777,0 -0.0042,0.21607 0.534798,0.56472 0.333253,0.21558 0.954396,0.72394 1.380318,1.12969 0.830393,0.79108 1.105227,0.98671 2.289435,1.62967 1.013987,0.55054 0.519251,0.4309 -0.762,-0.18427 -0.828905,-0.39798 -1.148526,-0.60834 -1.735667,-1.14232 -0.395817,-0.35998 -0.975865,-0.82349 -1.288997,-1.03003 -0.743419,-0.49036 -1.544809,-1.55472 -2.290266,-3.04179 -0.473802,-0.94517 -0.657666,-1.2143 -1.301412,-1.905 -0.412312,-0.44238 -0.835917,-0.91493 -0.941344,-1.05009 -0.105427,-0.13517 -0.219727,-0.21754 -0.254,-0.18304 -0.03427,0.0345 -0.05889,0.30297 -0.05471,0.59659 0.0068,0.47774 0.06655,0.65528 0.568376,1.68893 0.308425,0.63529 0.528829,1.13533 0.489787,1.1112 -0.08118,-0.0502 -0.658338,-1.01248 -0.931289,-1.55275 -0.100816,-0.19955 -0.216305,-0.34243 -0.256642,-0.3175 -0.04034,0.0249 -0.18757,0.24535 -0.327185,0.48983 -0.139615,0.24447 -0.42942,0.64812 -0.64401,0.897 l -0.390164,0.4525 0.233762,0.42964 c 0.128569,0.23631 0.399218,0.61371 0.601442,0.83867 0.202223,0.22496 0.320251,0.40902 0.262282,0.40902 -0.117048,0 -0.928843,-0.79272 -1.083805,-1.05833 l -0.09879,-0.16934 -0.12835,0.16934 c -0.450132,0.59385 -1.269125,1.90098 -1.349241,2.1534 -0.09334,0.29409 0.566253,0.83003 1.840679,1.49559 0.606742,0.31687 1.062184,0.58979 1.012093,0.60649 -0.05009,0.0167 -0.551365,-0.1874 -1.113943,-0.45354 -0.562578,-0.26615 -1.044741,-0.46203 -1.071472,-0.4353 -0.07894,0.0789 0.225339,0.64747 0.48607,0.9082 0.132686,0.13269 0.365197,0.26808 0.516689,0.30087 0.413986,0.0896 1.188069,0.5019 2.135677,1.13746 0.467004,0.31323 1.077686,0.69843 1.357071,0.85601 0.352133,0.19861 0.460792,0.29559 0.354184,0.31612 -0.178561,0.0344 -1.301353,-0.51711 -2.07118,-1.01733 -0.292429,-0.19002 -0.548168,-0.32901 -0.56831,-0.30886 -0.06239,0.0624 0.192184,0.48953 0.666909,1.11898 0.551662,0.73146 0.615901,0.78768 1.364424,1.19408 0.325967,0.17698 0.658443,0.37871 0.738837,0.44829 0.159533,0.13806 0.1149,0.33058 -0.04787,0.20649 -0.05406,-0.0412 -0.326896,-0.16487 -0.606296,-0.2748 -0.2794,-0.10992 -0.690652,-0.30665 -0.913893,-0.43718 -0.223241,-0.13052 -0.451841,-0.23614 -0.508,-0.2347 -0.05616,10e-4 -0.462198,0.15251 -0.902309,0.33574 -0.440111,0.18322 -0.815137,0.3182 -0.833391,0.29995 -0.04781,-0.0478 0.80757,-0.52839 1.231426,-0.69186 0.197909,-0.0763 0.35967,-0.18123 0.359471,-0.23311 -1.99e-4,-0.0519 -0.116316,-0.26578 -0.258038,-0.47533 -0.141722,-0.20955 -0.410105,-0.63846 -0.596407,-0.95313 -0.267371,-0.4516 -0.431511,-0.62534 -0.779129,-0.8247 -0.242218,-0.13892 -0.532054,-0.25294 -0.644078,-0.25337 -0.112025,-4.4e-4 -0.454925,0.16918 -0.762,0.37694 -0.544892,0.36866 -2.924904,1.48754 -3.153005,1.48229 -0.15691,-0.004 0.409356,-0.35229 1.324686,-0.81566 1.143764,-0.57902 2.241467,-1.24316 2.242633,-1.35687 5.68e-4,-0.0555 -0.04103,-0.12684 -0.09245,-0.15861 -0.05142,-0.0318 -0.156847,-0.19595 -0.234292,-0.36483 -0.129642,-0.28271 -0.457877,-0.87463 -0.74733,-1.3477 l -0.118685,-0.19397 -0.36478,0.32097 c -0.345007,0.30358 -2.129673,1.37931 -2.288304,1.37931 -0.162554,0 0.264782,-0.3573 0.874282,-0.73099 0.710532,-0.43563 1.383107,-0.96248 1.691036,-1.32462 0.186182,-0.21896 0.77046,-1.14233 1.26024,-1.99163 0.387848,-0.67255 0.423261,-0.69384 -2.922995,1.7573 -0.338787,0.24816 -0.636394,0.43079 -0.661349,0.40584 -0.02495,-0.025 0.728486,-0.66505 1.674311,-1.42243 2.228193,-1.78425 3.196049,-2.67362 3.48267,-3.20024 0.249068,-0.45762 0.440271,-1.27217 0.325551,-1.38689 -0.03979,-0.0398 -0.248755,0.13451 -0.465706,0.38845 -0.426875,0.49967 -1.312187,1.18982 -1.919166,1.4961 -0.20955,0.10574 -0.785898,0.33672 -1.280774,0.51327 -0.865961,0.30896 -1.203399,0.49755 -3.07956,1.72113 -1.482509,0.96685 -2.683002,1.64867 -3.6195,2.05569 -0.500591,0.21757 -0.909568,0.41713 -0.908837,0.44347 0.0015,0.0537 1.462287,0.81143 2.242337,1.16313 0.435493,0.19634 0.476992,0.23338 0.29075,0.25951 -0.208275,0.0292 -1.347017,-0.34696 -2.238083,-0.73934 -0.232833,-0.10253 -0.594783,-0.23959 -0.804333,-0.30459 -0.440665,-0.13668 -3.091465,-0.33844 -3.40679,-0.2593 -0.131397,0.033 -0.254584,0.15506 -0.322911,0.32001 -0.143309,0.34598 -0.01072,0.59804 0.513816,0.97678 0.208753,0.15073 0.493851,0.37307 0.633551,0.49409 0.250188,0.21673 0.246095,0.21616 -0.272752,-0.038 -0.289714,-0.14193 -0.56317,-0.25805 -0.60768,-0.25805 -0.04451,0 -0.127356,0.28781 -0.184102,0.63957 -0.134077,0.83114 -0.26318,0.70743 -0.260512,-0.24963 0.0013,-0.46476 -0.04111,-0.813 -0.116748,-0.95879 -0.06533,-0.12592 -0.0969,-0.31615 -0.07015,-0.42272 0.06229,-0.24818 0.02802,-0.24471 -0.594335,0.0602 -0.505257,0.24755 -1.635772,0.60679 -2.276158,0.72328 -0.175139,0.0318 -0.339753,0.0924 -0.365808,0.13457 -0.02605,0.0422 0.320753,0.46646 0.770684,0.9429 0.449932,0.47644 0.855832,0.93633 0.902001,1.02198 0.174065,0.32292 -0.183637,0.0913 -1.090071,-0.70587 -1.354006,-1.19078 -1.728032,-1.58815 -2.112019,-2.24386 -0.859976,-1.46851 -1.044745,-1.73196 -1.704764,-2.43074 -0.389801,-0.41269 -0.772526,-0.90893 -0.861997,-1.11766 -0.08851,-0.20647 -0.294964,-1.01655 -0.458796,-1.80017 -0.163832,-0.78362 -0.35374,-1.58235 -0.422017,-1.77497 -0.166202,-0.46886 -0.381697,-0.87746 -0.462776,-0.87746 -0.03629,0 -0.112768,0.27844 -0.169952,0.61876 -0.05718,0.34032 -0.258008,1.0547 -0.446276,1.5875 -0.486918,1.378 -0.668381,2.02185 -0.666248,2.36391 0.0031,0.49507 0.293265,0.9889 0.934669,1.59062 0.331618,0.3111 0.797031,0.81432 1.034251,1.11826 0.23722,0.30394 0.734476,0.86786 1.105012,1.25315 0.370536,0.38529 0.650184,0.72405 0.621439,0.75279 -0.106908,0.10691 -1.073472,-0.80765 -2.721584,-2.57515 -0.271383,-0.29105 -0.525723,-0.52917 -0.565201,-0.52917 -0.09454,0 -0.08883,1.47545 0.0073,1.8897 0.04485,0.19324 0.245514,0.51935 0.49863,0.81037 0.232966,0.26784 0.538334,0.65703 0.678594,0.86486 0.14026,0.20782 0.476943,0.58496 0.748184,0.83807 1.54663,1.44328 2.664719,2.53967 2.589936,2.53967 -0.131356,0 -1.06771,-0.7697 -2.068433,-1.70029 -0.496647,-0.46184 -0.925272,-0.83971 -0.9525,-0.83971 -0.11141,0 -0.03685,0.53931 0.161256,1.16643 0.271604,0.85978 1.128924,2.17732 2.063477,3.17118 0.163401,0.17377 0.272591,0.34045 0.242644,0.37039 -0.110747,0.11075 -0.626099,-0.31721 -1.35527,-1.12544 -0.917373,-1.01684 -1.360786,-1.84733 -1.551159,-2.90523 -0.207781,-1.15464 -0.264495,-1.3017 -0.689119,-1.78697 -0.22165,-0.25331 -0.502779,-0.58807 -0.624732,-0.74391 l -0.221731,-0.28335 -0.187254,0.32761 c -0.10299,0.18019 -0.370962,0.47034 -0.595493,0.64478 -0.224532,0.17443 -0.521411,0.51733 -0.659732,0.762 -0.13832,0.24466 -0.636602,0.89209 -1.107291,1.43874 -0.47069,0.54665 -0.950249,1.14352 -1.065687,1.32638 -0.115437,0.18287 -0.24953,0.35699 -0.297983,0.38693 -0.37963,0.23463 0.606892,-1.40518 1.351202,-2.24598 0.270108,-0.30513 0.623068,-0.79287 0.784355,-1.08387 0.19585,-0.35336 0.458782,-0.66234 0.791631,-0.93026 0.729809,-0.58745 0.889264,-1.01571 0.856166,-2.29943 -0.01896,-0.73547 -0.07372,-1.12625 -0.223847,-1.59735 l -0.198745,-0.62368 -0.257962,0.49668 c -0.202961,0.39078 -0.728586,0.96321 -2.465263,2.68479 -1.214016,1.20346 -2.316486,2.26646 -2.449933,2.36224 -0.517834,0.37164 -0.0482,-0.16865 1.857813,-2.13735 2.329698,-2.40632 2.657759,-2.79328 3.079879,-3.63283 0.326656,-0.64969 1.445717,-3.57108 1.440581,-3.76074 -0.004,-0.14626 -0.213846,0.15666 -0.605738,0.87424 -0.467088,0.85526 -1.228092,1.9552 -1.815899,2.62466 -0.265764,0.30269 -0.907809,1.08374 -1.426766,1.73567 -1.753823,2.20322 -3.151447,3.49638 -4.530033,4.19145 -0.349729,0.17633 -1.207372,0.72761 -1.905872,1.22506 -1.4445635,1.02877 -1.8473725,1.25425 -2.4807305,1.38864 -0.641076,0.13602 -0.861843,0.27161 -1.691553,1.0389 -0.987692,0.91338 -1.874702,1.63119 -1.93777,1.56812 -0.0626,-0.0626 1.088287,-1.33314 1.9353,-2.13649 0.634582,-0.60186 0.942146,-0.77626 1.771816,-1.00466 0.470042,-0.1294 0.915262,-0.40255 2.4029375,-1.47429 0.4191,-0.30192 1.13746,-0.75078 1.596355,-0.99748 1.556583,-0.83678 2.614315,-1.83847 4.637645,-4.39192 0.442789,-0.5588 1.043306,-1.2827 1.334484,-1.60866 0.694556,-0.77754 1.289891,-1.67794 2.080553,-3.14665 0.355098,-0.65963 0.698753,-1.2434 0.763678,-1.29729 0.06493,-0.0539 0.223504,-0.0857 0.352397,-0.0707 0.507501,0.0591 1.127552,1.27369 1.499174,2.9367 0.118245,0.52914 0.231327,0.97842 0.251295,0.99838 0.01997,0.02 0.27918,-0.11226 0.576029,-0.29384 0.296848,-0.18159 1.157452,-0.66123 1.912453,-1.06586 1.507574,-0.80798 2.007636,-1.15459 3.048403,-2.11295 0.576995,-0.53131 0.778921,-0.66343 1.185179,-0.77544 0.269329,-0.0743 0.642089,-0.19953 0.828355,-0.27837 0.473184,-0.20027 1.679237,-1.23178 2.602464,-2.22582 0.428331,-0.46118 0.826467,-0.83852 0.884747,-0.83852 0.05828,0 0.293692,0.27623 0.52314,0.61384 0.229447,0.3376 0.660872,0.88256 0.958721,1.21101 0.297849,0.32845 0.970045,1.1563 1.493769,1.83968 l 0.952226,1.2425 1.372467,0.66638 c 0.754857,0.36651 1.726231,0.88168 2.15861,1.14482 0.432379,0.26314 0.842711,0.47844 0.911849,0.47844 0.244205,0 1.124634,-0.40772 1.648189,-0.76326 0.579483,-0.39352 1.06827,-0.85769 1.759977,-1.67134 0.247221,-0.2908 0.502976,-0.52873 0.568346,-0.52873 0.06537,0 0.27758,0.23373 0.47158,0.51941 0.194,0.28568 0.710097,0.88575 1.146882,1.3335 0.643312,0.65946 0.87513,0.97088 1.220478,1.63959 0.341554,0.66135 0.463021,0.8255 0.610877,0.8255 0.101503,0 0.707293,-0.24936 1.346199,-0.55413 0.865976,-0.41308 1.458293,-0.62883 2.327128,-0.84766 1.451679,-0.36562 2.718132,-0.962 3.83286,-1.80492 0.599007,-0.45294 0.864651,-0.60329 1.065925,-0.60329 0.302871,0 1.593602,0.62968 2.369567,1.15599 0.62068,0.42099 1.204524,0.72035 1.958162,1.00401 0.641515,0.24147 0.861819,0.39402 1.744782,1.20816 0.359018,0.33104 0.838205,0.6729 1.146263,0.81777 l 0.529348,0.24893 0.316389,-0.29905 c 0.174014,-0.16448 0.88789,-0.69202 1.58639,-1.17231 2.389824,-1.64326 4.689858,-3.61128 5.875733,-5.02757 0.670205,-0.80042 1.051477,-1.10146 1.312153,-1.03604 0.117239,0.0294 0.478726,0.42395 0.918838,1.00281 0.705953,0.92851 0.898268,1.10612 2.137943,1.97453 0.85959,0.60216 2.080692,1.73161 2.436447,2.25358 0.188401,0.27642 0.375938,0.7094 0.483597,1.11651 0.247099,0.93441 0.449339,1.28707 1.101883,1.92142 0.428435,0.4165 0.824581,0.68807 1.592443,1.09169 1.5533,0.81648 3.567017,2.36744 4.606951,3.54828 1.059695,1.20328 2.237759,2.12758 3.621679,2.84155 0.58208,0.3003 1.13453,0.60759 1.22767,0.68286 0.16198,0.13092 0.15648,0.13458 -0.127,0.0845 -1.31069,-0.23141 -1.883329,-0.48594 -3.047196,-1.35441 -0.870937,-0.64989 -1.439879,-1.18099 -2.540808,-2.37181 -0.753656,-0.81519 -3.638872,-2.90476 -3.893351,-2.81969 -0.164938,0.0551 0.618159,1.0543 1.615944,2.0618 0.554074,0.55947 1.007407,1.04784 1.007407,1.08527 0,0.2261 -1.978761,-1.52434 -2.413,-2.13457 -0.186266,-0.26176 -0.784135,-0.91407 -1.328597,-1.44959 -1.235623,-1.21532 -1.672191,-1.85051 -1.925565,-2.80164 -0.104325,-0.39161 -0.280494,-0.86934 -0.391487,-1.06161 -0.245402,-0.4251 -1.569356,-1.68743 -2.323351,-2.21522 -1.177517,-0.82424 -1.467996,-1.08747 -2.04036,-1.84898 -0.325859,-0.43355 -0.622758,-0.80699 -0.659774,-0.82986 -0.08009,-0.0495 -0.277845,1.42176 -0.294089,2.18794 -0.01086,0.51235 0.0088,0.56944 0.387689,1.12395 0.219523,0.3213 0.482123,0.77308 0.583557,1.00397 0.281064,0.63975 0.614921,1.08286 1.571139,2.08528 0.757082,0.79366 0.983418,1.08617 0.84045,1.08617 -0.08733,0 -1.717197,-1.55828 -2.085661,-1.99406 -0.226728,-0.26815 -0.507575,-0.68891 -0.624105,-0.93502 -0.11653,-0.24612 -0.342835,-0.63073 -0.502898,-0.8547 -0.160064,-0.22397 -0.354456,-0.55962 -0.431984,-0.74588 l -0.140959,-0.33867 -0.248625,0.29633 c -0.136744,0.16299 -0.372545,0.48597 -0.524003,0.71775 l -0.275377,0.42142 -0.01879,1.99158 c -0.01034,1.09537 -0.02526,2.09768 -0.03317,2.22735 -0.01814,0.29744 0.197243,0.5296 0.973425,1.04928 0.331396,0.22187 0.926389,0.74342 1.322206,1.15898 0.443689,0.46583 0.995644,0.93373 1.439333,1.22015 0.845678,0.54593 0.80383,0.51322 0.739242,0.57781 -0.02804,0.028 -0.405865,-0.13228 -0.839611,-0.35625 -0.655513,-0.33849 -0.927082,-0.54717 -1.608856,-1.23631 -0.451124,-0.456 -0.851174,-0.8291 -0.889,-0.8291 -0.03783,-1e-5 -0.06564,0.5729 -0.06181,1.27311 0.008,1.45759 0.05588,1.58656 0.714436,1.92307 0.459319,0.2347 0.761307,0.23928 1.39527,0.0212 0.606245,-0.20858 0.928662,-0.2145 1.121833,-0.0206 0.08149,0.0818 0.477058,0.54891 0.879037,1.03802 0.855834,1.04135 1.733615,1.76296 3.576742,2.94039 0.602107,0.38463 1.86941,1.31967 2.190555,1.61622 0.448965,0.41459 0.236198,0.47202 -0.402167,0.10856 z m -22.859725,-6.82862 c 0.566795,-0.76206 0.812536,-1.00557 1.686272,-1.671 0.562532,-0.42842 1.171939,-0.91282 1.354237,-1.07645 0.310975,-0.27912 1.44828,-1.74417 1.540458,-1.98439 0.02744,-0.0715 -0.132307,-0.17465 -0.46072,-0.29747 -0.367208,-0.13732 -0.732641,-0.38889 -1.355634,-0.93322 -0.744688,-0.65066 -0.954598,-0.78462 -1.65433,-1.05574 -0.440782,-0.17079 -1.137677,-0.52458 -1.548657,-0.78619 -1.148542,-0.73112 -2.005672,-1.21333 -2.100608,-1.18178 -0.04728,0.0157 -0.20026,0.29555 -0.33996,0.62185 -0.1397,0.3263 -0.362149,0.77385 -0.49433,0.99456 -0.153038,0.25553 -0.223423,0.46865 -0.193783,0.58674 0.07561,0.30128 1.653238,1.84937 2.602746,2.55404 1.047713,0.77754 0.980192,0.71844 0.820674,0.71844 -0.258859,0 -1.923144,-1.19878 -2.471931,-1.78052 -0.306193,-0.32458 -0.576439,-0.59015 -0.600546,-0.59015 -0.09243,0 -0.03779,0.79747 0.0945,1.37908 0.127783,0.56182 0.180873,0.65225 0.696481,1.18633 0.35725,0.37005 0.765441,0.68707 1.134048,0.88077 0.316742,0.16644 0.559039,0.31948 0.538437,0.34008 -0.0206,0.0206 -0.114415,-0.004 -0.208476,-0.0541 -0.09406,-0.0503 -0.232014,-0.0915 -0.306563,-0.0915 -0.1131,0 -0.11935,0.0315 -0.03774,0.1905 0.05379,0.10477 0.214454,0.31375 0.357025,0.46439 0.142571,0.15065 0.235887,0.29723 0.207369,0.32575 -0.0849,0.0849 -2.480452,-2.34962 -2.662105,-2.70541 l -0.167347,-0.32777 -0.216953,0.37021 c -0.237109,0.40459 -0.545339,0.72238 -0.624183,0.64353 -0.02749,-0.0275 0.06619,-0.21881 0.208171,-0.42517 0.440472,-0.64021 0.54617,-1.00531 0.502534,-1.73588 -0.05103,-0.8544 -0.415264,-1.61448 -0.617138,-1.28784 -0.02866,0.0464 -0.328913,0.2122 -0.667232,0.36851 -0.338319,0.15631 -0.928589,0.50386 -1.31171,0.77232 -1.192183,0.83538 -0.905429,0.37707 0.370055,-0.59146 0.325966,-0.24752 0.812499,-0.54674 1.081184,-0.66494 0.292718,-0.12878 0.649032,-0.38136 0.889,-0.6302 0.411208,-0.4264 0.857237,-1.15368 0.764444,-1.24647 -0.02866,-0.0287 -0.340584,0.16124 -0.693176,0.422 -0.88261,0.65272 -2.285563,1.25022 -3.666815,1.56167 -0.720722,0.1625 -1.449372,0.39942 -2.100898,0.68308 -0.548613,0.23886 -1.131987,0.46224 -1.296386,0.4964 -0.164399,0.0342 -0.313934,0.10718 -0.3323,0.16228 -0.01837,0.0551 0.112183,0.25063 0.29011,0.43451 0.279593,0.28894 0.495349,0.39297 1.589554,0.76639 0.87927,0.30007 1.512983,0.46089 2.074334,0.52641 0.977455,0.11409 1.764712,0.4728 2.724187,1.24128 0.343252,0.27493 0.947945,0.73028 1.343762,1.01189 0.395816,0.28161 1.138766,0.91393 1.651,1.40516 0.512233,0.49122 0.934511,0.89502 0.938395,0.89733 0.0039,0.002 0.305631,-0.39723 0.670547,-0.88786 z m -33.519583,-1.52536 c 0.545707,-0.16541 1.376595,-0.49879 1.846418,-0.74084 l 0.854222,-0.44008 1.434524,-0.0121 c 0.788988,-0.007 1.665288,-0.038 1.947334,-0.0696 0.989116,-0.11102 3.190641,-1.17082 5.084809,-2.44778 0.2794,-0.18836 0.75565,-0.48125 1.058333,-0.65087 0.302684,-0.16961 0.773913,-0.44567 1.047177,-0.61346 0.273264,-0.16779 0.539964,-0.32347 0.592667,-0.34596 0.19124,-0.0816 -0.39212,-0.44886 -1.9559,-1.23129 -0.873919,-0.43727 -1.694779,-0.86833 -1.824134,-0.95792 -0.129354,-0.0896 -0.462022,-0.46452 -0.739261,-0.83318 -1.003383,-1.33425 -1.391423,-1.8214 -1.842502,-2.31308 -0.252591,-0.27533 -0.594278,-0.70395 -0.759305,-0.9525 -0.461246,-0.69469 -0.506603,-0.65158 -0.661672,0.62892 -0.06226,0.51411 0.06283,1.13934 0.351232,1.75551 0.187365,0.4003 0.466154,0.78269 1.198302,1.64361 0.523932,0.61607 0.95273,1.20363 0.95273,1.30547 0,0.15475 -1.674136,-1.54796 -2.067127,-2.10242 -0.198035,-0.2794 -0.410602,-0.64135 -0.472372,-0.80433 -0.174833,-0.46131 -0.21223,-0.4617 -0.505129,-0.005 -0.15104,0.23538 -0.638775,0.76148 -1.083856,1.16911 -0.90895,0.83247 -1.290183,1.30612 -1.290183,1.60293 0,0.29759 0.430522,1.09582 0.922376,1.71018 0.23776,0.29697 0.432291,0.60047 0.432291,0.67444 0,0.18103 -0.850311,-0.66291 -1.24661,-1.23726 -0.169328,-0.24541 -0.332934,-0.41686 -0.363569,-0.381 -0.03063,0.0359 -0.242073,0.35094 -0.469864,0.70019 -0.227791,0.34925 -0.796421,1.03505 -1.263621,1.524 -0.4672,0.48895 -0.971526,1.0414 -1.120724,1.22767 -0.160705,0.20063 -0.272425,0.28503 -0.274107,0.20707 -0.004,-0.18408 0.399259,-0.78567 0.961676,-1.43474 1.256298,-1.44985 2.048531,-2.70496 1.983998,-3.14317 -0.02514,-0.17075 -0.09207,-0.13809 -0.777443,0.37939 -0.412462,0.31143 -0.831562,0.60805 -0.931334,0.65917 -0.309735,0.1587 0.544616,-0.68216 1.20538,-1.18633 0.988477,-0.75423 1.128366,-0.86965 1.70657,-1.40806 1.36636,-1.27231 1.519048,-1.53104 1.748623,-2.963 l 0.05424,-0.33834 -0.627776,0.58244 c -0.588651,0.54615 -1.304442,1.12906 -2.431765,1.98034 -0.263739,0.19916 -0.622959,0.50217 -0.798268,0.67335 -0.493885,0.48227 -0.381629,0.13421 0.120796,-0.37453 0.241747,-0.24479 0.417693,-0.46692 0.390991,-0.49362 -0.136523,-0.13652 -0.589389,0.13849 -1.244362,0.75565 -1.192201,1.12338 -1.687439,1.45186 -3.67393,2.43688 -1.430854,0.7095 -2.008238,1.06761 -2.008238,1.24555 0,0.4572 0.306182,0.99862 0.935763,1.65471 0.587622,0.61237 1.25723,1.57209 1.693448,2.42715 0.230185,0.4512 0.580895,0.83776 0.760064,0.83776 0.08629,0 0.603378,-0.13534 1.149085,-0.30075 z m -12.320896,6.14275 c 0.123428,-0.25917 0.162536,-0.3072 0.162536,-0.19963 0,0.0454 -0.05925,0.15655 -0.131671,0.24694 -0.124153,0.15497 -0.125915,0.15227 -0.03086,-0.0473 z m 15.350464,-1.184 c -0.582022,-0.39404 -1.556595,-1.24632 -1.556595,-1.36127 0,-0.0437 0.03691,-0.0794 0.08202,-0.0794 0.111423,0 2.034647,1.61046 2.034647,1.70377 0,0.11151 -0.02203,0.10116 -0.560072,-0.2631 z m 49.486607,-6.33017 c -0.105314,-0.13429 -0.10232,-0.13728 0.03197,-0.032 0.141034,0.11061 0.185884,0.18014 0.116201,0.18014 -0.01758,0 -0.08426,-0.0667 -0.148167,-0.14817 z" id="path38" inkscape:label="horizontal_range"></path></g></g></svg>