<?xml version="1.0" encoding="UTF-8"?><svg xmlns="http://www.w3.org/2000/svg" viewBox="0 0 49.64 30"><g transform="matrix(0.3985,0,0,0.3985,-12.137,-16.368)"><g transform="matrix(3.7794642857142855,0,0,3.7794642857142855,0,0.007366071428562141)"><path style="fill:#3a2c1a" d="m 35.184883,29.741706 c -0.28725,-0.427203 -0.733196,-1.217778 -0.99099,-1.756834 -0.646635,-1.352135 -3.976359,1.761538 -3.847264,1.228237 0.129095,-0.533301 4.111866,-3.004488 1.307078,-4.409671 -0.346057,-0.173372 -0.389903,-0.308255 -0.421725,-0.211667 -0.02301,0.06985 -0.172629,0.2413 -0.33248,0.381 -0.159852,0.1397 -1.401379,1.928611 -1.885521,2.382636 -0.815369,0.764647 -0.510238,-0.250207 -0.237493,-0.632847 0.266091,-0.373304 1.850793,-1.375622 1.655801,-1.916156 -0.330328,-0.915696 -3.310774,2.489485 -3.310774,2.329956 0,-0.316037 3.345412,-4.753924 3.198712,-4.953038 -0.144643,-0.196324 -0.191074,-0.133877 -0.532377,0.406403 -1.183534,1.873528 -2.811356,3.232658 -2.87946,3.164553 -0.05529,-0.05528 0.538864,-1.103957 1.497041,-2.34695 0.394862,-0.512233 1.002802,-1.432304 1.179718,-1.804838 0.315069,-0.663443 0.673378,-1.128537 0.601372,-1.200543 -0.01997,-0.01997 -0.320499,0.201086 -0.66785,0.491227 -0.419617,0.350503 -0.907596,0.896224 -1.454159,1.626229 -1.065385,1.422958 -1.610357,1.934407 -2.612315,2.451627 -0.439124,0.22668 -1.465158,0.827815 -2.280074,1.335856 -0.814917,0.508041 -2.129367,1.241745 -2.921,1.630452 -1.056224,0.518627 -1.687229,0.894313 -2.370667,1.411445 -1.116365,0.84471 -1.397,1.030325 -1.397,0.923991 0,-0.107199 1.289765,-1.276501 1.914662,-1.735834 0.274086,-0.201467 1.035647,-0.654354 1.692358,-1.006414 1.15635,-0.619915 2.546074,-1.448507 3.50498,-2.089768 0.256117,-0.171276 0.882659,-0.533668 1.392316,-0.805315 0.509657,-0.271647 1.096482,-0.649777 1.304057,-0.840288 0.45063,-0.413588 1.650274,-1.945001 1.550035,-1.978708 -0.03869,-0.01301 -0.29407,0.03461 -0.567502,0.105833 -0.780557,0.203309 -1.836893,0.169973 -2.575614,-0.08128 -1.211185,-0.41195 -1.449162,-0.625365 -2.119292,-1.900555 -0.338155,-0.643474 -0.433367,-0.755711 -0.846667,-0.998064 -0.256116,-0.150183 -0.681766,-0.464508 -0.945889,-0.6985 -0.264122,-0.233992 -0.511772,-0.424891 -0.550333,-0.42422 -0.03856,6.7e-4 -0.171618,0.185337 -0.295682,0.410369 -0.157885,0.286379 -0.42464,0.557669 -0.889,0.904115 -1.526814,1.139114 -2.29454,1.845455 -2.988862,2.749885 -0.897137,1.168617 -1.035916,1.116866 -0.240943,-0.08985 0.578991,-0.878867 1.835145,-2.198865 2.685703,-2.822203 0.889027,-0.65153 1.109064,-0.880107 1.331586,-1.383267 0.201991,-0.456738 0.212459,-0.561032 0.227086,-2.262374 l 0.01533,-1.783564 -0.397256,-0.8255 c -0.218491,-0.454025 -0.428041,-0.825232 -0.465667,-0.824905 -0.07933,6.9e-4 -0.857031,0.623476 -2.263152,1.81233 -0.64821,0.548053 -1.111852,1.018096 -1.336218,1.354667 -0.289543,0.434344 -0.775066,0.944598 -2.078207,2.184067 -0.104775,0.09965 -0.1905,0.141378 -0.1905,0.09272 0,-0.04866 0.316246,-0.426778 0.702768,-0.840259 0.66153,-0.707669 1.206278,-1.389108 1.028383,-1.28643 -2.064947,1.191855 -2.711948,1.65234 -3.834362,2.728998 -1.078474,1.03451 -1.7712123,1.592356 -2.5790763,2.076873 -0.581495,0.348752 -0.412834,0.126983 0.384799,-0.505965 0.431102,-0.342093 1.2029213,-1.057 1.7151553,-1.588683 1.0715,-1.112183 1.626458,-1.567048 2.751666,-2.255367 1.2875,-0.787598 2.578785,-1.770193 3.892764,-2.962173 1.071532,-0.972044 1.889488,-1.573369 2.140186,-1.573369 0.19465,0 0.486961,0.250093 1.610926,1.378265 2.409074,2.418092 4.449138,3.986548 6.961125,5.351901 1.450914,0.788623 1.445229,0.78516 1.385993,0.844396 -0.05195,0.05195 -0.602147,-0.122497 -1.654527,-0.5246 -1.628262,-0.622141 -3.787459,-2.200314 -6.100159,-4.458648 -0.85332,-0.833261 -1.573542,-1.492969 -1.600493,-1.466018 -0.02695,0.02695 0.08822,0.271311 0.255925,0.543023 0.16771,0.271711 0.304927,0.536703 0.304927,0.58887 0,0.149237 0.730453,1.105286 1.425893,1.866272 0.662693,0.725152 1.016682,1.210539 0.882838,1.210539 -0.04321,0 -0.566256,-0.496696 -1.162323,-1.103769 -0.596067,-0.607073 -1.09446,-1.092848 -1.107539,-1.0795 -0.01308,0.01335 -0.0367,0.717088 -0.05249,1.563867 l -0.02871,1.539597 0.253713,0.26483 c 0.139542,0.145656 0.501492,0.427941 0.804333,0.6273 1.527952,1.005844 2.030348,1.340383 2.470149,1.644844 0.264107,0.182833 0.835174,0.47956 1.269037,0.659393 0.433863,0.179834 0.967929,0.450161 1.186813,0.600726 l 0.397971,0.273757 0.64777,-0.165672 c 0.356274,-0.09112 0.734407,-0.23303 0.840296,-0.315356 0.105889,-0.08233 0.559745,-0.449183 1.00857,-0.815239 0.741094,-0.604426 0.84146,-0.660787 1.092761,-0.613643 0.152194,0.02855 0.756257,0.387643 1.342362,0.797981 0.586106,0.410337 1.385063,0.912246 1.775461,1.115354 1.573064,0.818398 2.135503,1.291435 3.191328,2.684052 0.28919,0.381436 0.763917,0.895786 1.054951,1.143 0.828805,0.704014 3.121205,3.018251 2.688152,2.713758 -0.555565,-0.390635 -2.53963,-2.228645 -4.102212,-3.800234 l -1.358788,-1.36662 -1.27,-0.638396 c -0.6985,-0.351118 -1.651,-0.907537 -2.116667,-1.236487 -0.465667,-0.328949 -0.88826,-0.598267 -0.939095,-0.598483 -0.05084,-2.16e-4 -0.162169,0.229944 -0.247407,0.511467 l -0.154979,0.51186 0.306927,0.609973 c 0.16881,0.335486 0.388712,0.89352 0.488671,1.240077 0.161054,0.558369 0.241028,0.689219 0.70248,1.14936 0.321278,0.320365 0.735275,0.624522 1.080846,0.794079 0.439635,0.21571 0.717435,0.445237 1.291541,1.067109 0.402287,0.435759 1.045588,1.028279 1.429557,1.316712 0.710665,0.533843 0.842982,0.672687 0.641681,0.673332 -0.148582,4.76e-4 -1.344444,-0.815338 -1.930065,-1.316686 -0.25438,-0.217774 -0.474636,-0.359573 -0.489457,-0.315109 -0.0346,0.103813 1.153065,2.59551 1.543536,3.238294 0.163587,0.269293 0.297431,0.532264 0.297431,0.584381 0,0.238663 -0.204971,0.03526 -0.68724,-0.681974 z m -8.448598,-8.324935 c -0.01879,-0.04657 -0.585913,-0.280969 -1.260265,-0.520893 -0.796471,-0.283374 -1.403973,-0.558973 -1.733739,-0.78653 -0.279204,-0.192667 -0.540026,-0.339265 -0.579603,-0.325774 -0.12828,0.04373 0.421403,0.896237 0.729307,1.131087 0.555397,0.423622 1.261844,0.625585 2.116471,0.605069 0.467456,-0.01122 0.748792,-0.05102 0.727829,-0.102959 z m 11.170227,7.700515 c -0.381679,-0.269453 -0.22906,-0.268036 0.209277,0.0019 0.186267,0.114725 0.281517,0.207912 0.211667,0.207082 -0.06985,-8.31e-4 -0.259275,-0.09489 -0.420944,-0.209025 z M 27.119849,28.295938 c 0.137575,-0.230914 0.739731,-0.910167 0.80686,-0.910167 0.140872,0 0.06539,0.136796 -0.316152,0.572955 -0.348775,0.398702 -0.651134,0.606482 -0.490708,0.337212 z M 16.980436,25.967029 c 0.141714,-0.264795 1.733014,-1.750315 2.212353,-2.06529 0.256117,-0.168294 0.649862,-0.392394 0.874989,-0.497999 0.225127,-0.105606 0.67296,-0.433951 0.995184,-0.729656 0.441733,-0.405378 0.647035,-0.537646 0.834515,-0.537646 0.369899,0 0.39171,0.146839 0.04343,0.292361 -0.168692,0.07048 -0.473363,0.313508 -0.677047,0.540054 -0.255472,0.284146 -0.627522,0.547466 -1.199535,0.848975 -0.927028,0.488638 -1.555965,0.936862 -2.453029,1.7482 -0.627813,0.567816 -0.767733,0.656756 -0.630857,0.401001 z" id="path41" inkscape:label="small_vertical_range" sodipodi:nodetypes="sszssssssssscsssssssssssssssscsssssssssssscsssssssssssssssssssssssssssscssssscsssssssssscsssscssssssssssssssssssssccsccsssssssssssssss"></path></g></g></svg>