<?xml version="1.0" encoding="UTF-8"?><svg xmlns="http://www.w3.org/2000/svg" viewBox="0 0 20.71 30"><g transform="matrix(0.1373,0,0,0.1373,-24.712,-5.874)"><g transform="matrix(3.7794642857142855,0,0,3.7794642857142855,0,0.007366071428562141)"><path style="fill:#3a2c1a" d="m 69.629155,68.706455 c -0.221192,-0.0952 -0.402167,-0.20639 -0.402167,-0.24715 0,-0.13807 0.294424,-0.0745 0.804333,0.17368 0.447966,0.21803 0.477983,0.2472 0.254,0.24689 -0.1397,-2e-4 -0.434975,-0.0782 -0.656166,-0.17342 z m -1.917127,-0.66211 c -0.645411,-0.30533 -1.894568,-1.16766 -2.566524,-1.77176 -0.989456,-0.88952 -1.774599,-2.13481 -2.56485,-4.06804 -0.603366,-1.47604 -1.030261,-2.2469 -1.447892,-2.61451 -0.509449,-0.44843 -1.162541,-0.64947 -2.04272,-0.62878 -1.097777,0.0258 -1.261174,0.12975 -2.95926,1.88282 -1.509327,1.55819 -2.28139,2.2671 -2.371222,2.17727 -0.02822,-0.0282 0.270514,-0.38547 0.663861,-0.79389 0.393347,-0.40842 1.108254,-1.19977 1.588682,-1.75857 0.480428,-0.5588 1.02467,-1.15319 1.209427,-1.32087 l 0.335921,-0.30487 -0.295092,-0.17411 c -0.1623,-0.0958 -0.45351,-0.38855 -0.647133,-0.65065 -0.364641,-0.4936 -0.91201,-0.94828 -1.240982,-1.03085 -0.104141,-0.0261 -0.446378,-0.008 -0.760524,0.0414 -0.48783,0.076 -0.62156,0.13692 -0.916454,0.4178 -0.524612,0.49969 -2.280588,1.79448 -2.433648,1.79448 -0.19001,0 -0.004,-0.20472 0.712536,-0.78434 0.430742,-0.34842 1.010648,-0.84201 1.28868,-1.09686 l 0.505513,-0.46337 -0.355839,-0.40426 c -0.399771,-0.45416 -0.866854,-1.32708 -0.866854,-1.62003 0,-0.10623 -0.02907,-0.21111 -0.0646,-0.23307 -0.03553,-0.022 -0.311757,0.17268 -0.613833,0.43254 -0.302076,0.25986 -0.91118,0.7078 -1.353563,0.99541 -0.442383,0.28762 -0.969863,0.66222 -1.172177,0.83246 -0.202314,0.17024 -0.38463,0.30952 -0.405146,0.30952 -0.210752,0 0.881981,-1.07734 1.557841,-1.5359 0.594489,-0.40335 1.613431,-1.32017 2.899588,-2.60897 1.515861,-1.51898 1.524139,-1.53133 0.773151,-1.15314 -0.560544,0.28229 -3.263766,1.23401 -3.505011,1.23401 -0.284537,0 0.258799,-0.28611 1.206421,-0.63528 0.582083,-0.21448 1.602714,-0.65769 2.268068,-0.98491 0.665354,-0.32722 1.449039,-0.66338 1.741521,-0.74702 0.292482,-0.0836 0.833952,-0.32307 1.203265,-0.53205 0.369314,-0.20898 0.957229,-0.51286 1.306479,-0.67528 0.713383,-0.33176 2.332895,-1.65844 2.733075,-2.23888 0.129474,-0.18779 0.325334,-0.62347 0.435245,-0.96818 0.109911,-0.3447 0.319933,-0.96474 0.466716,-1.37786 0.146782,-0.41313 0.253362,-0.79168 0.236844,-0.84123 -0.01652,-0.0496 -0.28589,0.21225 -0.598606,0.58179 -0.589718,0.69689 -2.559226,2.5769 -2.699565,2.5769 -0.118273,0 0.351667,-0.55945 0.99568,-1.18533 0.311452,-0.30269 0.927751,-0.98135 1.369554,-1.50814 0.889654,-1.0608 1.380792,-1.46837 2.014057,-1.67136 0.770153,-0.24686 1.774423,-0.65651 2.012111,-0.82075 0.243575,-0.16831 0.516339,-0.6064 0.467946,-0.75158 -0.01534,-0.046 -0.160531,0.0133 -0.322642,0.13187 -0.454078,0.33208 -1.419084,0.79567 -2.047628,0.98368 -0.515675,0.15424 -0.693652,0.27817 -1.947333,1.35597 -0.758883,0.65241 -1.817937,1.47532 -2.353454,1.82868 -0.535516,0.35335 -1.145116,0.7775 -1.354666,0.94255 l -0.381,0.30009 0.338666,-0.35992 c 0.186267,-0.19795 0.757767,-0.65722 1.27,-1.02059 0.512234,-0.36338 1.218631,-0.92232 1.569772,-1.24209 2.087679,-1.9012 2.068482,-1.88643 2.748228,-2.11406 0.583739,-0.19548 1.18346,-0.50485 1.741756,-0.89847 0.286471,-0.20198 0.60731,-0.3508 0.816893,-0.37891 0.329363,-0.0442 0.370588,-0.0226 0.901943,0.4717 0.306242,0.2849 0.606438,0.51799 0.667101,0.51799 0.254812,0 0.481928,-0.29022 0.74334,-0.9499 0.152804,-0.3856 0.391404,-0.94875 0.530221,-1.25143 0.334146,-0.72859 0.652413,-1.58009 0.652413,-1.74548 0,-0.0928 -0.121435,-0.0325 -0.402166,0.19962 -0.707632,0.58518 -2.610526,1.77872 -2.697386,1.69186 -0.04637,-0.0464 0.372434,-0.37195 1.427178,-1.10946 0.314211,-0.21971 0.790461,-0.59172 1.058333,-0.8267 0.267873,-0.23498 0.601341,-0.48579 0.741041,-0.55736 0.1397,-0.0716 0.358778,-0.24893 0.48684,-0.39414 0.281731,-0.31944 1.020046,-1.62985 0.98064,-1.74049 -0.01548,-0.0435 -0.348246,0.16722 -0.739478,0.46819 -0.464802,0.35758 -1.168815,0.769 -2.031343,1.1871 -1.41806,0.6874 -1.829618,0.98236 -3.389659,2.42932 -0.735526,0.68221 -2.740715,2.17554 -2.921236,2.17554 -0.168019,0 0.04409,-0.21056 0.690297,-0.68525 0.406116,-0.29833 1.147142,-0.92829 1.646724,-1.39992 1.773358,-1.67412 2.341051,-2.09718 3.783165,-2.8193 0.966297,-0.48386 1.627284,-0.8893 2.412494,-1.47982 1.583283,-1.1907 1.679443,-1.22419 2.911589,-1.01417 0.95693,0.16312 1.357836,0.12365 1.814623,-0.17863 0.503015,-0.33288 0.954941,-0.46615 1.583823,-0.46704 0.463461,-6.5e-4 0.634368,-0.0433 0.984188,-0.24549 1.24153,-0.71764 1.618115,-1.89133 1.24104,-3.8679 -0.0969,-0.50791 -0.198422,-1.06635 -0.225611,-1.24098 -0.02719,-0.17462 -0.07868,-0.3175 -0.114425,-0.3175 -0.03574,0 -0.175255,0.11509 -0.310025,0.25576 -0.134769,0.14067 -0.445619,0.39391 -0.690777,0.56276 -0.382768,0.26362 -0.463854,0.3693 -0.573944,0.74799 -0.17091,0.58791 -0.888841,1.54636 -1.729236,2.30857 -0.596129,0.54067 -0.794151,0.66188 -1.630364,0.99795 -0.523501,0.21039 -1.011259,0.36936 -1.083906,0.35328 -0.14193,-0.0314 1.019553,-0.64967 1.533704,-0.81636 0.776495,-0.25175 2.863508,-2.57587 2.5735,-2.86588 -0.02851,-0.0285 -0.22249,0.11564 -0.431064,0.32034 -0.208574,0.2047 -0.379225,0.32881 -0.379225,0.27579 0,-0.18011 0.801611,-0.96416 1.566333,-1.53203 l 0.762,-0.56584 0.251496,-0.73628 c 0.138323,-0.40495 0.226601,-0.76117 0.196173,-0.7916 -0.08841,-0.0884 -0.66856,0.13296 -1.082669,0.41313 -0.20955,0.14177 -0.7239,0.52891 -1.143,0.8603 -1.15908,0.91651 -1.747426,1.2894 -2.876172,1.82289 -0.608202,0.28746 -1.325694,0.71029 -1.745302,1.02854 -0.391889,0.29723 -1.226876,0.87756 -1.855526,1.28962 -0.62865,0.41206 -1.573986,1.07221 -2.100748,1.467 -0.526761,0.39479 -0.97592,0.69962 -0.998132,0.67741 -0.100554,-0.10055 1.972874,-1.76822 3.325407,-2.67464 0.410927,-0.27539 1.049262,-0.73506 1.418523,-1.02149 0.394952,-0.30635 1.132389,-0.74559 1.791051,-1.0668 0.832189,-0.40584 1.442394,-0.78821 2.376617,-1.48927 0.691322,-0.51879 1.308257,-0.99109 1.370967,-1.04957 0.09378,-0.0875 0.03237,-0.16051 -0.346052,-0.4117 -0.317177,-0.21053 -0.523019,-0.42777 -0.662746,-0.69944 -0.111472,-0.21674 -0.374848,-0.53874 -0.585281,-0.71556 -0.210433,-0.17682 -0.744556,-0.62378 -1.186939,-0.99324 -1.253943,-1.04726 -1.884569,-1.70248 -2.178827,-2.26379 -0.328592,-0.62681 -0.451721,-0.73866 -1.014876,-0.92195 -0.647985,-0.21089 -1.104317,-0.76248 -1.761378,-2.12906 -0.487578,-1.014089 -0.585321,-1.1572 -1.100333,-1.611058 -0.583595,-0.514297 -0.765249,-0.788661 -1.002471,-1.514104 -0.209847,-0.641726 -1.029979,-2.441955 -1.127256,-2.474381 -0.132149,-0.04405 -0.409774,1.063686 -0.397334,1.585381 0.0064,0.26669 0.10097,0.70082 0.221419,1.016 0.294001,0.769311 1.391847,2.798449 2.221693,4.106332 0.778866,1.22754 0.920899,1.47902 0.866212,1.53371 -0.02065,0.0206 -0.265319,-0.2779 -0.543719,-0.66342 -1.385278,-1.91832 -2.310022,-3.488652 -2.69382,-4.574456 -0.127564,-0.360891 -0.260957,-0.656166 -0.296429,-0.656166 -0.03547,0 -0.128974,0.161925 -0.20778,0.359833 -0.07881,0.197908 -0.334637,0.692008 -0.568511,1.097999 -0.578103,1.003552 -0.665563,1.280767 -0.56831,1.80134 0.04316,0.23104 0.187656,0.65338 0.321094,0.93853 0.258244,0.55186 1.314796,2.1787 1.715893,2.64208 0.132403,0.15296 0.23928,0.32441 0.237505,0.381 -0.005,0.15867 -0.807282,-0.73988 -1.339657,-1.50036 l -0.477449,-0.68203 -0.02475,0.70784 c -0.01693,0.48422 0.01851,0.83809 0.112188,1.12012 0.120151,0.36174 0.216585,0.46843 0.786747,0.8704 0.410149,0.28916 0.930726,0.78148 1.411469,1.33486 0.418912,0.48219 1.081568,1.2101 1.472571,1.61755 0.391003,0.40746 0.671137,0.74084 0.622522,0.74084 -0.144952,0 -1.039473,-0.81227 -1.629083,-1.47929 -0.302683,-0.34242 -0.578908,-0.62591 -0.613833,-0.62998 -0.135562,-0.0158 -0.05324,0.60377 0.158664,1.19405 0.412397,1.14881 0.575292,1.39597 2.042669,3.09931 0.521117,0.60491 0.61885,0.77924 0.436861,0.77924 -0.152815,0 -1.959147,-1.87035 -2.289524,-2.37067 -0.308657,-0.46742 -0.702556,-1.55763 -0.803885,-2.22493 -0.09793,-0.64493 -0.147193,-0.64109 -0.612027,0.0478 -0.425142,0.63003 -0.576359,0.79462 -0.656468,0.71451 -0.02215,-0.0221 0.197651,-0.42857 0.488452,-0.90316 0.421907,-0.68854 0.5107,-0.89166 0.439497,-1.00536 -0.04908,-0.0784 -0.365268,-0.33004 -0.702646,-0.55927 -0.350427,-0.23809 -0.703403,-0.55933 -0.823311,-0.74927 l -0.209895,-0.3325 -0.31111,0.53066 c -0.302005,0.51513 -2.706365,3.04222 -2.89447,3.04222 -0.200936,0 -0.0213,-0.23525 0.963159,-1.2613 0.987546,-1.02928 2.072997,-2.47226 2.096525,-2.78708 0.05246,-0.70198 -0.04806,-1.80696 -0.242799,-2.66898 l -0.226443,-1.002352 -0.285569,0.325022 c -1.073462,1.22178 -2.270577,2.50557 -2.401964,2.57589 -0.270898,0.14498 -0.170938,-0.0449 0.319108,-0.60617 1.44137,-1.65086 2.800897,-3.439882 3.328609,-4.380166 0.40222,-0.71668 0.805419,-1.84372 0.752411,-2.103177 -0.01483,-0.07259 -0.227265,0.179558 -0.486006,0.576848 -0.252814,0.38819 -0.681815,1.000541 -0.953335,1.360781 -0.271519,0.36024 -0.680859,0.96984 -0.909643,1.354666 -0.507958,0.854414 -0.988715,1.422328 -2.034576,2.403418 -0.440669,0.41338 -1.183619,1.11558 -1.651,1.56044 -0.467382,0.44486 -1.002185,0.91904 -1.188451,1.05373 -0.186267,0.13469 -0.748614,0.64347 -1.249661,1.13061 -0.501047,0.48715 -0.936419,0.8603 -0.967494,0.82922 -0.03108,-0.0311 0.03737,-0.16088 0.152096,-0.28845 0.114728,-0.12757 0.395683,-0.43837 0.624343,-0.69066 0.376991,-0.41594 0.400379,-0.46472 0.250897,-0.52321 -0.39606,-0.15499 -0.565977,-0.0796 -1.213773,0.53821 -1.031583,0.98391 -2.075924,1.73043 -2.311113,1.65203 -0.04889,-0.0163 0.06626,-0.1323 0.255892,-0.2578 0.18963,-0.12549 0.844934,-0.71274 1.456231,-1.305 l 1.111448,-1.07683 0.525496,0.0194 c 0.461476,0.017 0.571513,-0.0116 0.903233,-0.23534 0.671279,-0.45271 4.333299,-4.143179 4.656688,-4.692872 0.299716,-0.509453 0.622298,-0.999366 1.995653,-3.03084 0.430679,-0.637062 0.919795,-1.442595 1.086925,-1.790072 0.524086,-1.089618 0.70885,-1.082014 1.230802,0.05066 0.764575,1.659174 1.169151,2.57498 1.314404,2.975303 0.111251,0.306613 0.307088,0.563083 0.743478,0.973667 0.50054,0.470941 0.650232,0.682181 0.964978,1.361742 0.784948,1.694766 1.06332,2.071646 1.779301,2.408956 0.640071,0.30154 0.755795,0.41279 1.061067,1.02004 0.300675,0.59812 1.146315,1.44705 2.626868,2.63711 0.826932,0.66469 1.037515,0.88221 1.242046,1.28297 0.416011,0.81516 1.151092,1.13325 1.897803,0.82126 0.167174,-0.0699 0.435735,-0.127 0.596802,-0.127 0.261351,0 0.346348,0.066 0.79027,0.61383 0.307318,0.37924 0.72225,0.76439 1.085705,1.00778 0.353885,0.23699 0.807558,0.6551 1.138615,1.04937 1.054396,1.25572 3.175479,3.56071 4.437287,4.82202 1.234486,1.23399 1.236012,1.29092 0.0077,0.28775 -0.763921,-0.62391 -3.995254,-3.89337 -4.353985,-4.40537 -0.398765,-0.56913 -1.454357,-1.4476 -1.58386,-1.31809 -0.04237,0.0424 0.67547,1.01248 1.119094,1.51238 0.333649,0.37598 0.49826,0.66366 0.379743,0.66366 -0.13636,0 -1.374575,-1.48126 -1.718267,-2.05554 -0.173401,-0.28973 -0.497251,-0.81254 -0.719667,-1.16179 l -0.404391,-0.635 -0.04233,0.46566 c -0.02328,0.25612 0.0012,0.75142 0.05447,1.10067 0.140964,0.92465 0.670449,2.98207 0.866186,3.36574 0.09266,0.18163 0.557377,0.7637 1.032704,1.29348 0.475327,0.52979 0.824095,0.97663 0.77504,0.99298 -0.04906,0.0164 -0.368689,-0.1862 -0.710297,-0.45012 -0.612234,-0.47299 -0.988078,-0.86327 -1.288179,-1.33763 -0.177606,-0.28074 -0.237179,-0.23865 -0.41242,0.29135 -0.193527,0.58531 -0.521797,1.05047 -1.015647,1.43917 -0.244673,0.19258 -0.456815,0.38186 -0.471427,0.42062 -0.01461,0.0388 0.09954,0.13569 0.253672,0.21539 0.154131,0.0797 0.737586,0.58875 1.296567,1.13121 1.223409,1.18725 1.589814,1.48829 2.773161,2.27849 0.500592,0.33428 0.910167,0.62648 0.910167,0.64935 0,0.0816 -0.618789,-0.21911 -1.310769,-0.63708 -0.963878,-0.58221 -1.604358,-1.06439 -2.43172,-1.83069 -0.816291,-0.75605 -2.113013,-1.64159 -2.403813,-1.64159 -0.19588,0 -0.199729,0.0137 -0.148235,0.52916 0.05958,0.59635 0.206763,0.94729 0.462007,1.10162 0.215657,0.13039 1.207492,1.41381 1.142685,1.47862 -0.0483,0.0483 -0.576994,-0.38876 -1.399349,-1.15683 -0.252373,-0.23572 -0.480973,-0.42738 -0.508,-0.42591 -0.02703,10e-4 -0.120384,0.10041 -0.207461,0.21989 l -0.158321,0.21722 0.419207,0.43628 c 0.532348,0.55403 0.802833,0.91821 1.424493,1.91795 0.275085,0.44238 0.748881,1.07219 1.052881,1.39957 0.304001,0.32738 0.876578,0.9708 1.272395,1.42982 0.963696,1.11758 2.43265,2.4353 3.241723,2.90798 0.759153,0.44351 0.890137,0.57426 0.403166,0.40245 -0.821811,-0.28995 -1.712001,-0.93467 -2.882889,-2.08793 -1.667917,-1.64281 -3.04177,-3.19552 -3.674776,-4.15319 -0.789767,-1.19482 -1.217953,-1.68097 -2.230091,-2.53198 -0.929971,-0.78191 -1.098402,-0.87911 -1.816769,-1.04847 -0.843016,-0.19875 -1.093228,-0.17242 -1.396277,0.14691 -0.774385,0.81601 -0.662505,1.40556 0.503975,2.65565 0.544481,0.58351 0.884659,0.98968 2.248687,2.68491 0.171173,0.21274 0.242275,0.36227 0.181836,0.38242 -0.125719,0.0419 -0.930969,-0.74737 -1.714152,-1.68014 -0.33234,-0.39582 -0.820047,-0.9494 -1.083794,-1.23017 -0.263747,-0.28078 -0.58033,-0.70941 -0.703516,-0.9525 -0.123187,-0.2431 -0.237923,-0.442 -0.254969,-0.442 -0.107438,0 -1.220553,1.83126 -1.382079,2.27375 -0.108032,0.29595 -0.426175,1.03452 -0.706985,1.64127 -0.280809,0.60674 -0.531989,1.21031 -0.558177,1.34125 -0.06818,0.34089 0.178371,0.69205 1.030511,1.46776 0.400033,0.36416 0.707152,0.68228 0.682487,0.70695 -0.07044,0.0704 -0.639466,-0.35385 -1.338971,-0.9984 -0.352512,-0.32482 -0.662513,-0.59058 -0.68889,-0.59058 -0.02638,0 -0.16366,0.0704 -0.305074,0.15636 l -0.257117,0.15636 0.657237,0.54131 c 0.36148,0.29772 0.949336,0.75124 1.306346,1.00781 0.722911,0.51953 0.810068,0.61883 1.338443,1.52483 0.703526,1.20633 1.789097,2.47227 2.837204,3.30862 0.620777,0.49535 0.441282,0.53485 -0.231949,0.051 -1.252633,-0.90019 -2.192642,-1.93712 -3.067439,-3.38371 -0.341217,-0.56424 -0.491765,-0.72176 -1.046623,-1.09507 -0.761185,-0.51212 -1.784365,-1.39583 -2.492092,-2.15239 -0.277054,-0.29617 -0.531687,-0.53849 -0.565851,-0.53849 -0.03416,0 -0.123889,0.15726 -0.199389,0.34946 l -0.137273,0.34946 0.350238,0.60304 c 0.192631,0.33167 0.444437,0.7279 0.55957,0.88051 0.115132,0.15261 0.185464,0.30134 0.156292,0.33051 -0.08077,0.0808 -0.601584,-0.50741 -0.952029,-1.07518 -0.171937,-0.27856 -0.346816,-0.50647 -0.388619,-0.50647 -0.0418,0 -0.218711,0.0728 -0.39313,0.16179 -0.174418,0.089 -0.715825,0.30048 -1.203127,0.47001 -1.022191,0.35561 -1.233442,0.47537 -1.30838,0.74178 -0.02982,0.10601 -0.243973,0.77091 -0.475891,1.47754 -0.495405,1.50944 -0.5003,1.47314 0.329116,2.44055 1.210139,1.41147 1.966102,2.35069 1.965431,2.44188 -7.77e-4,0.10561 -2.488199,-2.40018 -2.723127,-2.74324 l -0.141516,-0.20664 -0.557036,0.60637 c -0.838311,0.91257 -1.941037,1.75152 -2.867264,2.18141 -0.441024,0.20469 -0.963062,0.47393 -1.160084,0.5983 l -0.358222,0.22614 0.382426,0.26822 c 0.660472,0.46324 2.126129,1.63455 2.414944,1.92996 0.423628,0.43329 0.165087,0.39174 -0.472458,-0.0759 -0.313834,-0.23022 -0.780158,-0.55156 -1.036275,-0.71409 -0.256116,-0.16253 -0.660704,-0.47183 -0.899084,-0.68733 -0.589127,-0.53257 -0.819792,-0.61266 -1.198494,-0.41613 -0.391747,0.2033 -1.15271,0.85464 -1.30937,1.12075 -0.184628,0.31362 -0.04652,0.7125 0.344965,0.99634 0.503668,0.36518 1.063029,0.86151 1.019718,0.90482 -0.04265,0.0426 -1.125744,-0.57743 -1.359574,-0.77838 -0.0782,-0.0672 -0.204423,-0.25336 -0.280507,-0.41369 l -0.138336,-0.29152 -0.320966,0.25421 c -0.466215,0.36925 -0.992404,1.09202 -1.106119,1.51937 -0.09209,0.34608 -0.08083,0.40705 0.168907,0.91433 0.147167,0.29894 0.410766,0.69405 0.585776,0.87803 l 0.318199,0.33449 h 0.702481 c 0.823238,0 1.712772,0.23154 2.287071,0.59531 0.452836,0.28683 1.368697,0.68354 2.074333,0.8985 0.456078,0.13895 0.480809,0.15753 0.241962,0.18183 -0.38364,0.039 -1.237744,-0.20267 -1.906798,-0.5396 -0.318357,-0.16033 -0.57883,-0.26694 -0.57883,-0.23693 0,0.14338 0.379293,0.64229 0.616951,0.81152 0.237572,0.16916 0.403865,0.19522 1.539198,0.24118 1.216341,0.0492 1.30668,0.0654 2.034851,0.36398 1.191667,0.48865 2.165101,1.17362 3.979333,2.80011 1.32273,1.18586 2.381489,1.92288 4.021667,2.79957 1.24241,0.66407 1.699565,0.96946 1.27,0.84838 -0.375797,-0.10593 -1.919579,-0.86376 -2.770495,-1.36001 -1.034757,-0.60347 -1.809756,-1.1785 -2.732838,-2.02771 -0.819155,-0.7536 -2.14437,-1.83016 -2.447005,-1.98786 -0.168425,-0.0878 -0.194772,-0.0861 -0.153448,0.01 0.769296,1.7838 1.633165,3.64505 1.881618,4.05405 0.532052,0.87585 1.300851,1.76397 2.110868,2.43848 0.89273,0.74339 1.872356,1.40133 2.293374,1.54028 0.162517,0.0536 0.273836,0.13255 0.247376,0.17536 -0.0874,0.14142 -0.411808,0.0812 -0.96041,-0.17836 z m 8.61521,-32.729 c 0.198195,-0.51791 0.225187,-0.83911 0.09851,-1.17228 -0.109402,-0.28775 -0.296142,-0.27507 -0.853743,0.058 -0.253377,0.15135 -0.570384,0.32422 -0.70446,0.38417 -0.134076,0.06 -0.22867,0.12411 -0.210209,0.14257 0.108074,0.10808 1.3942,1.05422 1.437067,1.05718 0.02846,0.002 0.133237,-0.20936 0.232833,-0.46962 z m -28.431551,23.03687 c -5.14e-4,-0.0466 0.07357,-0.17992 0.164634,-0.29633 0.09106,-0.11642 0.166415,-0.16827 0.16745,-0.11522 0.001,0.053 -0.07305,0.1864 -0.164634,0.29634 -0.09158,0.10993 -0.166936,0.16178 -0.16745,0.11521 z m 9.118134,-3.47743 c -0.314034,-0.17036 -0.298959,-0.32878 0.0158,-0.16601 0.247702,0.12809 0.415779,0.30216 0.285532,0.29572 -0.03767,-0.002 -0.173272,-0.0602 -0.30133,-0.12971 z m 4.020423,-0.41495 c -0.173941,-0.16172 -0.276105,-0.29507 -0.227032,-0.29633 0.04907,-10e-4 0.218473,0.13106 0.376442,0.29404 0.371239,0.38302 0.261888,0.3847 -0.14941,0.002 z m -11.78859,-0.50338 c 0,-0.0657 0.601179,-0.40762 0.643069,-0.36573 0.02282,0.0228 -0.09566,0.12242 -0.263293,0.22133 -0.307769,0.18159 -0.379776,0.20896 -0.379776,0.1444 z m 16.32888,-2.58642 c -0.109934,-0.0916 -0.158159,-0.16779 -0.107168,-0.16934 0.05099,-0.002 0.161671,0.0734 0.245955,0.16652 0.196082,0.21667 0.11977,0.21822 -0.138787,0.003 z m -7.489257,-3.2925 c 0.179183,-0.20181 0.219711,-0.22025 0.219711,-0.1 0,0.0449 -0.08573,0.12668 -0.1905,0.18166 -0.189479,0.0994 -0.189636,0.099 -0.02921,-0.0817 z m 17.92982,-6.39865 c -0.263084,-0.25282 -0.45758,-0.48042 -0.432213,-0.50579 0.02537,-0.0254 0.271349,0.18149 0.546629,0.45967 0.625291,0.63188 0.533599,0.66884 -0.114416,0.0461 z m 3.384785,-3.70276 c -0.419724,-0.34143 -0.594861,-0.5929 -0.28806,-0.41362 0.273499,0.15983 0.822046,0.67072 0.77291,0.71986 -0.02674,0.0267 -0.244925,-0.11107 -0.48485,-0.30624 z M 64.316321,26.676915 c 0,-0.0466 0.05594,-0.15863 0.124307,-0.24902 0.06837,-0.0904 0.124308,-0.12625 0.124308,-0.0797 0,0.0466 -0.05594,0.15862 -0.124308,0.24902 -0.06837,0.0904 -0.124307,0.12625 -0.124307,0.0797 z" id="path39" inkscape:label="vertical_range"></path></g></g></svg>