<?xml version="1.0" encoding="UTF-8"?><svg xmlns="http://www.w3.org/2000/svg" viewBox="0 0 22.56 18"><g fill="#3a2c1a"><g transform="matrix(2.4258,0,0,2.4258,-226.815,-167.868)"><g><path d="M96.5 72.1s-.2 0-.2.1c0 .2.4.1.3.3l-1.1.4v-.4l.4.1c.6-.3.1-1 .6-1.5l.3.4c-.3.1-.2.4-.2.5zm1.9 1v.5c0 .1.2.1.2.1 0 .1 0 .6.2.8-.1.2-.3 0-.3-.1l-.4.3v-.9c0-.3-.2-1 0-.7zm.6-.9c.2-.4-.2-.6-.3-.8s0-.7 0-.8 0-.6.2-.6c.1 0 .1.2.1.3 0 .6.2 1.1.2 1.7s0 .2-.1.3z"></path><path d="M99.8 73.2c-.3 0-.8-.1-1 .3-.5.2.3-.9.3-.9.3 0 0 .9.5.4v.3zm-1.9-1.1c-.3 0-.1-.3-.2-.5 0-.4-.2-1.1 0-1.1.4.5 0 1 .1 1.6zm1.8-1.7s.3.8.3.9c0 .1 0 .2-.1.3-.2-.4-.6-.8-.5-1.4 0 0 .3.1.3.2zm-2.6 2s.4-.2.4.2c-.2.2-.5 0-.6.3-.2-.2-.3-.7 0-.8.1 0 .2.3.2.3zm.1-1.8v.5c0-.1-.5-.1-.4-.4h.5zm3.3.2c-.1.4.5.8.1 1.1-.3-.2-.3-.7-.3-1s0-.1.1-.1zm-3.4 2.7c.2-.2.6 1.2.3 1.2l-.3-1.2zm-2.1-3c.4 0 .5.5.2.7-.2 0-.2-.4-.3-.6s-.1-.1 0-.2zm7 .3v.7c0 .1 0 .4-.1.4 0-.4-.1-.8-.2-1.2h.3zm-6.9 1.5H95c.2-.3.3-.6 0-.8.6-.4.4.5.1.8zm-.8-.9c.1.1.6.7.3.7s-.3-.5-.3-.7zm3.8 1.1v.5l-.4-.2c-.1-.2.3-.3.4-.3zm3-1.6c0 .3.2.6 0 .8-.2-.2-.2-.5-.1-.7s0-.1.1-.1zm-4.9 4.9v-.5l.4.2c0 .1-.3.4-.4.3z"></path></g></g></g></svg>