<?xml version="1.0" encoding="UTF-8"?><svg xmlns="http://www.w3.org/2000/svg" viewBox="0 0 20.21 7"><g transform="translate(20.21 0) scale(-1 1)"><g transform="matrix(0.6701,0,0,0.6701,-385.955,-56.099)"><g transform="matrix(3.7794642857142855,0,0,3.7794642857142855,0,0.007366071428562141)"><path style="fill:#3a2c1a" d="m 152.66817,24.592846 c 9.8e-4,-0.102519 1.65817,-1.148295 2.66723,-1.683173 0.83395,-0.442054 0.98345,-0.49342 1.44096,-0.495109 0.49212,-0.0018 0.54449,0.02029 1.45689,0.615014 0.52054,0.339294 1.1576,0.710289 1.4157,0.824432 0.52309,0.231335 0.63719,0.427894 0.1941,0.334387 -0.49473,-0.104408 -1.45909,-0.542789 -2.1403,-0.972944 -0.97848,-0.617871 -1.06036,-0.603751 -3.09641,0.533983 -1.42264,0.794966 -1.93987,1.020045 -1.93817,0.84341 z" id="path16"></path></g></g></g></svg>