<?xml version="1.0" encoding="UTF-8"?><svg xmlns="http://www.w3.org/2000/svg" viewBox="0 0 23.05 7"><g transform="translate(23.05 0) scale(-1 1)"><g transform="matrix(1.1044,0,0,1.1044,-640.972,-61.582)"><g transform="matrix(3.7794642857142855,0,0,3.7794642857142855,0,0.007366071428562141)"><path style="fill:#3a2c1a" d="m 154.30659,15.814901 c 0.37253,-0.21997 0.82973,-0.490063 1.016,-0.600207 0.46873,-0.277177 0.98368,-0.26425 1.75463,0.04405 0.9556,0.382141 1.78741,0.769494 1.74453,0.812381 -0.0502,0.05024 -1.58747,-0.393284 -2.1688,-0.625737 -0.2462,-0.09845 -0.53184,-0.178993 -0.63476,-0.178993 -0.10293,0 -0.56824,0.18961 -1.03404,0.421356 -1.14773,0.571032 -1.56048,0.648488 -0.67756,0.127153 z" id="path2"></path></g></g></g></svg>